<svg fill="none" height="20" viewBox="0 0 20 20" width="20" xmlns="http://www.w3.org/2000/svg"><path clip-rule="evenodd" d="m13.7064.162894c.3416.239397.4782.683477.3313 1.076826l-2.3462 6.28094 5.6378 1.52902c.3224.08742.571.34731.6469.6762.076.32892-.0331.67342-.2838.89632l-10.28638 9.1499c-.31208.2776-.77084.3044-1.11242.065-.34157-.2394-.47818-.6835-.33125-1.0768l2.34619-6.281-5.63787-1.529c-.32233-.0874-.57095-.3473-.6469-.6762-.07594-.32887.03312-.67337.28378-.89633l10.28645-9.14986c.3121-.2776008.7708-.3044132 1.1124-.065016zm-8.93425 9.461076 4.97053 1.34803c.24693.067.45432.2365.57102.4668.1166.2302.1316.4997.0412.7417l-1.41542 3.7891 6.28842-5.5936-4.9706-1.348c-.2469-.06697-.45433-.23654-.57097-.46679-.11663-.23025-.13159-.49969-.04118-.74172l1.41535-3.78907z" fill="#000" fill-rule="evenodd"/></svg>