<svg fill="none" height="20" viewBox="0 0 20 20" width="20" xmlns="http://www.w3.org/2000/svg"><g clip-rule="evenodd" fill="#000" fill-rule="evenodd"><path d="m17.25 1.75c0-.41421-.3358-.75-.75-.75s-.75.33579-.75.75v2h-2c-.4142 0-.75.33579-.75.75s.3358.75.75.75h2v2c0 .41421.3358.75.75.75s.75-.33579.75-.75v-2h2c.4142 0 .75-.33579.75-.75s-.3358-.75-.75-.75h-2z"/><path d="m4.15169 5.67289-.45938 1.32711h-1.69231c-1.104569 0-2 .89543-2 2v8c0 1.1046.89543 2 2 2h11c1.1046 0 2-.8954 2-2v-8c0-1.10457-.8954-2-2-2h-1.6923l-.4594-1.32711c-.1394-.40276-.5188-.67289-.94498-.67289h-4.80664c-.42621 0-.80557.27013-.94499.67289zm3.34831 9.82711c1.65685 0 3-1.3431 3-3s-1.34315-3-3-3-3 1.3431-3 3 1.34315 3 3 3z"/></g></svg>