<svg fill="none" height="20" viewBox="0 0 20 20" width="20" xmlns="http://www.w3.org/2000/svg"><path d="m14.219 12.3251c-.421 0-.7634-.3438-.7634-.7661s.3424-.7658.7634-.7658c.4209 0 .7633.3435.7633.7658s-.3424.7661-.7633.7661zm-8.43801 0c-.42097 0-.76337-.3438-.76337-.7661s.3424-.7658.76337-.7658c.42095 0 .76337.3435.76337.7658s-.34242.7661-.76337.7661zm8.71181-4.61332 1.5257-2.6509c.0875-.15237.0354-.34699-.1162-.43498-.1516-.08774-.3459-.03555-.4336.11657l-1.5448 2.68445c-1.1814-.54086-2.5082-.84212-3.92393-.84212-1.41574 0-2.74253.30126-3.92389.84212l-1.54483-2.68445c-.08771-.15212-.28196-.20431-.4336-.11657-.15163.08799-.20391.28261-.1162.43498l1.52575 2.6509c-2.6199 1.42947-4.41175 4.09032-4.673887 7.23382h18.333287c-.2623-3.1435-2.0542-5.80435-4.6738-7.23382z" fill="#000"/></svg>