<svg fill="none" height="20" viewBox="0 0 20 20" width="20" xmlns="http://www.w3.org/2000/svg"><rect height="18.5" rx="2.25" stroke="#000" stroke-width="1.5" width="12.5" x="3.75" y=".75"/><g fill="#000"><path clip-rule="evenodd" d="m11.212 7.28065c.1771-.30589.0727-.69743-.2332-.87453s-.6975-.07269-.8746.23321l-2.99292 5.16967h1.47904zm-2.99923 5.18045c-.27239-.2338-.56687-.4526-.82118-.4627-.37107-.0148-.49477.1784-.58782.3518l-.00347-.0041-.21608.3732c-.1771.3059-.07269.6975.23321.8746.30589.1771.69744.0727.87453-.2332z" fill-rule="evenodd"/><path clip-rule="evenodd" d="m9.88713 10.5289c.27467.003.55767.0306.73337.2906.1929.2856.2074.653.1348.9894h-4.1153c-.35346 0-.64-.2865-.64-.64 0-.3534.28654-.64.64-.64zm1.58367 1.28h1.8892c.3535 0 .64-.2865.64-.64 0-.3534-.2865-.64-.64-.64h-2.6349z" fill-rule="evenodd"/><path clip-rule="evenodd" d="m8.81896 7.28065c-.1771-.30589-.07269-.69743.23321-.87453s.69744-.07269.87454.23321l.82129 1.41858-.76056 1.24103zm1.69944 2.93545 1.8206 3.1446c.1771.3059.5686.4103.8745.2332s.4103-.5687.2332-.8746l-2.4643-4.25657c-.1579.02103-.3002.11328-.4099.33251-.3137.62739-.1732 1.15943-.053 1.42106z" fill-rule="evenodd"/><path d="m7 1h6v1c0 .55228-.4477 1-1 1h-4c-.55228 0-1-.44772-1-1z"/></g></svg>