<svg fill="none" height="20" viewBox="0 0 20 20" width="20" xmlns="http://www.w3.org/2000/svg" xmlns:xlink="http://www.w3.org/1999/xlink"><clipPath id="a"><path d="m0 0h20v20h-20z"/></clipPath><g clip-path="url(#a)" clip-rule="evenodd" fill="#000" fill-rule="evenodd"><path d="m13.0298 3.20167c.4428-.76474.1817-1.7436-.583-2.18634-.7647-.442747-1.7436-.181718-2.1863.58302l-7.48239 12.92405h3.6976zm-7.49798 12.95113c-.68098-.5845-1.41717-1.1316-2.05294-1.1568-.92769-.0369-1.23693.4461-1.46957.8795l-.00865-.0102-.5402.9331c-.44275.7647-.18172 1.7435.58302 2.1863.76474.4427 1.7436.1817 2.18634-.583z"/><path d="m9.71766 11.3224c.68684.0073 1.39434.0763 1.83344.7264.4823.7139.5185 1.6325.3371 2.4736h-10.2882c-.883656 0-1.6-.7164-1.6-1.6 0-.8837.716344-1.6 1.6-1.6zm3.95934 3.2h4.723c.8837 0 1.6-.7164 1.6-1.6 0-.8837-.7163-1.6-1.6-1.6h-6.5874z"/><path d="m7.04743 3.20167c-.44274-.76474-.18171-1.7436.58303-2.18634.76473-.442747 1.74359-.181718 2.18634.58302l2.0532 3.54647-1.90137 3.10256zm4.24867 7.33863 4.5513 7.8614c.4428.7647 1.4216 1.0257 2.1864.583.7647-.4428 1.0257-1.4216.583-2.1863l-6.1609-10.64154c-.3947.05257-.7505.28319-1.0245.83126-.7842 1.56849-.4332 2.89857-.1327 3.55268z"/></g></svg>