<svg fill="none" height="20" viewBox="0 0 20 20" width="20" xmlns="http://www.w3.org/2000/svg"><path d="m17.6592 15.3914c-.2919.6744-.6374 1.2952-1.0378 1.8659-.5457.7781-.9925 1.3167-1.3369 1.6157-.5338.4909-1.1057.7423-1.7181.7566-.4397 0-.9699-.1251-1.5871-.3789-.6193-.2526-1.1883-.3777-1.7087-.3777-.54566 0-1.13094.1251-1.75696.3777-.62697.2538-1.13205.3861-1.51822.3992-.5873.025-1.17269-.2335-1.75701-.7769-.37295-.3252-.83942-.8829-1.39824-1.6729-.59957-.8435-1.0925-1.8218-1.47867-2.937-.41358-1.2047-.6209-2.3711-.6209-3.5005 0-1.29359.27953-2.40932.83942-3.3443.44003-.75101 1.02542-1.34344 1.75808-1.77834s1.5243-.65652 2.37683-.6707c.46648 0 1.0782.14429 1.83839.42787.75804.28453 1.24477.42883 1.45818.42883.1595 0 .7002-.16872 1.6169-.50509.8668-.31193 1.5984-.44109 2.1977-.39022 1.6241.13107 2.8442.77127 3.6556 1.92466-1.4525.88005-2.1709 2.11267-2.1566 3.69389.0131 1.2317.4599 2.2566 1.338 3.0704.398.3778.8424.6697 1.3369.877-.1072.311-.2204.6089-.3408.8948zm-3.7246-14.656781c0 .965381-.3527 1.866741-1.0557 2.701041-.8484.99182-1.8745 1.56494-2.98727 1.4745-.01418-.11582-.0224-.23771-.0224-.36579 0-.92676.40347-1.91858 1.11987-2.72952.3577-.4106.8126-.752 1.3643-1.024349.5505-.268281 1.0712-.416648 1.5609-.442051.0143.129053.0203.258117.0203.386157z" fill="#000"/></svg>