<svg width="20" height="20" viewBox="0 0 20 20" fill="none" xmlns="http://www.w3.org/2000/svg">
<path d="M10.216 20C12.3837 20 14.5057 19.4904 15.4565 18.9504L14.7035 16.7446C13.8896 17.0793 12.1403 17.5205 10.3909 17.5205C5.43181 17.5205 2.73929 14.8888 2.72408 10.0818C2.73929 5.7312 5.21884 2.45303 10.2768 2.45303C13.9353 2.45303 17.3351 4.2024 17.3275 8.97895C17.3351 11.9529 16.7875 13.3067 15.7379 13.3067C15.2131 13.3067 14.8936 12.9112 14.886 12.2039V4.78046H12.5054V5.63232H12.3989C12.1403 4.963 10.5278 4.3317 8.81646 4.59031C6.78567 4.88694 4.59515 6.55265 4.57994 10.0818C4.59515 13.6642 6.63355 15.4973 9.03704 15.6266C10.7636 15.7254 12.3152 15.0029 12.6727 14.0826H12.764C12.9313 15.1322 13.631 15.8471 15.3956 15.7178C18.6814 15.5353 19.9364 12.8884 19.9288 9.15389C19.9364 3.74604 16.3616 0.00390625 10.3148 0.00390625C3.77371 0.00390625 0.0239634 4.05789 0.0163574 10.1731C0.0239634 16.3872 3.74328 20 10.216 20ZM9.86609 13.1242C7.88093 13.1242 7.2116 11.603 7.204 9.99055C7.2116 8.25638 8.16235 7.1231 9.85087 7.1231C11.7752 7.1231 12.3532 8.14229 12.3608 9.96773C12.3837 12.0366 11.7295 13.1242 9.86609 13.1242Z" fill="#596068"/>
</svg>
