<svg fill="none" height="20" viewBox="0 0 20 20" width="20" xmlns="http://www.w3.org/2000/svg"><path d="m13.3333 6.66666v4.16664c0 .6631.2634 1.299.7323 1.7678.4688.4688 1.1047.7322 1.7677.7322.6631 0 1.299-.2634 1.7678-.7322s.7322-1.1047.7322-1.7678v-.83331c-.0001-1.88081-.6364-3.70627-1.8056-5.17956-1.1691-1.47328-2.8022-2.50775-4.6338-2.93519s-3.75395-.22271-5.45444.58089c-1.70049.80361-3.07912 2.15882-3.91174 3.8453-.83262 1.68647-1.07024 3.60501-.67424 5.44367.396 1.8386 1.40234 3.4893 2.85538 4.6834 1.45305 1.1942 3.26734 1.8618 5.14787 1.8941 1.88057.0324 3.71667-.5724 5.20997-1.7159m-1.7334-6.61671c0 1.84091-1.4924 3.33331-3.3333 3.33331-1.84095 0-3.33334-1.4924-3.33334-3.33331 0-1.84095 1.49239-3.33333 3.33334-3.33333 1.8409 0 3.3333 1.49238 3.3333 3.33333z" stroke="#000" stroke-linecap="square" stroke-linejoin="round" stroke-width="1.85"/></svg>