<svg width="20" height="20" viewBox="0 0 20 20" fill="none" xmlns="http://www.w3.org/2000/svg">
<path d="M10 13.3334C11.841 13.3334 13.3334 11.841 13.3334 10C13.3334 8.15907 11.841 6.66669 10 6.66669C8.15907 6.66669 6.66669 8.15907 6.66669 10C6.66669 11.841 8.15907 13.3334 10 13.3334Z" stroke="black" stroke-width="2" stroke-linecap="square" stroke-linejoin="round"/>
<path d="M13.3334 6.66666V10.8333C13.3334 11.4964 13.5968 12.1323 14.0656 12.6011C14.5344 13.0699 15.1703 13.3333 15.8334 13.3333C16.4964 13.3333 17.1323 13.0699 17.6011 12.6011C18.07 12.1323 18.3334 11.4964 18.3334 10.8333V9.99999C18.3332 8.11918 17.6969 6.29372 16.5278 4.82043C15.3586 3.34715 13.7255 2.31268 11.8939 1.88524C10.0623 1.4578 8.13997 1.66253 6.43948 2.46613C4.739 3.26974 3.36036 4.62495 2.52774 6.31143C1.69513 7.9979 1.4575 9.91644 1.8535 11.7551C2.2495 13.5937 3.25584 15.2444 4.70889 16.4385C6.16193 17.6327 7.97622 18.3003 9.85675 18.3326C11.7373 18.365 13.5735 17.7602 15.0667 16.6167" stroke="black" stroke-width="2" stroke-linecap="square" stroke-linejoin="round"/>
</svg>
