<svg fill="none" height="20" viewBox="0 0 20 20" width="20" xmlns="http://www.w3.org/2000/svg"><path clip-rule="evenodd" d="m14.1888 2.87415c-.2487 0-.4871.09877-.663.27459-.1758.17581-.2745.41427-.2745.66291s.0987.4871.2745.66291c.1759.17582.4143.27459.663.27459.2486 0 .4871-.09877.6629-.27459.1758-.17581.2746-.41427.2746-.66291s-.0988-.4871-.2746-.66291c-.1758-.17582-.4143-.27459-.6629-.27459zm-2.8125.9375c.0001-.51558.142-1.02121.4101-1.46161s.6521-.79863 1.11-1.03554.9722-.343386 1.4865-.30779c.5144.0356 1.0091.2119 1.43.50964s.7519.70545.9568 1.17859c.2049.47313.2757.99348.2049 1.50417-.0709.51069-.2808.99207-.6068 1.39154-.3259.39946-.7554.70164-1.2415.8735v.785c0 .8288-.3293 1.62366-.9153 2.20971-.5861.58604-1.3809.91534-2.2097.91534h-5.00004c-.33152 0-.64947.1316-.88389.3661-.23442.2344-.36611.5523-.36611.8839v1.41c.62586.2211 1.15338.6564 1.48931 1.2289s.45865 1.2454.34645 1.8996c-.1122.6543-.45208 1.2478-.95957 1.6756-.50749.4279-1.1499.6626-1.81369.6626s-1.30621-.2347-1.8137-.6626c-.50749-.4278-.84737-1.0213-.95957-1.6756-.1122-.6542.01052-1.3271.34645-1.8996s.86345-1.0078 1.48932-1.2289v-6.57005c-.62552-.22115-1.15271-.65631-1.48841-1.22857s-.45828-1.24478-.34609-1.89868.45194-1.24709.95919-1.67472c.50725-.42764 1.14935-.66218 1.81281-.66218.66345 0 1.30555.23454 1.8128.66218.50725.42763.847 1.02082.95919 1.67472s-.01039 1.32642-.34609 1.89868-.86289 1.00742-1.4884 1.22857v2.295c.39424-.17204.81985-.26057 1.25-.26h5.00004c.3315 0 .6494-.1317.8838-.36612.2345-.23442.3662-.55236.3662-.88388v-.785c-.5485-.19392-1.0234-.55315-1.3592-1.0282s-.516-1.04254-.5158-1.6243zm-6.56254 10.93755c-.24864 0-.4871.0987-.66292.2745-.17581.1759-.27458.4143-.27458.663 0 .2486.09877.487.27458.6629.17582.1758.41428.2746.66292.2746s.48709-.0988.66291-.2746c.17581-.1759.27459-.4143.27459-.6629 0-.2487-.09878-.4871-.27459-.663-.17582-.1758-.41427-.2745-.66291-.2745zm-.9375-10.93755c0-.24864.09877-.4871.27458-.66291.17582-.17582.41428-.27459.66292-.27459s.48709.09877.66291.27459c.17581.17581.27459.41427.27459.66291s-.09878.4871-.27459.66291c-.17582.17582-.41427.27459-.66291.27459s-.4871-.09877-.66292-.27459c-.17581-.17581-.27458-.41427-.27458-.66291z" fill="#000" fill-rule="evenodd"/></svg>