<svg fill="none" height="20" viewBox="0 0 20 20" width="20" xmlns="http://www.w3.org/2000/svg"><g fill="#000"><path d="m10.2724 3.06048c-.1672-.5931-.52363-1.11534-1.01491-1.48727-.49136-.37193-1.09072-.57321-1.70697-.57321-.61624 0-1.21561.20128-1.70694.57321-.49134.37193-.84776.89417-1.01502 1.48727.84466-.42421 1.77676-.64512 2.72196-.64512.94521 0 1.87729.22091 2.72188.64512z"/><path d="m9.32873 15.7862c-.94299-1.0356-1.51789-2.4123-1.51789-3.9233 0-2.75511 1.9115-5.0638 4.48066-5.6722h-.1229c-.4336-.85211-1.0945-1.56764-1.9095-2.06742-.81507-.49978-1.75251-.7643-2.70859-.7643s-1.89351.26452-2.70857.7643c-.81504.49978-1.47593 1.21531-1.90951 2.06742h-.57289c-.37548 0-.73557-.14916-1.00107-.41465-.2655-.26551-.414653-.6256-.414653-1.00107 0-.12516-.04972-.24519-.138224-.33369-.088497-.0885-.208529-.13822-.333686-.13822-.125158 0-.245189.04972-.333688.13822-.0885004.0885-.138219.20853-.138219.33369.00074932.62556.249583 1.22528.69192 1.66761.44234.44234 1.04206.69118 1.66762.69192h.20103c-.1322.46034-.19986.93679-.20103 1.41573v.47189h-1.887633c-.125158 0-.245189.04976-.333688.13824-.0885004.08848-.138219.20856-.138219.33368s.0497186.2452.138219.33368c.088499.08848.20853.13824.333688.13824h1.887633v.94383c.00116.3166.03133.6326.09013.9438h-.09013c-.62556.0008-1.22528.2496-1.66762.6919-.442337.4423-.69117068 1.0421-.69192 1.6676 0 .1252.0497186.2452.138219.3337.088499.0885.20853.1382.333688.1382.125157 0 .245189-.0497.333686-.1382.088504-.0885.138224-.2085.138224-.3337 0-.3755.149153-.7355.414653-1.0011.2655-.2655.62559-.4146 1.00107-.4146h.36053c.37875.973 1.04255 1.8091 1.90448 2.3986.86192.5893 1.88177.9048 2.92596.9048.6099 0 1.21152-.1077 1.77822-.3146z"/><path d="m13.3776 6.03978c.1337-.06725.2571-.1559.365-.26373.2654-.26551.4146-.6256.4146-1.00107 0-.12516.0497-.24519.1382-.33369.0886-.0885.2086-.13822.3338-.13822.1251 0 .2451.04972.3336.13822s.1382.20853.1382.33369c-.0006.48645-.1511.95729-.4261 1.35063-.336-.0602-.6819-.09163-1.0351-.09163-.0879 0-.1753.00195-.2622.0058z"/><path clip-rule="evenodd" d="m15.7261 15.556c-.616.3487-1.3279.5477-2.0862.5477-2.3422 0-4.24093-1.8987-4.24093-4.2408 0-2.34211 1.89873-4.24083 4.24093-4.24083 2.3421 0 4.2408 1.89872 4.2408 4.24083 0 1.0499-.3816 2.0107-1.0135 2.7513l2.6651 2.665c.2876.2876.2876.7539 0 1.0414-.2876.2876-.7538.2876-1.0414.0001zm.5546-3.6931c0 1.4585-1.1824 2.6408-2.6408 2.6408-1.4586 0-2.6409-1.1823-2.6409-2.6408 0-1.4584 1.1823-2.64083 2.6409-2.64083 1.4584 0 2.6408 1.18233 2.6408 2.64083z" fill-rule="evenodd"/></g></svg>