<svg width="20" height="20" viewBox="0 0 20 20" fill="none" xmlns="http://www.w3.org/2000/svg">
<path fill-rule="evenodd" clip-rule="evenodd" d="M9.47749 0.128958C9.78428 -0.0427368 10.1625 -0.0430022 10.4696 0.128261L18.597 4.64779C18.9044 4.82022 19.0929 5.13853 19.0909 5.4821L19.0392 14.5261C19.0372 14.8652 18.85 15.1781 18.5469 15.3489L10.5225 19.8697C10.361 19.9607 10.1794 20.004 9.99879 19.9997C9.81818 20.004 9.63666 19.9607 9.47513 19.8697L1.44825 15.3489C1.14493 15.1781 0.957669 14.8649 0.955912 14.5256L0.909101 5.48159C0.907323 5.13809 1.09583 4.81993 1.40322 4.64763L1.41187 4.64285L9.47749 0.128958ZM3.87896 5.47704L9.97505 8.89049L12.0872 7.71177L6.05383 4.25988L3.87896 5.47704ZM2.93582 13.9683L2.9005 7.1444L8.98279 10.5501V17.374L2.93582 13.9683ZM8.02188 3.15847L9.975 2.06542L16.0915 5.47707L14.058 6.61193L8.02188 3.15847ZM11.0148 17.3737V10.5502L17.0986 7.1446L17.0596 13.9682L11.0148 17.3737Z" fill="black"/>
</svg>
