<svg fill="none" height="20" viewBox="0 0 20 20" width="20" xmlns="http://www.w3.org/2000/svg"><path clip-rule="evenodd" d="m4 0c-2.20914 0-4 1.79086-4 4v12c0 .4494.0741222.8816.210809 1.2848l5.224131-5.2241c-.41919-.9264-.54612-1.9585-.36386-2.95879.18226-1.00031.66505-1.92132 1.38402-2.64029.71897-.71898 1.63999-1.20176 2.6403-1.38402 1.0003-.18226 2.0324-.05534 2.9588.36386l-3.13458 3.13454-.00834.00834c-.15275.15583-.2383.36534-.2383.58355 0 .21822.08555.42773.2383.58356l1.33382 1.33385c.1559.1527.3654.2383.5836.2383s.4277-.0856.5835-.2383l3.1429-3.14288c.4192.92635.5461 1.95845.3639 2.95878-.1823 1.0003-.6651 1.9213-1.384 2.6403-.719.719-1.64 1.2017-2.6403 1.384-1.00034.1823-2.03245.0553-2.9588-.3639l-5.22581 5.2259c.40471.1378.83858.2125 1.28991.2125h12c2.2091 0 4-1.7909 4-4v-12c0-2.20914-1.7909-4-4-4z" fill="#000" fill-rule="evenodd"/></svg>