<svg fill="none" height="20" viewBox="0 0 20 20" width="20" xmlns="http://www.w3.org/2000/svg"><g fill="#000"><path d="m5.03135 9.37664c-.07686-.04329-.14931-.09292-.2167-.14811l-3.846537 2.14227 4.028697 2.1422c.14729.0783.32393.078.47096-.0008l3.53872-1.8967z"/><path d="m14.5087 13.4799-3.514-1.8686 3.9666-2.23475c.0864-.04864.1671-.10528.2414-.16881l3.8017 2.11406-4.0247 2.1573c-.147.0788-.3237.0791-.471.0008z"/><path d="m5.72037 2.78081 4.0324 2.1442c.14728.07832.32393.07803.47093-.00078l4.0248-2.15725-4.0052-2.2272c-.1607-.089628-.35865-.08949-.51921.000365z"/><path d="m14.7535 3.63087-4.0574 2.17474c-.441.23642-.97097.23729-1.41283.00234l-4.0417-2.14915.02286 4.41564c.0008.1554.07593.3003.20105.39399.01787.01339.03676.02573.0566.0369l4.20078 2.36587c.08453.0476.17953.0703.27405.0681.09449.0022.18959-.0205.27409-.0681l4.1995-2.3659c.1487-.08378.2441-.23294.2563-.3975.0008-.01097.0012-.02201.0013-.0331z"/><path d="m10.0024 12.2162.0463-.0248-.0003.0493 3.9908 2.1221c.4419.2349.9718.2341 1.4129-.0023l4.0574-2.1748-.0255 4.4438c0 .0111-.0005.0222-.0013.0331-.0122.1646-.1075.3138-.2563.3975l-4.1994 2.3659c-.0846.0477-.1796.0704-.2741.0681-.0945.0023-.1895-.0204-.2741-.068l-4.2-2.3328-.25-.1528-.26478.1528-4.222 2.3659c-.08075.0452-.171.068-.26131.0682l-.01161-.0002-.00132.0001-.00132-.0001-.01204.0002c-.09011-.0003-.18014-.023-.26071-.0682l-4.221316-2.3659c-.159514-.0894-.257992-.2533-.258916-.4309l-.022954-4.413 4.036796 2.1465c.44186.235.97179.2341 1.41286-.0023l4.05738-2.1748-.00002-.0052z"/></g></svg>