<svg fill="none" height="20" viewBox="0 0 20 20" width="20" xmlns="http://www.w3.org/2000/svg"><g stroke="#000" stroke-linecap="round" stroke-linejoin="round" stroke-width="2"><path d="m13.3333 3.33337h1.6667c.442 0 .866.1756 1.1785.48816.3126.31256.4882.73648.4882 1.17851v11.66666c0 .442-.1756.866-.4882 1.1785-.3125.3126-.7365.4882-1.1785.4882h-9.99999c-.44203 0-.86595-.1756-1.17851-.4882-.31256-.3125-.48816-.7365-.48816-1.1785v-11.66666c0-.44203.1756-.86595.48816-1.17851s.73648-.48816 1.17851-.48816h1.66667"/><path d="m12.5 1.66663h-5.00001c-.46024 0-.83333.37309-.83333.83333v1.66667c0 .46023.37309.83333.83333.83333h5.00001c.4602 0 .8333-.3731.8333-.83333v-1.66667c0-.46024-.3731-.83333-.8333-.83333z"/></g></svg>