<svg fill="none" height="20" viewBox="0 0 20 20" width="20" xmlns="http://www.w3.org/2000/svg"><g clip-rule="evenodd" fill="#000" fill-rule="evenodd"><path d="m4.45274 6.91291c-.14347.29537-.25161.59992-.31749.90791-1.90035.49145-3.323299 2.18048-3.323299 4.21748 0 2.4313 2.025529 4.3599 4.471099 4.3599h8.65495l-1.6048-1.6048h-7.05015c-1.60609 0-2.86634-1.2562-2.86634-2.7551 0-1.3961 1.08925-2.58081 2.53473-2.73969l.71471-.07856v-.71902c0-.10601.01243-.21907.03744-.33727zm3.32824-1.1441-1.17457-1.17457c.94883-.59393 2.11375-.98169 3.39357-.98169 3.06322 0 5.62612 2.23026 5.99732 5.15315 1.8024.34249 3.1907 1.8877 3.1907 3.7808 0 1.2616-.6163 2.3686-1.5612 3.0681l-1.1552-1.1552c.6725-.3997 1.1117-1.1157 1.1117-1.9129 0-1.2184-1.0257-2.247-2.3423-2.247h-.8024v-.80236c0-2.34084-1.964-4.27983-4.43862-4.27983-.81452 0-1.57107.21159-2.219.5515z"/><path d="m16.291 17.3055-13.41708-13.41705.7906-.79061 13.41708 13.41706z"/></g></svg>