<svg fill="none" height="20" viewBox="0 0 20 20" width="20" xmlns="http://www.w3.org/2000/svg"><path clip-rule="evenodd" d="m3.33333 0c-1.84095 0-3.33333 1.49238-3.33333 3.33333v13.33337c0 1.8409 1.49238 3.3333 3.33333 3.3333h13.33337c1.8409 0 3.3333-1.4924 3.3333-3.3333v-13.33337c0-1.84095-1.4924-3.33333-3.3333-3.33333zm8.50807 11.8444c.4884-.4886.7628-1.1512.7628-1.8422 0-.69089-.2744-1.35353-.7628-1.84209-.4884-.48857-1.1507-.76304-1.8414-.76304-.69067 0-1.35305.27447-1.84142.76304-.48838.48856-.76275 1.1512-.76275 1.84209 0 .691.27437 1.3536.76275 1.8422.48837.4886 1.15075.763 1.84142.763.6907 0 1.353-.2744 1.8414-.763zm.8135 1.3672c.7471-.6174 1.2559-1.4758 1.4389-2.4278h3.4583c.2072 0 .4059-.0823.5524-.2289s.2288-.3454.2288-.5527c0-.20723-.0823-.40602-.2288-.5526-.1465-.14656-.3452-.22891-.5524-.22891h-3.4583c-.1819-.95288-.6903-1.81249-1.4375-2.43078-.7472-.6183-1.6866-.95658-2.6563-.95658-.96972 0-1.90908.33828-2.65632.95658-.74723.61829-1.25556 1.4779-1.43743 2.43078h-3.45833c-.2072 0-.40592.08235-.55243.22891-.14651.14658-.22882.34537-.22882.5526 0 .2073.08231.4061.22882.5527s.34523.2289.55243.2289h3.45833c.18298.952.69176 1.8104 1.43887 2.4278.7471.6174 1.68585.9551 2.65488.9551.969 0 1.9078-.3377 2.6549-.9551z" fill="#000" fill-rule="evenodd"/></svg>