<svg fill="none" height="21" viewBox="0 0 20 21" width="20" xmlns="http://www.w3.org/2000/svg" xmlns:xlink="http://www.w3.org/1999/xlink"><clipPath id="a"><path d="m0 .5h20v20h-20z"/></clipPath><g clip-path="url(#a)"><path d="m11.327 11.4262h.75v-1.54651l-1.2144.95761zm-6.18668.0002.46436-.589-1.21436-.95747v1.54647zm0 7.5135h-.75v1.3912l1.16224-.7647zm1.56315-1.0285.40827-.6292-.4111-.2667-.40941.2693zm1.58488 1.0285-.40828.6291.4511.2928.42202-.3333zm1.30225-1.0285.38221-.6453-.443-.2624-.40406.3191zm1.7364 1.0285-.3822.6453 1.1322.6706v-1.3159zm-.4644-8.1026c-.7235.5705-1.6355.9105-2.62902.9105v1.5c1.34238 0 2.57922-.461 3.55782-1.2327zm-2.62902.9105c-.99345 0-1.90542-.34-2.6289-.9104l-.92872 1.1779c.97861.7716 2.21534 1.2325 3.55762 1.2325zm-2.34326 7.1921v-7.5135h-1.5v7.5135zm.40091-1.6551-1.56315 1.0285.82448 1.2531 1.56315-1.0285zm2.40539 1.0259-1.58488-1.0285-.81655 1.2583 1.58488 1.0285zm.42913-.9879-1.30225 1.0285.92969 1.1772 1.30221-1.0285zm2.58345.9718-1.73639-1.0285-.76443 1.2906 1.73642 1.0285zm-1.1322-6.8684v7.5137h1.5v-7.5137z" fill="#000"/><path clip-rule="evenodd" d="m2 2.25h16c.1381 0 .25.11193.25.25v11.4738c0 .1381-.1119.25-.25.25h-6.6732v1.75h6.6732c1.1046 0 2-.8954 2-2v-11.4738c0-1.10457-.8954-2-2-2h-16c-1.104569 0-2 .89543-2 2v11.4738c0 1.1046.895431 2 2 2h3.14014v-1.75h-3.14014c-.13807 0-.25-.1119-.25-.25v-11.4738c0-.13807.11193-.25.25-.25z" fill="#000" fill-rule="evenodd"/><circle cx="8.23358" cy="8.29169" r="4" stroke="#000" stroke-width="2"/></g></svg>