<svg fill="none" height="20" viewBox="0 0 20 20" width="20" xmlns="http://www.w3.org/2000/svg" xmlns:xlink="http://www.w3.org/1999/xlink"><clipPath id="a"><path d="m0 0h20v20h-20z"/></clipPath><g clip-path="url(#a)" clip-rule="evenodd" fill="#000" fill-rule="evenodd"><path d="m2.5 2.5c-1.38071 0-2.5 1.11929-2.5 2.5v10c0 1.3807 1.11929 2.5 2.5 2.5h15c1.3807 0 2.5-1.1193 2.5-2.5v-10c0-1.38071-1.1193-2.5-2.5-2.5zm-.83333 2.5c0-.46024.37309-.83333.83333-.83333h15c.4602 0 .8333.37309.8333.83333v1.75h-16.66663zm0 3.25v6.75c0 .4602.37309.8333.83333.8333h15c.4602 0 .8333-.3731.8333-.8333v-6.75z"/><path d="m12.7042 9.80809c-.3833-.22172-.8283-.34862-1.3029-.34862-1.43915 0-2.6058 1.16663-2.6058 2.60583 0 1.4391 1.16665 2.6057 2.6058 2.6057.4746 0 .9196-.1268 1.3029-.3486.3833.2217.8283.3486 1.3029.3486 1.4391 0 2.6058-1.1666 2.6058-2.6057 0-1.4392-1.1667-2.60583-2.6058-2.60583-.4746 0-.9196.1269-1.3029.34862zm-1.3029 3.86291c.1727 0 .339-.0272.4949-.0777-.3113-.4292-.4949-.9572-.4949-1.528 0-.5709.1836-1.0988.4949-1.5281-.1559-.0505-.3222-.0777-.4949-.0777-.8869 0-1.6058.7189-1.6058 1.6058 0 .8868.7189 1.6057 1.6058 1.6057zm4.2116-1.6057c0 .8868-.719 1.6057-1.6058 1.6057-.8869 0-1.6058-.7189-1.6058-1.6057 0-.8869.7189-1.6058 1.6058-1.6058.8868 0 1.6058.7189 1.6058 1.6058z"/></g></svg>