<svg fill="none" height="20" viewBox="0 0 20 20" width="20" xmlns="http://www.w3.org/2000/svg"><g fill="#000"><path d="m7.6838 6.90262 2.78 2.7564-2.76322 2.73978-1.22982-1.2194 1.53335-1.52038-1.55013-1.537z"/><path d="m9.53615 7.07448 2.77995 2.7564 1.2298-1.2194-1.5501-1.53699 1.5333-1.52034-1.2298-1.2194z"/><path clip-rule="evenodd" d="m.833313 2.52893c0-.4762.389337-.86224.869617-.86224h16.59407c.4803 0 .8696.38604.8696.86224v11.63777c0 .4762-.353.8333-.8333.8333h-6.6667v1.6667h1.6667v1.6667h-6.66665v-1.6667h1.66666v-1.6667h-6.66666c-.48028 0-.833337-.3571-.833337-.8333zm1.666667 10.80447v-10.00005h15.00002v10.00005z" fill-rule="evenodd"/></g></svg>