<svg fill="none" height="20" viewBox="0 0 20 20" width="20" xmlns="http://www.w3.org/2000/svg"><path d="m2 2c-1.104569 0-2 .89543-2 2v12c0 1.1046.895431 2 2 2h7v-8.25258l-2.95972 2.95968c-.39053.3906-1.02369.3906-1.41422 0-.39052-.3905-.39052-1.0236 0-1.4142l4.66667-4.66663c.1135-.1135.24749-.19401.39006-.24154.09197-.03074.18989-.04848.29158-.05103.00951-.00024.01903-.00035.02853-.00032.2805.0008.5338.11705.7149.30372l4.6558 4.6558c.3905.3906.3905 1.0237 0 1.4142-.3905.3906-1.0237.3906-1.4142 0l-2.9594-2.95935v8.25225h7c1.1046 0 2-.8954 2-2v-12c0-1.10457-.8954-2-2-2z" fill="#000"/></svg>