<svg width="20" height="20" viewBox="0 0 20 20" fill="none" xmlns="http://www.w3.org/2000/svg">
<path d="M16.9556 3.27349C15.6518 2.67718 14.2671 2.24257 12.8218 2C12.6399 2.31332 12.4377 2.73781 12.2962 3.07135C10.759 2.84899 9.23279 2.84899 7.71672 3.07135C7.57521 2.73781 7.36295 2.31332 7.19112 2C5.73573 2.24257 4.35105 2.67718 3.05634 3.27349C0.438605 7.13439 -0.268894 10.9043 0.0848541 14.6237C1.82327 15.8871 3.50106 16.6553 5.14953 17.1607C5.55382 16.6148 5.91768 16.0286 6.231 15.4121C5.63468 15.1897 5.06868 14.9168 4.5229 14.5934C4.6644 14.4924 4.8059 14.3812 4.93729 14.27C8.2322 15.776 11.801 15.776 15.0555 14.27C15.197 14.3812 15.3284 14.4924 15.4699 14.5934C14.9241 14.9168 14.3581 15.1897 13.7618 15.4121C14.0751 16.0286 14.439 16.6148 14.8432 17.1607C16.4907 16.6553 18.1786 15.8871 19.9079 14.6237C20.3425 10.3181 19.2196 6.57854 16.9556 3.27349ZM6.68581 12.3294C5.6953 12.3294 4.88674 11.4299 4.88674 10.3283C4.88674 9.2266 5.67509 8.32702 6.68581 8.32702C7.68639 8.32702 8.50504 9.2266 8.48483 10.3283C8.48483 11.4299 7.68639 12.3294 6.68581 12.3294ZM13.3272 12.3294C12.3367 12.3294 11.5271 11.4299 11.5271 10.3283C11.5271 9.2266 12.3164 8.32702 13.3272 8.32702C14.3278 8.32702 15.1464 9.2266 15.1262 10.3283C15.1262 11.4299 14.3379 12.3294 13.3272 12.3294Z" fill="black"/>
</svg>
