<svg fill="none" height="20" viewBox="0 0 20 20" width="20" xmlns="http://www.w3.org/2000/svg"><path clip-rule="evenodd" d="m20 10c0 5.4022-4.2837 9.8039-9.6395 9.9937v.0063h-10.3605v-10c0-5.52287 4.47715-10 10-10 5.5228 0 10 4.47713 10 10zm-3.7717-.15094c0 3.35684-2.7216 6.07814-6.079 6.07814-.90602 0-1.76578-.1982-2.53823-.5536l-3.82287.8122 1.08125-3.3224c-.50845-.8884-.79906-1.9174-.79906-3.01434 0-3.35684 2.72164-6.0781 6.07891-6.0781 3.3574 0 6.079 2.72126 6.079 6.0781z" fill="#000" fill-rule="evenodd"/></svg>