<svg fill="none" height="20" viewBox="0 0 20 20" width="20" xmlns="http://www.w3.org/2000/svg"><path clip-rule="evenodd" d="m4.16667 1.66669c-1.38071 0-2.5 1.11928-2.5 2.5v11.66671c0 1.3807 1.11929 2.5 2.5 2.5h11.66663c1.3807 0 2.5-1.1193 2.5-2.5v-11.66671c0-1.38071-1.1192-2.5-2.5-2.5zm3.08918 4.41066c-.32544-.32544-.85308-.32544-1.17852 0-.32543.32543-.32543.85307 0 1.17851l2.74408 2.74408-2.74407 2.74406c-.32544.3255-.32544.8531 0 1.1785.32543.3255.85307.3255 1.17851 0l2.74407-2.7441 2.74408 2.7441c.3254.3255.8531.3255 1.1785 0 .3255-.3254.3255-.853 0-1.1785l-2.7441-2.74406 2.7441-2.74408c.3255-.32544.3255-.85308 0-1.17851-.3254-.32544-.8531-.32544-1.1785 0l-2.74408 2.74408z" fill="#000" fill-rule="evenodd"/></svg>