<svg fill="none" height="20" viewBox="0 0 20 20" width="20" xmlns="http://www.w3.org/2000/svg" xmlns:xlink="http://www.w3.org/1999/xlink"><clipPath id="a"><path d="m0 0h20v20h-20z"/></clipPath><g clip-path="url(#a)"><path clip-rule="evenodd" d="m.706583.501622 9.669517 9.451708-9.677802 9.51097c-.068337-.1341-.1076-.2876-.1076-.4545v-18.037774c0-.17361.042452-.332654.115885-.470404zm.887327-.5310409c.16168.0003225.32756.0406892.48482.1286204l11.67937 6.5304485-2.6686 2.62261zm13.07359 7.1674989-2.8627 2.81333 3.0131 2.94529 3.5402-1.9414c.689-.3778.693-1.36612.0072-1.74961zm-.766 6.26122-2.8101-2.7468-9.52273 9.3585c.16705.0039.33941-.0347.50286-.1243z" fill="#000" fill-rule="evenodd"/></g></svg>