<svg fill="none" height="20" viewBox="0 0 20 20" width="20" xmlns="http://www.w3.org/2000/svg"><g fill="#000"><path d="m16.0852 19.5598h-4.7812v-.8694h4.7812c.5762-.0007 1.1286-.2299 1.536-.6373s.6367-.9598.6374-1.536v-3.0426h.8693v3.0426c-.0009.8067-.3218 1.5801-.8922 2.1505s-1.3438.8912-2.1505.8922z"/><path d="m9.64791.00640346c-4.93951.18690454-8.77584 4.40226654-8.77584 9.34565654v4.99164c0 .5764.22898 1.1292.63652 1.5368.4076.4076.96037.6365 1.53679.6365h1.30399c.34582 0 .6775-.1373.92207-.3819.24451-.2445.38192-.5762.38192-.9221v-4.3466c0-.3458-.13741-.6775-.38192-.92199-.24457-.24457-.57625-.38198-.92207-.38198h-2.17331v-.24254c0-4.23709 3.28819-7.85041 7.52227-8.01037 1.05177-.03941 2.10077.13353 3.08417.50856.9835.37508 1.8812.94449 2.6397 1.67426.7584.72977 1.362 1.60489 1.7746 2.57315.4127.96825.626 2.00976.6271 3.06228v.43466h-2.608c-.3458 0-.6775.13741-.922.38198-.2445.24449-.3819.57619-.3819.92199v4.3466c0 .3459.1374.6776.3819.9221.2445.2446.5762.3819.922.3819h1.7387c.5764 0 1.1292-.2289 1.5367-.6365.4076-.4076.6366-.9604.6366-1.5368v-5.21593c-.0013-1.22795-.2502-2.44304-.7316-3.57264-.4815-1.12966-1.1857-2.15065-2.0706-3.00207-.8848-.85136-1.9322-1.51569-3.0796-1.953255-1.1473-.43756-2.3711-.6393599-3.59819-.59340154z"/><path d="m4.78403 9.56238c.34582 0 .6775.13741.92207.38192.24451.2446.38192.5762.38192.9221v4.3466c0 .3458-.13741.6775-.38192.9221-.24457.2445-.57625.3819-.92207.3819h-1.73865c-.57642 0-1.12919-.229-1.53679-.6365-.40754-.4076-.63652-.9604-.63652-1.5368v-4.78132z"/><path d="m4.78406 9.56238h-.86933v6.95462h.86933c.34582 0 .67749-.1374.92206-.3819.24452-.2446.38193-.5763.38193-.9221v-4.3466c0-.3459-.13741-.6775-.38193-.9221-.24457-.24451-.57624-.38192-.92206-.38192z"/><path d="m15.2159 9.56238c-.3458 0-.6775.13741-.922.38192-.2446.2446-.382.5762-.382.9221v4.3466c0 .3458.1374.6775.382.9221.2445.2445.5762.3819.922.3819h1.7387c.5764 0 1.1292-.229 1.5368-.6365.4075-.4076.6365-.9604.6365-1.5368v-4.78132z"/><path d="m15.2159 9.56238h.8693v6.95462h-.8693c-.3458 0-.6775-.1374-.922-.3819-.2446-.2446-.382-.5763-.382-.9221v-4.3466c0-.3459.1374-.6775.382-.9221.2445-.24451.5762-.38192.922-.38192z"/><path d="m14.3018 17.8158h-4.30183c-.24005 0-.43466.1946-.43466.4347v1.3148c0 .2401.19461.4347.43466.4347h4.30183c.2401 0 .4347-.1946.4347-.4347v-1.3148c0-.2401-.1946-.4347-.4347-.4347z"/></g></svg>