<svg fill="none" height="20" viewBox="0 0 20 20" width="20" xmlns="http://www.w3.org/2000/svg" xmlns:xlink="http://www.w3.org/1999/xlink"><clipPath id="a"><path d="m0 0h20v20h-20z"/></clipPath><g clip-path="url(#a)"><path d="m10.0001.999985c-4.97057 0-9.0001 4.029525-9.0001 9.000115 0 4.9704 4.02953 8.9999 9.0001 8.9999 4.9706 0 9.0001-4.0295 9.0001-8.9999 0-4.97059-4.0295-9.000115-9.0001-9.000115zm-.01134 4.063905c.20164-.21888.44734-.33012.72994-.33012.2291 0 .4307.08244.5821.2385.1523.15516.2295.3537.2295.58951 0 .29556-.1033.55836-.3069.78103-.2092.22968-.4538.3465-.7263.3465-.225 0-.4243-.08442-.5762-.24408-.15048-.15643-.22734-.36091-.22734-.60679 0-.30114.09936-.56179.2952-.77455zm1.49924 8.47931c-.7461.7017-1.2787 1.1391-1.62758 1.3378-.37224.2131-.67897.3172-.93727.3172-.25668 0-.46603-.0855-.62263-.2538-.15174-.1627-.2286-.3825-.2286-.6525 0-.6902.39096-2.2929 1.19575-4.89986.01368-.0441.0243-.08604.0315-.1251-.03006.01296-.0648.03132-.10512.05634-.06588.04158-.26658.19908-.85393.77292-.08964.0877-.22986.0958-.32904.0189l-.3474-.26873c-.05545-.04267-.09037-.10675-.09649-.17659-.00612-.06966.01729-.13878.06427-.19062.54126-.59599 1.04653-1.02871 1.50193-1.28611.47665-.26857.87971-.39925 1.23161-.39925.2275 0 .4113.05652.5466.16848.1473.12277.225.29323.225.49321 0 .13122-.0622.47304-.522 2.01481-.65662 2.2028-.81358 3.0024-.8242 3.279.1242-.0734.4181-.2822 1.0456-.8719.0978-.0925.2511-.0907.3471.0029l.308.3002c.0491.0479.0766.1136.0759.1822s-.0291.1336-.079.1805z" fill="#000"/></g></svg>