<svg fill="none" height="20" viewBox="0 0 20 20" width="20" xmlns="http://www.w3.org/2000/svg"><path d="m10.0009 0c-2.71582 0-3.05666.0118753-4.12334.0604175-1.06459.0487505-1.79127.2172935-2.42711.4645885-.65771.255419-1.21564.597094-1.77147 1.153134-.55626.55584-.89793 1.11376-1.154183 1.77127-.247919.63605-.416671 1.36293-.4645881 2.42711-.0477089 1.06668-.0602089 1.40772-.0602089 4.12358 0 2.7159.0120837 3.0557.0604175 4.1223.0489585 1.0646.2175025 1.7913.4645885 2.4271.255627.6578.597294 1.2157 1.153344 1.7715.55563.5563 1.11355.8988 1.77085 1.1542.63626.2473 1.36314.4158 2.42753.4646 1.06668.0485 1.4073.0604 4.12296.0604 2.71611 0 3.05591-.0119 4.12251-.0604 1.0646-.0488 1.7921-.2173 2.4284-.4646.6575-.2554 1.2146-.5979 1.7702-1.1542.5563-.5558.8979-1.1137 1.1542-1.7712.2458-.6361.4146-1.363.4646-2.4272.0479-1.0666.0604-1.4066.0604-4.1225 0-2.71586-.0125-3.05669-.0604-4.12337-.05-1.0646-.2188-1.79127-.4646-2.42711-.2563-.65772-.5979-1.21564-1.1542-1.77148-.5562-.55625-1.1125-.897923-1.7708-1.153134-.6375-.247295-1.3646-.415838-2.4292-.4645885-1.0667-.0485422-1.4063-.0604175-4.12299-.0604175zm-.89705 1.8021c.26625-.00041.56333 0 .89705 0 2.6701 0 2.9865.00959 4.0409.0575.975.04459 1.5042.20751 1.8567.34438.4667.18125.7994.39792 1.1492.74793.35.35.5666.68334.7483 1.15001.1369.35208.3.88126.3444 1.85627.0479 1.05417.0583 1.37084.0583 4.03962 0 2.66879-.0104 2.98549-.0583 4.03959-.0446.975-.2075 1.5042-.3444 1.8563-.1812.4667-.3983.799-.7483 1.1488-.35.35-.6823.5666-1.1492.7479-.3521.1375-.8817.3-1.8567.3446-1.0542.0479-1.3708.0583-4.0409.0583-2.6702 0-2.98666-.0104-4.04084-.0583-.97501-.045-1.50418-.2079-1.85689-.3448-.46667-.1813-.80001-.3979-1.15001-.7479-.35001-.35-.56668-.6825-.74835-1.1494-.13687-.3521-.3-.8813-.34437-1.8563-.04792-1.0542-.0575-1.3708-.0575-4.04129 0-2.67044.00958-2.98544.0575-4.03962.04458-.97501.2075-1.50419.34437-1.85669.18126-.46667.39834-.80001.74835-1.15001.35-.35.68334-.56667 1.15001-.74834.3525-.1375.88188-.3 1.85689-.3448.92251-.04166 1.28002-.05416 3.14379-.05625zm6.23505 1.66044c-.6625 0-1.2.53688-1.2 1.19959 0 .66251.5375 1.20001 1.2 1.20001s1.2-.5375 1.2-1.20001-.5375-1.20001-1.2-1.20001zm-5.338 1.40209c-2.83603 0-5.13543 2.2994-5.13543 5.13547 0 2.8361 2.2994 5.1344 5.13543 5.1344 2.8361 0 5.1347-2.2983 5.1347-5.1344 0-2.83607-2.2988-5.13547-5.1349-5.13547zm0 1.80211c1.8409 0 3.3334 1.4923 3.3334 3.33336 0 1.8409-1.4925 3.3334-3.3334 3.3334-1.84102 0-3.33333-1.4925-3.33333-3.3334 0-1.84106 1.49231-3.33336 3.33333-3.33336z" fill="#000"/></svg>