<svg width="20" height="20" viewBox="0 0 20 20" fill="none" xmlns="http://www.w3.org/2000/svg">
<path d="M10.4502 17.7497L10 17.4796L9.54982 17.7497L7.46169 19.0026L4.89131 17.7174L4.40762 17.4755L3.975 17.8L2.20833 19.125H2C1.37868 19.125 0.875 18.6213 0.875 18V9V3C0.875 1.82639 1.82639 0.875 3 0.875H17C18.1736 0.875 19.125 1.82639 19.125 3V9V18C19.125 18.6213 18.6213 19.125 18 19.125H17.7917L16.025 17.8L15.5924 17.4755L15.1087 17.7174L12.5383 19.0026L10.4502 17.7497Z" stroke="black" stroke-width="1.75"/>
<path d="M4.44434 5.1828H15.5557" stroke="black"/>
<path d="M4.44434 7.87988H15.5557" stroke="black"/>
<path d="M4.44434 10.8134H13.6695" stroke="black"/>
</svg>
