<svg width="20" height="21" viewBox="0 0 20 21" fill="none" xmlns="http://www.w3.org/2000/svg">
<g clip-path="url(#clip0)">
<path d="M10.4502 17.97L10 17.6999L9.54982 17.97L7.46169 19.2229L4.89131 17.9377L4.40762 17.6959L3.975 18.0203L2.20833 19.3453H2C1.37868 19.3453 0.875 18.8417 0.875 18.2203V2.22034C0.875 1.59902 1.37868 1.09534 2 1.09534H18C18.6213 1.09534 19.125 1.59902 19.125 2.22034V18.2203C19.125 18.8417 18.6213 19.3453 18 19.3453H17.7917L16.025 18.0203L15.5924 17.6959L15.1087 17.9377L12.5383 19.2229L10.4502 17.97Z" stroke="black" stroke-width="1.75"/>
<path d="M4.005 6.6875H15.995" stroke="black" stroke-width="2"/>
<path d="M4.005 10.2203H13.9597" stroke="black" stroke-width="2"/>
</g>
<defs>
<clipPath id="clip0">
<rect width="20" height="20" fill="white" transform="translate(0 0.220337)"/>
</clipPath>
</defs>
</svg>
