<svg fill="none" height="20" viewBox="0 0 20 20" width="20" xmlns="http://www.w3.org/2000/svg"><path d="m1.6565 19.125h-.7815v-1.125-9-8.125h18.25v8.125 9 1.125h-.6793l-1.5896-1.3019-.5257-.4305-.5472.4026-1.5156 1.1148-1.4801-1.11-.525-.3938-.525.3938-1.475 1.1062-1.47497-1.1062-.525-.3938-.525.3938-1.475 1.1062-1.475-1.1062-.48482-.3636-.51088.326z" stroke="#000" stroke-width="1.75"/><g fill="#000"><path d="m15 5.75h.75v-1.5h-.75zm-11 0h11v-1.5h-11z"/><path d="m15 8.75h.75v-1.5h-.75zm-11 0h11v-1.5h-11z"/><path d="m11 11.75h.75v-1.5h-.75zm-7 0h7v-1.5h-7z"/></g></svg>