<svg fill="none" height="20" viewBox="0 0 20 20" width="20" xmlns="http://www.w3.org/2000/svg"><path clip-rule="evenodd" d="m.88147 10c0-5.03601 4.08252-9.11853 9.11853-9.11853 5.0361 0 9.1186 4.08252 9.1186 9.11853 0 5.0361-4.0825 9.1186-9.1186 9.1186-5.03601 0-9.11853-4.0825-9.11853-9.1186zm3.70714-4.2514c-.92076 1.17036-1.47001 2.64676-1.47001 4.2514 0 1.6047.54924 3.0811 1.46998 4.2514l1.96565-1.9656c-.43519-.6548-.68875-1.4407-.68875-2.2858 0-.84511.25357-1.63101.68877-2.28576zm3.12567 7.6972-1.96565 1.9657c1.17036.9207 2.64674 1.47 4.25137 1.47 1.6047 0 3.081-.5493 4.2514-1.47l-1.9657-1.9657c-.6547.4352-1.4406.6888-2.2857.6888-.84509 0-1.63097-.2536-2.28572-.6888zm9.16722-3.4458c0 1.6047-.5493 3.0811-1.47 4.2515l-1.9657-1.9657c.4352-.6547.6888-1.4407.6888-2.2858 0-.84208-.2518-1.62538-.6841-2.27873l1.9661-1.96613c.9177 1.16932 1.4649 2.6432 1.4649 4.24486zm-2.6367-5.41662c-1.1693-.91761-2.6431-1.46478-4.2448-1.46478-1.60461 0-3.08098.54923-4.25133 1.46996l1.96564 1.96564c.65474-.43517 1.44062-.68872 2.28569-.68872.8421 0 1.6253.25173 2.2787.68404zm-2.5462 3.59048c-.4453-.41436-1.0423-.66782-1.6986-.66782-1.37737 0-2.49396 1.11659-2.49396 2.49396 0 1.3774 1.11659 2.494 2.49396 2.494 1.3774 0 2.494-1.1166 2.494-2.494 0-.65625-.2535-1.25331-.6679-1.69861-.0232-.01868-.0456-.03879-.0672-.06034-.0215-.02155-.0416-.04398-.0603-.06719z" fill="#000" fill-rule="evenodd"/></svg>