<svg width="20" height="20" viewBox="0 0 20 20" fill="none" xmlns="http://www.w3.org/2000/svg">
<path fill-rule="evenodd" clip-rule="evenodd" d="M14.6216 9.20255H5.37834C4.64906 9.20255 4.05786 9.79374 4.05786 10.523V17.1254C4.05786 17.8547 4.64906 18.4459 5.37834 18.4459H14.6216C15.3509 18.4459 15.9421 17.8547 15.9421 17.1254V10.523C15.9421 9.79374 15.3509 9.20255 14.6216 9.20255ZM5.37834 7.88207C3.91978 7.88207 2.73739 9.06446 2.73739 10.523V17.1254C2.73739 18.5839 3.91978 19.7663 5.37834 19.7663H14.6216C16.0802 19.7663 17.2626 18.5839 17.2626 17.1254V10.523C17.2626 9.06446 16.0802 7.88207 14.6216 7.88207H5.37834Z" fill="black"/>
<path fill-rule="evenodd" clip-rule="evenodd" d="M5.37834 4.85532C5.37834 2.30285 7.44752 0.233667 9.99999 0.233667C12.5525 0.233667 14.6216 2.30285 14.6216 4.85532V7.88207H13.3012V4.85532C13.3012 3.03213 11.8232 1.55414 9.99999 1.55414C8.1768 1.55414 6.69881 3.03213 6.69881 4.85532V7.88207H5.37834V4.85532Z" fill="black"/>
<path fill-rule="evenodd" clip-rule="evenodd" d="M5.14467 4.85532C5.14467 2.1738 7.31847 0 9.99999 0C12.6815 0 14.8553 2.1738 14.8553 4.85532V7.65777C16.3336 7.77669 17.4963 9.01408 17.4963 10.523V17.1254C17.4963 18.713 16.2093 20 14.6216 20H5.37834C3.79073 20 2.50372 18.713 2.50372 17.1254V10.523C2.50372 9.01408 3.66635 7.77669 5.14467 7.65777V4.85532ZM5.37834 8.11574C4.04883 8.11574 2.97106 9.19351 2.97106 10.523V17.1254C2.97106 18.4549 4.04883 19.5327 5.37834 19.5327H14.6216C15.9511 19.5327 17.0289 18.4549 17.0289 17.1254V10.523C17.0289 9.19351 15.9511 8.11574 14.6216 8.11574H5.37834ZM6.93248 7.64841H13.0675V4.85532C13.0675 3.16118 11.6941 1.78781 9.99999 1.78781C8.30585 1.78781 6.93248 3.16118 6.93248 4.85532V7.64841ZM13.5348 7.64841H14.388V4.85532C14.388 2.4319 12.4234 0.467334 9.99999 0.467334C7.57657 0.467334 5.612 2.4319 5.612 4.85532V7.64841H6.46514V4.85532C6.46514 2.90308 8.04775 1.32047 9.99999 1.32047C11.9522 1.32047 13.5348 2.90308 13.5348 4.85532V7.64841ZM5.37834 9.43621C4.77811 9.43621 4.29153 9.92279 4.29153 10.523V17.1254C4.29153 17.7256 4.77811 18.2122 5.37834 18.2122H14.6216C15.2219 18.2122 15.7085 17.7256 15.7085 17.1254V10.523C15.7085 9.92279 15.2219 9.43621 14.6216 9.43621H5.37834ZM3.8242 10.523C3.8242 9.66469 4.52001 8.96888 5.37834 8.96888H14.6216C15.48 8.96888 16.1758 9.66469 16.1758 10.523V17.1254C16.1758 17.9837 15.48 18.6795 14.6216 18.6795H5.37834C4.52001 18.6795 3.8242 17.9837 3.8242 17.1254V10.523Z" fill="black"/>
</svg>
