<svg fill="none" height="20" viewBox="0 0 20 20" width="20" xmlns="http://www.w3.org/2000/svg"><g fill="#000"><path d="m4.99819 5.81393v-.45105c0-1.33704.48327-2.60964 1.38536-3.54395.88599-.966532 2.09415-1.482016 3.35065-1.482016h.16108c2.62572 0 4.73602 2.255236 4.73602 5.025966v1.90084c-.6121-.24163-1.3532-.32217-2.0297-.28996v-1.61088c0-1.57867-1.2082-2.86738-2.69021-2.86738h-.17719c-1.49813 0-2.70629 1.28871-2.70629 2.86738v.43494c0 .5477-.38662 1.01486-.9021 1.06318h-.01611c-.14245.01839-.28721.0048-.42375-.03979-.13654-.04458-.26143-.11904-.36558-.21795-.10572-.10524-.18882-.23097-.24422-.36947s-.08193-.28686-.07796-.43597z"/><path d="m16.9993 17.7934v-7.7c.0069-.25518-.0742-.50492-.2296-.70733-.1555-.2024-.3759-.34514-.6242-.40423l-.0967-.01611c-4.1572-.83745-8.4398-.83745-12.59708 0l-.08055.01611c-.25127.05589-.47536.19726-.634.39997-.15865.20271-.24202.45421-.23588.71159v7.7c0 .5316.3544.9987.86988 1.1115l.64436.1289c3.78546.7593 7.68407.7593 11.46947 0l.6444-.1289c.2541-.0564.4803-.2001.6392-.4062.159-.2061.2406-.4614.2307-.7214z"/></g></svg>