<svg fill="none" height="20" viewBox="0 0 20 20" width="20" xmlns="http://www.w3.org/2000/svg"><g fill="#000"><path d="m13.1026 9.44933c0 .25159-.0662.47414-.1988.66767-.1326.1935-.3237.3445-.5732.4528-.2457.1045-.5381.1568-.8774.1568-.6707 0-1.2049-.1935-1.60264-.5806l.48544-.53411c.3081.27094.6727.40641 1.0938.40641.2028 0 .3646-.04258.4855-.12773.1248-.08902.1872-.21094.1872-.36576 0-.14708-.0527-.26126-.158-.34254-.1014-.08516-.2924-.17031-.5732-.25546-.4757-.14321-.813-.31157-1.0119-.5051-.1988-.19353-.2983-.44317-.2983-.74894 0-.23998.0663-.44898.1989-.62703.1365-.17804.3197-.31351.5498-.4064.234-.09289.4933-.13934.7779-.13934.5966 0 1.0802.17417 1.4506.52252l-.4504.51671c-.1364-.11224-.2846-.19546-.4445-.24965-.156-.05805-.3178-.08708-.4855-.08708-.1871 0-.3353.03483-.4445.1045-.1053.0658-.1579.16256-.1579.29029 0 .08515.0234.15676.0702.21481.0507.05806.1325.11225.2456.16257.1131.05031.2827.11031.5089.17997.4133.12386.7194.28449.9183.48188.2028.19353.3041.46447.3041.81281z"/><path d="m5.98888 9.93121h-.75453v-3.32671h-.81887l-1.3102.78959.39189.63283.83642-.52252v2.42681h-.9768v.69669h2.63209z"/><path d="m7.56585 9.6235c-.12478.12773-.18717.27868-.18717.4529 0 .178.06239.3309.18717.4586.12868.1277.28271.1916.46208.1916s.33145-.0639.45623-.1916c.12868-.1277.19302-.2806.19302-.4586 0-.17422-.06434-.32517-.19302-.4529-.12478-.12772-.27686-.19159-.45623-.19159s-.3334.06387-.46208.19159z"/><path d="m16.1068 6.61031c-.2028-.07354-.4445-.11031-.7253-.11031-.3587 0-.6824.08322-.9709.24965-.2886.16643-.5148.40834-.6785.72572-.1638.31738-.2457.69476-.2457 1.13212 0 .44898.0799.8341.2398 1.15535.1599.31736.3802.55736.661.71996.2846.1625.6122.2438.9826.2438.5498 0 1.0041-.1819 1.3628-.5457l-.4328-.55159c-.1482.11612-.2866.20514-.4153.26707-.1287.06192-.2827.09289-.462.09289-.2925 0-.5226-.11225-.6902-.33674-.1677-.22836-.2516-.5767-.2516-1.04504 0-.46833.0839-.81861.2516-1.05084.1715-.23223.3957-.34835.6726-.34835.2925 0 .5615.0987.8072.2961l.4679-.56316c-.1794-.14708-.3704-.25739-.5732-.33093z"/><path d="m5.14077 13.4302c-.21057-.1045-.46403-.1568-.76039-.1568-.31195 0-.581.06-.80717.18-.22227.12-.41334.2903-.57321.5109l.56151.4238c.10919-.1432.22032-.2458.3334-.3077.11308-.0658.24566-.0987.39774-.0987.17547 0 .31.0464.40358.1393.09359.0929.14038.2226.14038.389 0 .1587-.05459.329-.16377.5109-.10529.1781-.27686.3968-.51472.6561-.23786.2554-.59661.6135-1.07623 1.0741v.6502h2.69058l.09943-.7025h-1.73133c.42504-.3754.75258-.6889.98265-.9405.23396-.2555.40164-.4858.50302-.6909.10138-.2052.15208-.418.15208-.6387 0-.209-.0546-.4006-.16378-.5747-.10528-.1781-.26321-.3193-.47377-.4238z"/><path d="m7.37868 16.8498c0-.1742.06239-.3252.18717-.4529.12868-.1277.28271-.1916.46208-.1916s.33145.0639.45623.1916c.12868.1277.19302.2787.19302.4529 0 .178-.06434.3309-.19302.4586-.12478.1277-.27686.1916-.45623.1916s-.3334-.0639-.46208-.1916c-.12478-.1277-.18717-.2806-.18717-.4586z"/><g clip-rule="evenodd" fill-rule="evenodd"><path d="m12.8511 16.7627c-.0312-.0542-.0468-.1374-.0468-.2497v-1.2076c0-.7276-.4523-1.0915-1.3569-1.0915-.1755 0-.3724.0213-.5908.0639-.2145.0387-.4211.0948-.62.1684l.2106.6096c.1481-.0503.3002-.0891.4562-.1161.1599-.031.2924-.0465.3977-.0465.4095 0 .6142.1587.6142.4761v.1103h-.4153c-.4796 0-.852.0929-1.1172.2787-.2651.1819-.39771.4393-.39771.7721 0 .2865.09551.5206.28661.7025.1911.1781.4465.2671.7662.2671.2028 0 .3939-.0348.5732-.1045.1794-.0735.3276-.178.4446-.3135.0702.1238.1676.2187.2924.2845.1248.0619.2808.1025.4679.1219l.1931-.6038c-.0741-.0271-.1268-.0677-.158-.1219zm-1.1815-.0058c-.1053.058-.2105.087-.3158.087-.1326 0-.2359-.0329-.31-.0987-.0702-.0657-.1053-.1586-.1053-.2786 0-.3097.2495-.4645.7487-.4645h.2281v.5051c-.0546.1045-.1365.1877-.2457.2497z"/><path d="m14.4983 16.1298c.0585.4684.308.7025.7487.7025.2651 0 .5303-.0851.7955-.2554l.3684.4993c-.152.1316-.3334.2361-.5439.3135-.2106.0735-.4426.1103-.6961.1103-.347 0-.6414-.0677-.8832-.2032-.2417-.1393-.425-.3309-.5498-.5748-.1209-.2477-.1813-.5341-.1813-.8592 0-.3097.0585-.5883.1755-.8361.1208-.2515.2944-.4489.5205-.5921.2301-.1471.5031-.2207.8189-.2207.2964 0 .5537.0639.7721.1916.2184.1239.386.3058.503.5458.1209.2361.1813.5186.1813.8476 0 .1277-.0058.238-.0175.3309zm.5732-1.3005c-.1677 0-.3022.062-.4036.1858-.1014.12-.1618.3058-.1813.5574h1.1406c-.0078-.4954-.1931-.7432-.5557-.7432z"/><path d="m20 18c0 1.1046-.8954 2-2 2h-16c-1.104569 0-2-.8954-2-2v-16c0-.06904.00349778-.13725.0103258-.20449.1024202-1.00851.9541402-1.79551 1.9896742-1.79551h16c1.1046 0 2 .895431 2 2zm-19-13h18v3.14884h-.9419v-1.54434h-.9592v4.0234h.9592v-1.69528h.9419v4.43388c-.18-.0621-.3848-.0931-.6143-.0931-.546 0-1.008.1819-1.3863.5457l.4738.4877c.2457-.2322.5147-.3483.8072-.3483.1754 0 .3178.0445.427.1335.1091.0852.1637.2032.1637.3542 0 .1703-.0565.3019-.1696.3948-.1092.089-.2574.1335-.4445.1335h-.2574l-.1053.627h.3685c.4563 0 .6844.2013.6844.6038 0 .1858-.0624.3309-.1872.4354s-.2905.1568-.4972.1568c-.3392 0-.62-.1277-.8422-.3832l-.5206.4819c.1716.1935.3782.3425.62.447s.5108.1568.8072.1568c.2484 0 .4726-.0335.6728-.1005v.6005c0 .5523-.4477 1-1 1h-16c-.55228 0-1-.4477-1-1zm18 10.2802v-.03c-.0211.0071-.0426.0139-.0645.0204.0219.0029.0434.0061.0645.0096z"/></g></g></svg>