<svg fill="none" height="20" viewBox="0 0 20 20" width="20" xmlns="http://www.w3.org/2000/svg"><g fill="#000"><path d="m15.9091 1.66663c-2.0047 0-9.00004 5.09088-9.00004 5.09088v6.18159s6.99534 5.0906 9.00004 5.0906c2.3322 0 4.0908-3.5173 4.0908-8.18152s-1.7586-8.18155-4.0908-8.18155zm0 14.54537c-.9267 0-2.2729-2.4789-2.2729-6.36382 0-3.88445 1.3462-6.36355 2.2729-6.36355.9268 0 2.2728 2.47888 2.2728 6.36355-.0002 3.88492-1.346 6.36382-2.2728 6.36382z"/><path d="m15.9091 12.3425c.6025 0 1.0909-1.1166 1.0909-2.49401 0-1.3774-.4884-2.494-1.0909-2.494s-1.0909 1.1166-1.0909 2.494c0 1.37741.4884 2.49401 1.0909 2.49401z"/><path d="m3.33331 17.6667c0 .6998.57289 1.2729 1.27267 1.2729h1.27289c.69977 0 1.27266-.5727 1.27266-1.2729v-1.9092-1.3828l-.24247-.208-.41667-.3184h-1.24997-1.90911z"/><path d="m5.81822 12.9391v-6.18153h-2.72733c-1.70689 0-3.09089 1.38355-3.09089 3.09066 0 1.70707 1.384 3.09087 3.09089 3.09087z"/></g></svg>