<svg fill="none" height="20" viewBox="0 0 20 20" width="20" xmlns="http://www.w3.org/2000/svg"><path clip-rule="evenodd" d="m0 1.66667c0-.920477.746192-1.66667 1.66667-1.66667h16.66663c.9205 0 1.6667.746192 1.6667 1.66667v13.33333c0 .9205-.7462 1.6667-1.6667 1.6667h-8.8351c-.29509 0-.58489.0783-.83979.227l-5.32508 3.1063v-2.5c0-.4602-.37309-.8333-.83333-.8333h-.83333c-.920478 0-1.66667-.7462-1.66667-1.6667zm5 8.33333c.92047 0 1.66667-.74619 1.66667-1.66667 0-.92047-.7462-1.66666-1.66667-1.66666s-1.66667.74619-1.66667 1.66666c0 .92048.7462 1.66667 1.66667 1.66667zm6.6667-1.66667c0 .92048-.7462 1.66667-1.6667 1.66667-.92048 0-1.66667-.74619-1.66667-1.66667 0-.92047.74619-1.66666 1.66667-1.66666.9205 0 1.6667.74619 1.6667 1.66666zm3.3333 1.66667c.9205 0 1.6667-.74619 1.6667-1.66667 0-.92047-.7462-1.66666-1.6667-1.66666s-1.6667.74619-1.6667 1.66666c0 .92048.7462 1.66667 1.6667 1.66667z" fill="#000" fill-rule="evenodd"/></svg>