<svg fill="none" height="22" viewBox="0 0 20 22" width="20" xmlns="http://www.w3.org/2000/svg"><path d="m14.2866 15.3415v2.5466c0 1.2584-1.0201 2.2786-2.2785 2.2786h-7.97497c-1.25841 0-2.27855-1.0202-2.27855-2.2786v-13.67128c0-1.25841 1.02014-2.27856 2.27855-2.27856h7.97497c1.2584 0 2.2785 1.02015 2.2785 2.27856v2.54661" stroke="#000" stroke-width="2.01049"/><g fill="#000"><rect height="3.01573" rx="1.00524" transform="matrix(-1 0 0 1 10.8017 1)" width="6.03146"/><path d="m6.58822 13.1294h1.15384l-.11538-1.2692 1.05288.7356.57693-1.0097-1.15385-.5336 1.15385-.5337-.57693-1.00959-1.05288.73559.11538-1.26924h-1.15384l.11538 1.26924-1.05288-.73559-.57693 1.00959 1.15385.5337-1.15385.5336.57693 1.0097 1.05288-.7356z"/><path d="m11.8553 13.1294h1.1539l-.1154-1.2692 1.0529.7356.5769-1.0097-1.1538-.5336 1.1538-.5337-.5769-1.00959-1.0529.73559.1154-1.26924h-1.1539l.1154 1.26924-1.0529-.73559-.5769 1.00959 1.1538.5337-1.1538.5336.5769 1.0097 1.0529-.7356z"/><path d="m17.2438 13.1294h1.1539l-.1154-1.2692 1.0529.7356.5769-1.0097-1.1538-.5336 1.1538-.5337-.5769-1.00959-1.0529.73559.1154-1.26924h-1.1539l.1154 1.26924-1.0529-.73559-.5769 1.00959 1.1539.5337-1.1539.5336.5769 1.0097 1.0529-.7356z"/></g></svg>