<svg fill="none" height="20" viewBox="0 0 20 20" width="20" xmlns="http://www.w3.org/2000/svg"><path d="m1 .875h6.75c.06904 0 .125.055964.125.125v6.75c0 .06904-.05596.125-.125.125h-6.75c-.069036 0-.125-.05596-.125-.125v-6.75c0-.069036.055964-.125.125-.125zm0 11.25h6.75c.06904 0 .125.056.125.125v6.75c0 .069-.05596.125-.125.125h-6.75c-.069036 0-.125-.056-.125-.125v-6.75c0-.069.055964-.125.125-.125zm11.25 0h6.75c.069 0 .125.056.125.125v6.75c0 .069-.056.125-.125.125h-6.75c-.069 0-.125-.056-.125-.125v-6.75c0-.069.056-.125.125-.125zm0-11.25h6.75c.069 0 .125.055964.125.125v6.75c0 .06904-.056.125-.125.125h-6.75c-.069 0-.125-.05596-.125-.125v-6.75c0-.069036.056-.125.125-.125z" stroke="#000" stroke-width="1.75"/></svg>