<svg fill="none" height="22" viewBox="0 0 20 22" width="20" xmlns="http://www.w3.org/2000/svg"><g fill="#000"><path clip-rule="evenodd" d="m8.61984 9.94771-.00202-.00207 8.71548-4.95215-4.9844 8.76921-.0019-.002c-.4833.7894-1.3536 1.3161-2.34702 1.3161-1.51878 0-2.75-1.2312-2.75-2.75 0-1.0157.55072-1.9029 1.36986-2.37909z" fill-rule="evenodd"/><path d="m9.99998 3.16016c1.75992 0 3.40402.49597 4.80012 1.35576l-1.7134.97354c-.9414-.42568-1.9864-.66264-3.08672-.66264-4.14214 0-7.5 3.35787-7.5 7.49998 0 1.6943.56179 3.2573 1.50926 4.5131h-1.98984c-.75504-1.3323-1.186087-2.8724-1.186087-4.5131 0-5.06259 4.104057-9.16664 9.166667-9.16664z"/><path d="m9.97607 21.4935h.02391.02392z"/><path d="m17.9806 16.8399c.755-1.3323 1.186-2.8724 1.186-4.5131 0-1.76-.496-3.40423-1.3559-4.8004l-.9737 1.71299c.4259.94161.663 1.98681.663 3.08741 0 1.6943-.5618 3.2573-1.5093 4.5131z"/></g></svg>