<svg fill="none" height="20" viewBox="0 0 20 20" width="20" xmlns="http://www.w3.org/2000/svg"><g fill="#000"><path d="m9.99973 6.40625c1.55337 0 2.81247-1.2592 2.81247-2.8125s-1.2591-2.8125-2.81247-2.8125c-1.55334 0-2.8125 1.2592-2.8125 2.8125s1.25916 2.8125 2.8125 2.8125z"/><path d="m17.6663 10.4375-3.4375-2.8125c-.2235-.18226-.5031-.28162-.7916-.28125h-6.87495c-.2884-.00037-.56806.09899-.79156.28125l-3.4375 2.8125c-.23527.1926-.39231.4643-.44172.7642-.04941.3.01219.6076.17328.8655l1.42594 2.7972c.15596.2499.40202.4303.68727.5039.28524.0735.58786.0346.84524-.1086.25738-.1434.44983-.3801.53754-.6614.08771-.2811.06397-.5853-.0663-.8495l-.72656-2.0731 1.48187-1.2113v8.4419c0 .0829.03292.1623.09153.221.05861.0585.13809.0915.22097.0915h6.87495c.083 0 .1624-.033.221-.0915.0586-.0587.0915-.1381.0915-.221v-8.4419l1.482 1.2125-.7266 2.0731c-.1304.2643-.154.5684-.0664.8496.0878.2812.2802.518.5376.6613s.56.1822.8453.1086c.2852-.0736.5312-.254.6872-.5038l1.4259-2.7973c.1615-.2579.2233-.5659.1739-.8661-.0494-.3003-.2067-.5722-.4423-.7648zm-5.4791.3438c0 .0829-.0329.1623-.0915.221-.0586.0585-.138.0915-.221.0915h-1.87496c-.08291 0-.16233-.033-.221-.0915-.05858-.0587-.0915-.1381-.0915-.221v-.93755c0-.08292.03292-.16233.0915-.221.05867-.05858.13809-.0915.221-.0915h1.87496c.083 0 .1624.03292.221.0915.0586.05867.0915.13808.0915.221z"/></g></svg>