<svg fill="none" height="20" viewBox="0 0 20 20" width="20" xmlns="http://www.w3.org/2000/svg"><path d="m16.9528 13.9226c-.1657.1383-.4133.1295-.568-.0202l-1.9921-1.932c-.1153-.112-.1523-.279-.0947-.4271.6276-1.62832.2169-3.46199-1.0507-4.6914-1.2677-1.2294-3.159-1.62821-4.83882-1.02035-.15268.05581-.32493.01989-.44044-.09185l-1.33098-1.29092c-.06402-.06185-.09039-.15148-.06965-.23677.02074-.0853.08561-.15407.1714-.18169 1.05292-.3328 2.1538-.50088 3.26129-.49793 6.1122 0 9.1478 4.71332 9.9037 6.08841.1283.2327.1283.5121 0 .7448-.7566 1.3471-1.756 2.5518-2.951 3.557zm-14.69037-12.57506 16.66277 16.16206c.3255.3154.3256.8269.0003 1.1425s-.853.3157-1.1785.0003l-16.66272-16.16202c-.325527-.31541-.325676-.82693-.00034-1.14251.32534-.31559.85297-.31573 1.17849-.00033zm1.35165 4.73732 2.00153 1.94128c.11493.11176.15205.27825.095.42606-.62226 1.6264-.21032 3.4552 1.05463 4.6821 1.26496 1.2268 3.15116 1.627 4.82906 1.0244.1525-.0553.3242-.0192.4394.0923l1.3272 1.2872c.064.0619.0904.1515.0696.2368-.0207.0853-.0856.1541-.1714.1817-1.0523.3324-2.1524.5002-3.25911.4973-6.11222 0-9.14787-4.7133-9.9037104-6.0884-.1283728-.2327-.1283728-.51212 0-.7448.7561234-1.34661 1.7550604-2.55095 2.9494504-3.5559.16566-.13852.41346-.12982.56835.01996z" fill="#000"/></svg>