<svg fill="none" height="20" viewBox="0 0 20 20" width="20" xmlns="http://www.w3.org/2000/svg"><g fill="#000"><path clip-rule="evenodd" d="m11.0887 4h-7.83996c-.57438 0-1.04.46562-1.04 1.04v9.92c0 .5744.46562 1.04 1.04 1.04h9.91996c.5744 0 1.04-.4656 1.04-1.04v-1.7831l2-1.6638v3.4469c0 1.6789-1.361 3.04-3.04 3.04h-9.91996c-1.67895 0-3.04-1.3611-3.04-3.04v-9.92c0-1.67895 1.36105-3.04 3.04-3.04h7.83996zm5.12 5.82207-2 1.66383v-6.4459c0-.57438-.4656-1.04-1.04-1.04h-.78v-2l3.82 3.17789z" fill-rule="evenodd"/><path d="m12.3886 13v-3.33483c-2.89408 0-4.92917 1.18773-5.92919 2.08513-.17463.1567-.47567.0278-.45872-.2109.35104-4.94694 4.34541-6.27239 6.38791-6.3041v-3.2353l6.6114 5.5z"/></g></svg>