<svg width="20" height="20" viewBox="0 0 20 20" fill="none" xmlns="http://www.w3.org/2000/svg">
<rect x="1.01752" y="14" width="5" height="5" stroke="black" stroke-width="2"/>
<rect x="1.01752" y="1" width="5" height="5" stroke="black" stroke-width="2"/>
<rect x="14" y="1" width="5" height="5" stroke="black" stroke-width="2"/>
<path d="M0.442627 12V8.5H8.49998V5H9.99998" stroke="black"/>
<path d="M2.5 10V11.5H6.5V10" stroke="black"/>
<path d="M7.99481 0.5H11.5V3H8.00002M11.5 7V4.5" stroke="black"/>
<path d="M10.5024 20.0202L10.5 14.5H8.49036L8.49272 11.5027H10.5024V8.49634H13.5V11" stroke="black"/>
<path d="M8.49777 20L8.5 16" stroke="black"/>
<path d="M12.5 14.05V19.5H19.5V14.05" stroke="black"/>
<path d="M12 12.5H14.5V14.5H17.5V12.5H19.5001V8" stroke="black"/>
<path d="M15.5 8L15.5 10.5L18 10.5" stroke="black"/>
<path d="M17.5 18L17.5 16.5L14.5 16.5L14.5 18" stroke="black"/>
</svg>
