<svg fill="none" height="20" viewBox="0 0 20 20" width="20" xmlns="http://www.w3.org/2000/svg" xmlns:xlink="http://www.w3.org/1999/xlink"><clipPath id="a"><path d="m0 0h20v20h-20z"/></clipPath><g clip-path="url(#a)" opacity=".91" stroke="#000"><g stroke-width="2"><path d="m1.01752 14h5v5h-5z"/><path d="m1.01752 1h5v5h-5z"/><path d="m14 1h5v5h-5z"/></g><path d="m.442627 12v-3.5h8.057353v-3.5h1.5"/><path d="m2.5 10v1.5h4v-1.5"/><path d="m7.99481.5h3.50519v2.5h-3.49998m3.49998 4v-2.5"/><path d="m10.5024 20.0202-.0024-5.5202h-2.00964l.00236-2.9973h2.00968v-3.00636h2.9976v2.50366"/><path d="m8.49777 20 .00223-4"/><path d="m12.5 14.05v5.45h7v-5.45"/><path d="m12 12.5h2.5v2h3v-2h2.0001v-4.5"/><path d="m15.5 8v2.5h2.5"/><path d="m17.5 18v-1.5h-3v1.5"/></g></svg>