<svg fill="none" height="20" viewBox="0 0 20 20" width="20" xmlns="http://www.w3.org/2000/svg"><path clip-rule="evenodd" d="m1 10.0001c0-4.97057 4.02953-9.0001 9.0001-9.0001 4.9706 0 9.0001 4.02953 9.0001 9.0001 0 4.9704-4.0295 8.9999-9.0001 8.9999-4.97057 0-9.0001-4.0295-9.0001-8.9999zm8.10645 3.6063c-.20964.2142-.31446.4785-.31446.793 0 .3099.10482.5742.31446.793.20963.2142.51725.3213.92285.3213.3965 0 .695-.1094.8955-.3282.2005-.2187.3008-.4808.3008-.7861 0-.3099-.1003-.5719-.3008-.7861-.2005-.2188-.499-.3282-.8955-.3282-.4056 0-.71322.1071-.92285.3213zm.51953-7.41696c.2233-.05013.46712-.0752.73142-.0752.4466 0 .7884.09343 1.0254.28028.2415.18685.3623.42382.3623.71093 0 .22331-.0364.43295-.1094.62891-.0729.19141-.1822.37142-.3281.54004-.1458.16406-.278.30078-.3965.41016-.1185.10937-.2757.23925-.4716.38964-.1915.14584-.3236.24838-.3965.30762-.05472.04557-.14359.12077-.26663.22559-.11849.10026-.19597.16634-.23242.19824-.03191.0319-.08887.08659-.1709.16406-.07748.07289-.12761.12759-.15039.16409-.01823.0364-.05013.0911-.09571.164-.04557.0684-.07291.1345-.08203.1983-.00911.0592-.02051.1321-.03418.2187-.00911.0821-.01367.1732-.01367.2735 0 .319.04785.5924.14355.8203.09571.2233.2142.3349.35547.3349.00456 0 .07748.0023.21875.0069.14584.0045.26433.0068.35546.0068.2643 0 .3965-.139.3965-.417 0-.0547-.0023-.1481-.0068-.2803-.0046-.1367-.0069-.2506-.0069-.3418 0-.1731.0502-.3349.1504-.4853.1048-.155.2393-.2939.4033-.417.1641-.1276.3441-.2552.5401-.38281.2005-.13216.3987-.27799.5947-.4375.2005-.1595.3828-.33496.5469-.52636.164-.19141.2962-.42839.3965-.71094.1048-.28711.1572-.60156.1572-.94336 0-.69727-.2621-1.23959-.7861-1.62695-.5196-.39193-1.2077-.5879-2.0645-.5879-.99349 0-1.72493.1709-2.19433.5127-.46485.3418-.69727.77702-.69727 1.30566 0 .278.08887.53093.2666.75879.18229.22787.45801.3418.82715.3418.18685 0 .30306-.02506.34863-.0752.04558-.05468.06836-.18912.06836-.40332v-1.04589l.14356-.06836c.09114-.04558.24837-.09115.47168-.13672z" fill="#000" fill-rule="evenodd"/></svg>