<svg fill="none" height="20" viewBox="0 0 20 20" width="20" xmlns="http://www.w3.org/2000/svg" xmlns:xlink="http://www.w3.org/1999/xlink"><clipPath id="a"><path d="m0 0h20v20h-20z"/></clipPath><g clip-path="url(#a)"><path d="m7.88843 14.0515h3.17447v-.2479c.019-2.021.6768-2.9456 2.2307-3.89893 1.754-1.04862 2.8503-2.47855 2.8503-4.66158 0-3.22212-2.5071-5.24309-6.1487-5.24309-3.33651 0-6.04385 1.84938-6.13918 5.47188h3.39371c.08579-1.79219 1.38227-2.65015 2.7264-2.65015 1.45857 0 2.63107.97236 2.63107 2.46902 0 1.33461-.8865 2.24976-2.04 2.97426-1.68735 1.04862-2.6597 2.10679-2.67877 5.53859zm1.66826 5.9485c1.12491 0 2.08771-.9342 2.09721-2.0972-.0095-1.144-.9723-2.0782-2.09721-2.0782-1.16302 0-2.10677.9342-2.09724 2.0782-.00953 1.163.93422 2.0972 2.09724 2.0972z" fill="#000"/></g></svg>