<svg fill="none" height="20" viewBox="0 0 20 20" width="20" xmlns="http://www.w3.org/2000/svg"><path clip-rule="evenodd" d="m14.4658 2.63416c-.014.08978-.0214.1819-.0214.27577 0 .94784.7462 1.71622 1.6667 1.71622s1.6667-.76838 1.6667-1.71622c0-.94783-.7462-1.71621-1.6667-1.71621-.4101 0-.7857.15256-1.076.40559l-4.3282-1.09931-1.56434 6.44333c-2.08101.14101-3.95258.78997-5.36445 1.76971-.40086-.40483-.95006-.65446-1.55589-.65446-1.227297 0-2.22222 1.0245-2.22222 2.28832 0 .8795.481842 1.6431 1.18853 2.0261-.05107.273-.07742.5514-.07742.8342 0 3.4754 3.97969 6.2928 8.88889 6.2928s8.8889-2.8174 8.8889-6.2928c0-.2828-.0264-.5612-.0774-.8342.7067-.383 1.1885-1.1466 1.1885-2.0261 0-1.26382-.9949-2.28832-2.2222-2.28832-.6058 0-1.155.24963-1.5559.65446-1.5382-1.06739-3.622-1.74217-5.9278-1.79523l1.2212-5.03033zm-8.35469 11.14514c.92048 0 1.66667-.7684 1.66667-1.7162 0-.9479-.74619-1.7162-1.66667-1.7162-.92047 0-1.66667.7683-1.66667 1.7162 0 .9478.7462 1.7162 1.66667 1.7162zm7.77779 0c.9205 0 1.6667-.7684 1.6667-1.7162 0-.9479-.7462-1.7162-1.6667-1.7162s-1.6667.7683-1.6667 1.7162c0 .9478.7462 1.7162 1.6667 1.7162zm-7.46962 1.8123c-.2553-.1753-.60022-.1042-.77042.1586-.17019.2629-.10121.6181.15408.7934 1.20899.8299 2.70302 1.2449 4.19706 1.2449 1.494 0 2.9881-.415 4.1971-1.2449.2553-.1753.3242-.5305.154-.7934-.1702-.2628-.5151-.3339-.7704-.1586-1.0223.7018-2.3015 1.0527-3.5807 1.0527-.75859 0-1.51719-.1234-2.22222-.3702-.48383-.1694-.94243-.3969-1.3585-.6825z" fill="#000" fill-rule="evenodd"/></svg>