<svg fill="none" height="22" viewBox="0 0 20 22" width="20" xmlns="http://www.w3.org/2000/svg"><g fill="#000"><path d="m15.7508 2.95888c0 1.12788-.9292 2.0422-2.0755 2.0422-1.1462 0-2.0755-.91432-2.0755-2.0422 0-1.12787.9293-2.042193 2.0755-2.042193 1.1463 0 2.0755.914323 2.0755 2.042193z"/><g clip-rule="evenodd" fill-rule="evenodd"><path d="m11.4442 5.83169h2.4722l4.0645 3.91422h1.1858v1.99769h-2.014l-2.7851-2.68218-.2512 3.68288 1.7848 1.7562v6.5829h-2.0302v-5.7554l-1.9708-1.9392-.8245 4.3737-6.17182-1.0121.33377-1.9705 4.20547.6897.80358-4.2629.2447-2.83593-1.33558.5354v2.51933h-2.03025v-3.86257z"/><path d="m2.90891 2.42803h5.49125v1.99769h-5.49125zm-1.38368 3.82913h3.67533v1.99769h-3.67533zm-.691886 3.78654h4.323946v1.9977h-4.323946z"/></g></g></svg>