<svg fill="none" height="20" viewBox="0 0 21 20" width="21" xmlns="http://www.w3.org/2000/svg"><path clip-rule="evenodd" d="m11.2319.284429c-.304-.175997-.6788-.176295-.9831-.000781l-7.68486 4.432792c-.30416.17544-.49155.49988-.49155.851v8.86506c0 .3511.18739.6756.49155.851l7.68486 4.4328c.3043.1755.6791.1752.9831-.0008l7.6549-4.4317c.3034-.1757.4902-.4997.4902-.8502v-8.8672c0-.35057-.1868-.67457-.4902-.85022zm6.9027 12.807371-.0061.7516-3.2326 1.9809.0061-.7516 1.2722-.7796.0302-3.6727-.0537.0329-1.2326 1.6947.0072-.87 1.2898-1.77767.745-.45654-.0377 4.59081zm-4.0849.5914c-.0147 1.7882-.6132 3.1496-1.6644 3.7938-1.0544.6461-1.6366.0083-1.6219-1.7799.0146-1.7846.6132-3.1459 1.6676-3.7921 1.0512-.6442 1.6333-.0063 1.6187 1.7782zm-1.6249-1.0303c-.584.3579-.9023 1.2603-.9132 2.5857-.0009.111.0013.2165.0037.3145l1.6913-2.4731c-.1309-.5165-.3966-.6631-.7818-.4271zm-.8152 3.6528c.1309.5129.3935.6614.7818.4234.5808-.3559.8992-1.2583.9101-2.5874.0009-.1074-.0014-.2128-.0037-.3108z" fill="#000" fill-rule="evenodd"/></svg>