<svg fill="none" height="20" viewBox="0 0 20 20" width="20" xmlns="http://www.w3.org/2000/svg"><g fill="#000"><path clip-rule="evenodd" d="m1.87499 1.25c-.34518 0-.625.27982-.625.625v3.75c0 .34518-.279827.625-.625005.625s-.62500026-.27982-.62500026-.625v-3.75c0-1.035533.83946726-1.875 1.87500526-1.875h3.75c.34518 0 .625.279822.625.625 0 .345179-.27982.625-.625.625zm11.87501-.625c0-.345178.2798-.625.625-.625h3.75c1.0355 0 1.875.839467 1.875 1.875v3.75c0 .34518-.2798.625-.625.625s-.625-.27982-.625-.625v-3.75c0-.34518-.2798-.625-.625-.625h-3.75c-.3452 0-.625-.279821-.625-.625zm-13.125015 13.125c.345178 0 .625005.2798.625005.625v3.75c0 .3452.27982.625.625.625h3.75c.34518 0 .625.2798.625.625s-.27982.625-.625.625h-3.75c-1.035538 0-1.87500526-.8395-1.87500526-1.875v-3.75c0-.3452.27982226-.625.62500026-.625zm18.750015 0c.3452 0 .625.2798.625.625v3.75c0 1.0355-.8395 1.875-1.875 1.875h-3.75c-.3452 0-.625-.2798-.625-.625s.2798-.625.625-.625h3.75c.3452 0 .625-.2798.625-.625v-3.75c0-.3452.2798-.625.625-.625z" fill-rule="evenodd"/><path d="m3.75 5.625c0-.34518.27982-.625.625-.625s.625.27982.625.625v8.75c0 .3452-.27982.625-.625.625s-.625-.2798-.625-.625z"/><path d="m6.25 5.625c0-.34518.27982-.625.625-.625s.625.27982.625.625v8.75c0 .3452-.27982.625-.625.625s-.625-.2798-.625-.625z"/><path d="m8.75 5.625c0-.34518.27983-.625.625-.625.34518 0 .625.27982.625.625v8.75c0 .3452-.27982.625-.625.625-.34517 0-.625-.2798-.625-.625z"/><path d="m11.25 5.625c0-.34518.2798-.625.625-.625h1.25c.3452 0 .625.27982.625.625v8.75c0 .3452-.2798.625-.625.625h-1.25c-.3452 0-.625-.2798-.625-.625z"/><path d="m15 5.625c0-.34518.2798-.625.625-.625s.625.27982.625.625v8.75c0 .3452-.2798.625-.625.625s-.625-.2798-.625-.625z"/></g></svg>