<svg fill="none" height="21" viewBox="0 0 20 21" width="20" xmlns="http://www.w3.org/2000/svg"><path d="m17.8388 2.18335-1.7486 1.74856m0 0 2.6229 2.62284-3.06 3.05998-2.6229-2.62284m3.06-3.05998-3.06 3.05998m-3.59325 3.59331c.45143.4454.81025.9757 1.05595 1.5604.2456.5847.3731 1.2122.3753 1.8463.0021.6342-.1212 1.2625-.363 1.8488-.2417.5863-.59696 1.1191-1.04539 1.5675s-.98114.8037-1.56745 1.0454-1.21464.3651-1.84881.3629c-.63418-.0021-1.26167-.1296-1.84634-.3753-.58468-.2456-1.11499-.6044-1.56041-1.0559-.87591-.9069-1.36059-2.1215-1.34963-3.3823.01095-1.2608.51666-2.4668 1.40821-3.3584.89154-.89151 2.09758-1.39722 3.35836-1.40818 1.26079-.01095 2.47543.47372 3.38234 1.34968zm0 0 3.59325-3.59331" stroke="#000" stroke-linecap="round" stroke-linejoin="round" stroke-width="1.75"/></svg>