<svg fill="none" height="20" viewBox="0 0 20 20" width="20" xmlns="http://www.w3.org/2000/svg"><path clip-rule="evenodd" d="m7.92717.400544c.04218-.231947.24419-.400544.47994-.400544h3.18579c.2357 0 .4378.168598.4799.400544l.4555 2.504986c.0642.35301.4747.51826.7655.30819l2.0361-1.47049c.1941-.14018.4612-.11877.6305.05052l2.2458 2.24583c.1693.1693.1907.43644.0506.63053l-1.4705 2.03607c-.2101.29087-.0448.70136.3082.76554l2.505.45545c.2319.04218.4005.24419.4005.47994v3.18579c0 .2357-.1686.4378-.4005.4799l-2.505.4555c-.353.0642-.5183.4747-.3082.7655l1.4705 2.0361c.1401.1941.1187.4612-.0506.6305l-2.2458 2.2458c-.1693.1693-.4364.1907-.6305.0506l-2.0361-1.4705c-.2908-.2101-.7013-.0448-.7655.3082l-.4555 2.505c-.0421.2319-.2442.4005-.4799.4005h-3.18579c-.23575 0-.43776-.1686-.47994-.4005l-.45545-2.505c-.06418-.353-.47467-.5183-.76554-.3082l-2.03607 1.4705c-.19409.1401-.46123.1187-.63053-.0506l-2.24583-2.2458c-.16929-.1693-.1907-.4364-.05052-.6305l1.47049-2.0361c.21007-.2908.04482-.7013-.30819-.7655l-2.504986-.4555c-.231947-.0421-.400544-.2442-.400544-.4799v-3.18579c0-.23575.168598-.43776.400544-.47994l2.504986-.45545c.35301-.06418.51826-.47467.30819-.76554l-1.47049-2.03607c-.14018-.19409-.11877-.46123.05052-.63053l2.24583-2.24583c.1693-.16929.43644-.1907.63053-.05052l2.03607 1.47049c.29087.21007.70136.04482.76554-.30819zm2.07283 12.770156c1.7511 0 3.1707-1.4196 3.1707-3.1707 0-1.75115-1.4196-3.17073-3.1707-3.17073-1.75115 0-3.17073 1.41958-3.17073 3.17073 0 1.7511 1.41958 3.1707 3.17073 3.1707z" fill="#000" fill-rule="evenodd"/></svg>