<svg fill="none" height="22" viewBox="0 0 22 22" width="22" xmlns="http://www.w3.org/2000/svg"><path clip-rule="evenodd" d="m9.0999 2.20051c.03866-.21262.22384-.36717.43995-.36717h2.92025c.2161 0 .4013.15455.44.36717l.4175 2.29624c.0588.32359.4351.47507.7017.28251l1.8664-1.34795c.1779-.1285.4228-.10888.578.04631l2.0587 2.05867c.1552.15519.1748.40007.0463.57799l-1.3479 1.8664c-.1926.26662-.0411.64291.2825.70174l2.2962.4175c.2126.03866.3672.22384.3672.43994v2.92034c0 .2161-.1546.4012-.3672.4399l-2.2962.4175c-.3236.0588-.4751.4351-.2825.7017l1.3479 1.8664c.1285.178.1089.4228-.0463.578l-2.0587 2.0587c-.1552.1552-.4001.1748-.578.0463l-1.8664-1.3479c-.2666-.1926-.6429-.0411-.7017.2825l-.4175 2.2962c-.0387.2126-.2239.3672-.44.3672h-2.92025c-.21611 0-.40129-.1546-.43995-.3672l-.41749-2.2962c-.05884-.3236-.43512-.4751-.70175-.2825l-1.86639 1.3479c-.17793.1285-.4228.1089-.57799-.0463l-2.05868-2.0587c-.15519-.1552-.17481-.4-.04631-.578l1.34795-1.8664c.19257-.2666.04108-.6429-.28251-.7017l-2.29624-.4175c-.21261-.0387-.36716-.2238-.36716-.4399v-2.92034c0-.2161.15455-.40128.36716-.43994l2.29624-.4175c.32359-.05883.47508-.43512.28251-.70174l-1.34795-1.8664c-.1285-.17792-.10888-.4228.04631-.57799l2.05868-2.05867c.15519-.15519.40007-.17481.57799-.04631l1.86639 1.34795c.26663.19256.64291.04108.70175-.28251zm1.9001 11.70599c1.6052 0 2.9065-1.3013 2.9065-2.9065 0-1.60521-1.3013-2.90649-2.9065-2.90649-1.60522 0-2.90651 1.30128-2.90651 2.90649 0 1.6052 1.30129 2.9065 2.90651 2.9065z" fill-rule="evenodd" stroke="#000" stroke-width="1.71875"/></svg>