<svg fill="none" height="20" viewBox="0 0 20 20" width="20" xmlns="http://www.w3.org/2000/svg"><g fill="#000"><path d="m15.148 12.8762-1.5527 3.9133c-.2449.6171-1.1375.6406-1.4167.0375l-1.8466-3.989c-.0816-.1763-.2309-.3148-.41627-.3863l-3.66947-1.4155c-.60048-.2317-.6543-1.0343-.0898-1.33914l3.82595-2.06621c.14439-.07796.25889-.19897.32649-.345l1.8697-4.0389c.2792-.60317 1.1718-.57958 1.4167.03743l1.5727 3.96374c.0672.16924.1959.30886.362.39259l4.0569 2.04487c.59.29736.5365 1.13102-.0869 1.35542l-3.9031 1.4053c-.2064.0743-.3699.2309-.4489.4299z"/><path d="m5.50788 5.53369-1.05321 2.4982c-.08397.19918-.37227.20713-.46781.01289l-1.24148-2.5241c-.02849-.05793-.07909-.10289-.14114-.12542l-2.438235-.88522c-.2068918-.07512-.2247262-.35174-.029088-.45118l2.488623-1.26493c.04896-.02489.08828-.06447.11205-.1128l1.24927-2.539941c.09554-.1942332.38384-.1862911.46781.012888l1.05995 2.514203c.02371.05624.06794.10208.12428.12881l2.65231 1.25825c.20389.09672.18625.38354-.02806.45616l-2.60294.88202c-.06917.02344-.12464.07448-.15233.14017z"/><path d="m6.24352 17.7702-.7619 2.0654c-.07864.2132-.38711.2209-.47704.012l-.89935-2.0897c-.02561-.0595-.07417-.107-.13537-.1324l-1.83228-.7603c-.19181-.0796-.20979-.3361-.03085-.44l1.88641-1.0958c.04687-.0272.08349-.0683.10452-.1171l.90692-2.1073c.08993-.209.3984-.2013.47704.0119l.76845 2.0831c.02079.0564.06197.1036.11592.1328l2.00702 1.0882c.18768.1017.16974.3687-.02998.446l-1.95361.7566c-.0681.0264-.12123.0798-.1459.1466z"/></g></svg>