<svg fill="none" height="20" viewBox="0 0 20 20" width="20" xmlns="http://www.w3.org/2000/svg"><path clip-rule="evenodd" d="m10 0c-5.5 0-10 4.5-10 10s4.5 10 10 10 10-4.5 10-10-4.5-10-10-10zm-3.53554 13.5355c-.39052-.3905-.39052-1.0237 0-1.4142l2.12133-2.12136-2.12132-2.12132c-.39053-.39052-.39052-1.02369 0-1.41421.39052-.39053 1.02369-.39053 1.41421 0l2.12132 2.12132 2.1213-2.12132c.3905-.39053 1.0237-.39053 1.4142 0 .3906.39052.3906 1.02369 0 1.41421l-2.1213 2.12132 2.1213 2.12136c.3906.3905.3906 1.0237 0 1.4142-.3905.3905-1.0237.3905-1.4142 0l-2.1213-2.1213-2.12132 2.1213c-.39053.3905-1.02369.3905-1.41422 0z" fill="#000" fill-rule="evenodd"/></svg>