<svg fill="none" height="20" viewBox="0 0 20 20" width="20" xmlns="http://www.w3.org/2000/svg"><g stroke="#000"><path d="m2.97302 9.88922v8.43038h14.05578v-8.43038" stroke-width="1.66667"/><path d="m.97876 9.03682 2.25541-7.2173h4.87988l-.82015 7.2173s-.90216 1.35328-3.15757 1.35328-3.15757-1.35328-3.15757-1.35328z" stroke-width="1.6403"/><path d="m19.0225 9.03652-2.2554-7.21731h-4.8799l.8202 7.21731s.9021 1.35328 3.1576 1.35328c2.2554 0 3.1575-1.35328 3.1575-1.35328z" stroke-width="1.6403"/><path d="m12.7068 9.03652-.8201-7.21731h-1.8863-1.88638l-.82015 7.21731s.45108 1.35328 2.70653 1.35328c2.2554 0 2.7064-1.35328 2.7064-1.35328z" stroke-width="1.6403"/></g><path d="m7.25104 13.5838h5.5v4.73575h-5.5z" fill="#000"/></svg>