<svg width="20" height="20" viewBox="0 0 20 20" fill="none" xmlns="http://www.w3.org/2000/svg">
<path d="M2.97302 9.88922V18.3196H17.0288V9.88922" stroke="black" stroke-width="1.66667"/>
<path d="M0.97876 9.03682L3.23417 1.81952H8.11405L7.2939 9.03682C7.2939 9.03682 6.39174 10.3901 4.13633 10.3901C1.88092 10.3901 0.97876 9.03682 0.97876 9.03682Z" stroke="black" stroke-width="1.6403"/>
<path d="M19.0225 9.03652L16.7671 1.81921H11.8872L12.7074 9.03652C12.7074 9.03652 13.6095 10.3898 15.865 10.3898C18.1204 10.3898 19.0225 9.03652 19.0225 9.03652Z" stroke="black" stroke-width="1.6403"/>
<path d="M12.7068 9.03652L11.8867 1.81921H10.0004H8.11402L7.29387 9.03652C7.29387 9.03652 7.74495 10.3898 10.0004 10.3898C12.2558 10.3898 12.7068 9.03652 12.7068 9.03652Z" stroke="black" stroke-width="1.6403"/>
<rect x="7.25104" y="13.5838" width="5.5" height="4.73575" fill="black"/>
</svg>
