<svg height="20" viewBox="0 0 20 20" width="20" xmlns="http://www.w3.org/2000/svg"><path clip-rule="evenodd" d="m5.19022 14.1669-2.58269 2.5827.64283.6428 2.58267-2.5827c-.22921-.1987-.44406-.4136-.64281-.6428zm1.29024-1.2903c.19234.2351.40776.4505.6428.6429l2.42223-2.4222v3.4258c.14952.0148.30116.0224.45461.0224.1534 0 .305-.0076.4545-.0224v-3.4258l2.4222 2.4222c.2351-.1923.4505-.4077.6428-.6428l-2.4222-2.4222h3.4257c.0148-.1495.0224-.3011.0224-.4544 0-.1535-.0076-.30518-.0224-.45473h-3.4257l2.4221-2.42212c-.1924-.23504-.4078-.45046-.6429-.6428l-2.422 2.42207v-3.42546c-.1495-.01484-.3011-.02244-.4545-.02244-.15345 0-.30509.0076-.45461.02244v3.42551l-2.42206-2.42206c-.23505.19234-.45048.40777-.64283.64281l2.42204 2.42205h-3.42555c-.01486.14955-.02246.30123-.02246.45473 0 .1533.00759.3049.02243.4544h3.42558zm-2.82802-3.33123h-3.65242474v.90913h3.65240474c-.01059-.1501-.01597-.3017-.01597-.4544 0-.15292.00539-.30455.01599-.45473zm1.53793-3.71228-2.58282-2.58282.64282-.64282 2.58282 2.58282c-.22921.19875-.44407.41361-.64282.64282zm4.35512-2.18066c.15015-.0106.30174-.01599.45461-.01599.1528 0 .3044.00539.4545.01598v-3.65240474h-.90911zm4.62141 1.53778c.2292.19875.4441.41361.6428.64281l2.5828-2.58276-.6428-.64282zm2.1808 4.35516c.0106.15018.016.30181.016.45473 0 .1527-.0054.3043-.016.4544h3.6523v-.90913zm-1.5378 4.62153c-.1988.2293-.4136.4441-.6429.6429l2.5827 2.5826.6428-.6428zm-4.3553 2.1808c-.1501.0106-.3017.016-.4545.016-.15287 0-.30446-.0054-.45461-.016v3.6523h.90911z" fill-rule="evenodd"/><path d="m15.4545 9.99996c0 3.01244-2.4421 5.45454-5.45454 5.45454-3.01246 0-5.45453-2.4421-5.45453-5.45454 0-3.01246 2.44207-5.45453 5.45453-5.45453 3.01244 0 5.45454 2.44207 5.45454 5.45453z"/></svg>