<svg fill="none" height="20" viewBox="0 0 20 20" width="20" xmlns="http://www.w3.org/2000/svg" xmlns:xlink="http://www.w3.org/1999/xlink"><clipPath id="a"><path d="m0 0h20v20h-20z"/></clipPath><g clip-path="url(#a)" fill="#000"><path d="m11.0005 3.66 2.92 6.46c.0539.1201.0811.2495.08.38v7.6c0 .5039-.2107.9872-.5858 1.3435-.375.3563-.8837.5565-1.4142.5565h-5.99999c-.78176-.0296-1.54001-.2623-2.19234-.6726-.65232-.4104-1.17378-.9827-1.50768-1.6549l-2.2300026-4.8925c-.0504448-.1208-.07426929-.2501-.07000021-.38v-1.9c0-.75587.31607181-1.48078.87868281-2.01525.56261-.53448 1.32567-.83475 2.12133-.83475h4.00001v-3.8c0-.75587.31607-1.48078.87868-2.01525.56261-.53448 1.32568-.83475 2.12131-.83475.2652 0 .5196.10009.7071.27825.1876.17816.2929.41979.2929.67175z"/><path d="m19 9.5h-2c-.5523 0-1 .42533-1 .95v8.55c0 .5247.4477.95 1 .95h2c.5523 0 1-.4253 1-.95v-8.55c0-.52467-.4477-.95-1-.95z"/></g></svg>