<svg fill="none" height="20" viewBox="0 0 20 20" width="20" xmlns="http://www.w3.org/2000/svg" xmlns:xlink="http://www.w3.org/1999/xlink"><clipPath id="a"><path d="m0 0h20v20h-20z"/></clipPath><g clip-path="url(#a)" fill="#000"><path d="m8.9995 17.34-2.92001-6.46c-.05387-.1201-.0811-.2495-.08-.38v-7.6c0-.50391.21072-.98718.58579-1.3435s.88378-.5565 1.41422-.5565h6c.7818.02963 1.54.26227 2.1923.67262.6524.41035 1.1738.98271 1.5077 1.65488l2.23 4.8925c.0505.12079.0743.25012.07.38v1.9c0 .7559-.316 1.4808-.8786 2.0153-.5627.5344-1.3257.8347-2.1214.8347h-4v3.8c0 .7559-.3161 1.4808-.8787 2.0153-.5626.5344-1.3256.8347-2.1213.8347-.26521 0-.51957-.1001-.70711-.2782-.18753-.1782-.29289-.4198-.29289-.6718z"/><path d="m1.00003 11.5h2.00001c.55229 0 1-.4253 1-.95v-8.55c0-.52467-.44771-.95-1-.95h-2.00001c-.552282 0-.99999948.42533-.99999948.95v8.55c0 .5247.44771748.95.99999948.95z"/></g></svg>