<svg fill="none" height="20" viewBox="0 0 20 20" width="20" xmlns="http://www.w3.org/2000/svg"><circle cx="13.5" cy="10" r="5.625" stroke="#000" stroke-width="1.75"/><path d="m16.1315 10.0001c0-1.45339-1.1781-2.63157-2.6315-2.63157" stroke="#000" stroke-width="1.5"/><path clip-rule="evenodd" d="m8.59438 14.2645c-.63178.3109-1.34269.4855-2.09438.4855-2.62335 0-4.75-2.1266-4.75-4.75 0-2.62335 2.12665-4.75 4.75-4.75.75169 0 1.4626.17461 2.09438.48548.40742-.46827.88078-.87764 1.40562-1.21366-1.0103-.64682-2.21136-1.02182-3.5-1.02182-3.58985 0-6.5 2.91015-6.5 6.5 0 3.5899 2.91015 6.5 6.5 6.5 1.28864 0 2.4897-.375 3.5-1.0218-.52484-.336-.9982-.7454-1.40562-1.2137z" fill="#000" fill-rule="evenodd"/></svg>