<svg fill="none" height="20" viewBox="0 0 20 20" width="20" xmlns="http://www.w3.org/2000/svg"><path d="m18.9266 2.34463h-4.8023v-1.04519c0-.734468-.678-1.29944-1.5254-1.29944h-5.42376c-.84746 0-1.52542.564972-1.52542 1.29944v1.04519h-4.802262c-.480226 0-.847458.36723-.847458.84746s.367232.84746.847458.84746h1.045202l1.04519 13.16385c.02825 1.5537 1.27119 2.7966 2.82486 2.7966h8.22039c1.5536 0 2.7966-1.2429 2.8248-2.7966l1.0735-13.1356h1.0452c.4802 0 .8474-.36724.8474-.84746 0-.48023-.3672-.87571-.8474-.87571zm-11.58197-.64971h5.08477v.64971h-5.08477zm.33899 13.75708h-.02825c-.45198 0-.81921-.3673-.84746-.8192l-.31073-6.89269c-.02825-.48022.33898-.8757.8192-.8757h.02825c.45198 0 .81921.36723.84746.81921l.31073 6.89268c0 .4519-.33898.8474-.8192.8757zm5.28248-.8192c-.0282.4519-.3955.8192-.8475.8192h-.0282c-.4802-.0283-.8192-.4238-.8192-.8757l.3107-6.89268c.0283-.45198.3955-.81921.8475-.81921h.0282c.4803.02825.8192.42373.8192.8757z" fill="#000"/></svg>