<svg fill="none" height="20" viewBox="0 0 20 20" width="20" xmlns="http://www.w3.org/2000/svg"><path d="m6.28251 18.75c7.54699 0 11.67669-6.2537 11.67669-11.66769 0-.17594 0-.35187-.008-.52781.8003-.57578 1.4966-1.30352 2.0488-2.12721-.7363.32788-1.5286.5438-2.3609.64776.8483-.50381 1.4966-1.31152 1.8087-2.27116-.7923.47182-1.6727.8077-2.6091.99163-.7523-.7997-1.8167-1.29552-2.9932-1.29552-2.2649 0-4.1056 1.83932-4.1056 4.10248 0 .31989.04001.63177.10404.93566-3.40937-.16794-6.43458-1.80733-8.45939-4.28642-.35214.60778-.552217 1.31152-.552217 2.06324 0 1.42347.728287 2.67901 1.824727 3.41474-.67227-.02399-1.30452-.20792-1.85674-.51181v.05598c0 1.98323 1.41657 3.64663 3.28932 4.02253-.34414.0959-.70429.1439-1.08044.1439-.2641 0-.5202-.024-.7683-.0719.5202 1.6314 2.04081 2.8149 3.83353 2.8469-1.40856 1.1036-3.17727 1.7594-5.098039 1.7594-.328131 0-.656263-.016-.976391-.056 1.80872 1.1516 3.96959 1.8313 6.28251 1.8313z" fill="#000"/></svg>