<svg width="20" height="20" viewBox="0 0 20 20" fill="none" xmlns="http://www.w3.org/2000/svg">
<mask id="path-1-inside-1_2335_2584" fill="white">
<path fill-rule="evenodd" clip-rule="evenodd" d="M3.41455 10L9.99997 13.2927L16.5854 10L19.9828 11.6987L9.99997 16.6902L0.0170898 11.6987L3.41455 10Z"/>
</mask>
<path fill-rule="evenodd" clip-rule="evenodd" d="M3.41455 10L9.99997 13.2927L16.5854 10L19.9828 11.6987L9.99997 16.6902L0.0170898 11.6987L3.41455 10Z" fill="black"/>
<path d="M3.41455 10L3.86177 9.10557L3.41455 8.88197L2.96734 9.10557L3.41455 10ZM9.99997 13.2927L9.55276 14.1871L9.99997 14.4107L10.4472 14.1871L9.99997 13.2927ZM16.5854 10L17.0326 9.10557L16.5854 8.88197L16.1382 9.10557L16.5854 10ZM19.9828 11.6987L20.4301 12.5932L22.2189 11.6987L20.4301 10.8043L19.9828 11.6987ZM9.99997 16.6902L9.55276 17.5846L9.99997 17.8082L10.4472 17.5846L9.99997 16.6902ZM0.0170898 11.6987L-0.430124 10.8043L-2.21898 11.6987L-0.430123 12.5932L0.0170898 11.6987ZM2.96734 10.8944L9.55276 14.1871L10.4472 12.3983L3.86177 9.10557L2.96734 10.8944ZM10.4472 14.1871L17.0326 10.8944L16.1382 9.10557L9.55276 12.3983L10.4472 14.1871ZM20.4301 10.8043L17.0326 9.10557L16.1382 10.8944L19.5356 12.5932L20.4301 10.8043ZM10.4472 17.5846L20.4301 12.5932L19.5356 10.8043L9.55276 15.7957L10.4472 17.5846ZM-0.430123 12.5932L9.55276 17.5846L10.4472 15.7957L0.464303 10.8043L-0.430123 12.5932ZM2.96734 9.10557L-0.430124 10.8043L0.464303 12.5932L3.86177 10.8944L2.96734 9.10557Z" fill="black" mask="url(#path-1-inside-1_2335_2584)"/>
<path fill-rule="evenodd" clip-rule="evenodd" d="M10 4.65141L2.70043 8.30121L10 11.951L17.2996 8.3012L10 4.65141ZM10 3.30977L19.9829 8.3012L10 13.2926L0.0171509 8.30121L10 3.30977Z" fill="black"/>
</svg>
