<svg fill="none" height="20" viewBox="0 0 20 20" width="20" xmlns="http://www.w3.org/2000/svg"><g clip-rule="evenodd" fill="#000" fill-rule="evenodd"><path d="m.400025 2.32002c0-1.06038.859615-1.919996 1.920005-1.919996l15.35997.000001c1.0604 0 1.92.859615 1.92 1.919995v10.55998c0 1.0604-.8596 1.92-1.92 1.92h-6.834v-7.51203l3.4908 3.49083c.3304.3303.866.3303 1.1963 0 .3304-.3304.3304-.86598 0-1.19638l-4.9346-4.93462c-.3303-.33036-.866-.33036-1.19632 0l-4.93465 4.93462c-.33036.3304-.33036.86598 0 1.19638.33036.3303.86598.3303 1.19634 0l3.49023-3.49027v7.51147h-6.83407c-1.06039 0-1.920006-.8596-1.920006-1.92z"/><path d="m10.8531 14.8v3.84c0 .5302-.3826.96-.85441.96-.47192 0-.8544-.4298-.8544-.96v-3.84z"/></g></svg>