<svg fill="none" height="21" viewBox="0 0 20 21" width="20" xmlns="http://www.w3.org/2000/svg"><g fill="#000"><path d="m5.28334 10.0834h9.08336l-4.5417-7.26665z"/><g clip-rule="evenodd" fill-rule="evenodd"><path d="m18.9083 1.00007c0 .50166-.4066.90833-.9083.90833h-16.35c-.50166 0-.908331-.40667-.908331-.90833s.406671-.9083342.908331-.9083342l16.35.0000015c.5017 0 .9083.4066747.9083.9083327z"/><path d="m9.825 9.17505c.5017 0 .9083.40668.9083.90835v9.0833c0 .5017-.4066.9083-.9083.9083-.50166 0-.90833-.4066-.90833-.9083v-9.0833c0-.50167.40667-.90835.90833-.90835z"/></g></g></svg>