<svg fill="none" height="20" viewBox="0 0 20 20" width="20" xmlns="http://www.w3.org/2000/svg"><g fill="#000"><path d="m10.4868 13.9138c2.42-3.4386 2.8275-10.34769-2.61965-10.34769-5.44712 0-5.04378 6.90909-2.62375 10.34769-2.42003 0-5.2434 2.2606-5.2434 4.553h15.7302c.0041-2.2924-2.8234-4.553-5.2434-4.553z"/><path d="m14.7104 11.8471c2.4201-3.4386 2.8275-10.34768-2.6196-10.34768-1.3811 0-2.38616.44418-3.07754 1.16334 1.06214.18886 1.93924.6483 2.61474 1.33504.8866.90127 1.3345 2.10053 1.4915 3.32547.2442 1.90487-.187 4.06693-1.0374 5.83293.9454.2815 1.8432.7873 2.5808 1.41.5976.5044 1.1395 1.1292 1.5185 1.8339h3.7724c.0041-2.2924-2.8233-4.553-5.2434-4.553z"/></g></svg>