<svg fill="none" height="20" viewBox="0 0 20 20" width="20" xmlns="http://www.w3.org/2000/svg"><g fill="#000"><path clip-rule="evenodd" d="m4.64091 4.42979c.82286-.83606 1.97445-1.30145 3.41853-1.30145 1.44407 0 2.59556.46539 3.41816 1.30163.8057.81912 1.2128 1.90908 1.3555 3.02238.2219 1.73127-.17 3.69625-.9429 5.30135.8593.2558 1.6753.7155 2.3457 1.2815 1.0321.8713 1.8818 2.1378 1.8792 3.5467-.0008.5016-.4077.9077-.9092.9077h-14.296618c-.241156 0-.472436-.0958-.642959-.2664-.1705239-.1705-.266323-.4018-.266323-.6429 0-1.4076.848712-2.6735 1.88051-3.545.67009-.566 1.48556-1.0257 2.34455-1.2815-.7727-1.6053-1.16386-3.57052-.94109-5.30187.14325-1.11332.55089-2.20316 1.35694-3.02214zm.44675 3.25422c-.22148 1.72136.35361 3.84649 1.33074 5.23489.19538.2776.21984.6409.06346.9422-.15639.3013-.46758.4904-.80705.4904-.83848 0-1.82909.4044-2.62083 1.0731-.46134.3897-.80103.8213-1.00619 1.2464h12.02101c-.2047-.4248-.5443-.8564-1.0061-1.2462-.7921-.6688-1.7837-1.0733-2.6224-1.0733-.3394 0-.65062-.1891-.807-.4904-.15639-.3013-.13192-.6646.06345-.9422.97725-1.3886 1.55325-3.51393 1.33255-5.23531-.1086-.8472-.3997-1.52242-.8482-1.97834-.43166-.43882-1.0904-.75835-2.12166-.75835-1.03127 0-1.69036.31954-2.12241.75853-.44886.45606-.74036 1.1314-.84937 1.97858z" fill-rule="evenodd"/><path d="m11.8981 1.25c-1.444 0-2.59564.46539-3.4185 1.30145-.53745.54608-.89778 1.21257-1.1207 1.92616.22061-.02999.45399-.04557.70055-.04557.44388 0 .84499.05049 1.20584.14465.13635-.29185.30727-.54318.51043-.7496.43208-.43899 1.09118-.75852 2.12238-.75852 1.0313 0 1.69.31953 2.1217.75834.4484.45592.7396 1.13114.8482 1.97834.2207 1.72139-.3553 3.84672-1.3326 5.23535-.1953.2776-.2198.6409-.0634.9422s.4676.4904.807.4904c.8387 0 1.8303.4044 2.6224 1.0732.4618.3899.8014.8214 1.0061 1.2463h-4.6902c.7002.487 1.2902 1.1229 1.6416 1.8185h4.1857c.5015 0 .9083-.4061.9092-.9076.0026-1.4089-.8471-2.6754-1.8792-3.5468-.6705-.5659-1.4864-1.0256-2.3457-1.2814.7729-1.60509 1.1648-3.57012.9429-5.30138-.1427-1.1133-.5498-2.20326-1.3556-3.02239-.8225-.83624-1.974-1.30163-3.4181-1.30163z"/><path d="m4.19501 14.1157c.49008-.1787.99389-.279 1.47981-.279-.22367-.3179-.4284-.6683-.6105-1.0414-.35056.3954-.65272.8402-.86931 1.3204z"/></g></svg>