<svg fill="none" height="20" viewBox="0 0 21 20" width="21" xmlns="http://www.w3.org/2000/svg" xmlns:xlink="http://www.w3.org/1999/xlink"><clipPath id="a"><path d="m.740601 0h20v20h-20z"/></clipPath><g clip-path="url(#a)" fill="#000"><path d="m11.8928 8.9585-.2314 2.0833h-2.07312l.23148-2.0833z"/><path clip-rule="evenodd" d="m4.07393 0c-1.84095 0-3.333329 1.49238-3.333329 3.33333v13.33337c0 1.8409 1.492389 3.3333 3.333329 3.3333h13.33337c1.8409 0 3.3333-1.4924 3.3333-3.3333v-13.33337c0-1.84095-1.4924-3.33333-3.3333-3.33333zm6.24487 4.46726c.0508-.45742-.2788-.86944-.73622-.92026s-.86944.27879-.92026.73621l-.3343 3.00862h-2.58744c-.46024 0-.83333.3731-.83333.83333 0 .46024.37309.83334.83333.83334h2.40226l-.23148 2.0833h-2.17078c-.46024 0-.83333.3731-.83333.8334 0 .4602.37309.8333.83333.8333h1.98559l-.31385 2.8247c-.05083.4574.27878.8694.73621.9203.45742.0508.86943-.2788.92026-.7362l.33431-3.0088h2.0731l-.3139 2.8247c-.0508.4574.2788.8694.7362.9203.4574.0508.8695-.2788.9203-.7362l.3343-3.0088h2.5875c.4602 0 .8333-.3731.8333-.8333 0-.4603-.3731-.8334-.8333-.8334h-2.4023l.2315-2.0833h2.1708c.4602 0 .8333-.3731.8333-.83334 0-.46023-.3731-.83333-.8333-.83333h-1.9857l.3139-2.82457c.0508-.45742-.2788-.86944-.7362-.92026s-.8695.27879-.9203.73621l-.3343 3.00862h-2.0731z" fill-rule="evenodd"/></g></svg>