<svg fill="none" height="20" viewBox="0 0 20 20" width="20" xmlns="http://www.w3.org/2000/svg" xmlns:xlink="http://www.w3.org/1999/xlink"><clipPath id="a"><path d="m0 0h20v20h-20z"/></clipPath><g clip-path="url(#a)"><path d="m8.10187 1.47715c.77789-1.5616206 3.00563-1.5622823 3.78453-.00113l7.5631 15.16058c.7013 1.4057-.321 3.0581-1.8919 3.0581h-15.11513c-1.570367 0-2.592705-1.6514-1.892518-3.057zm3.78433 4.47485c0-.40845-.2179-.84553-.5347-1.1724-.3226-.3328-.7876-.59312-1.3308-.59312-.54164 0-1.01538.2588-1.3473.58887-.32553.32373-.55959.76191-.55959 1.17665 0 .31811.12465 1.96265.24649 3.50043.06139.77497.12279 1.53097.16883 2.09317.02302.2812.0422.5139.05563.6764l.01559.1882.00411.0495.00036.0043c.0077.7754.63865 1.4016 1.41588 1.4016.7776 0 1.4088-.6269 1.4158-1.4028l.0005-.0054.0037-.0495.0143-.1882.0509-.6763c.0422-.5622.0984-1.3182.1546-2.09312.1117-1.53873.2257-3.18158.2257-3.49828zm-1.8849 12.199c1.0832 0 1.9614-.8782 1.9614-1.9614 0-1.0833-.8782-1.9614-1.9614-1.9614-1.08323 0-1.96137.8781-1.96137 1.9614 0 1.0832.87814 1.9614 1.96137 1.9614z" fill="#000" stroke="#000" stroke-width=".65003"/></g></svg>