<svg fill="none" height="20" viewBox="0 0 21 20" width="21" xmlns="http://www.w3.org/2000/svg"><path d="m11.0639 2.49829c.0072.00002.0148.00003.023.00005l.0885.00028c1.0273.00377 6.2337.04151 7.6374.4189.8605.2308 1.5382.911 1.7682 1.77442.1266.47437.2148 1.10486.2763 1.75331l.012.12988c.0096.10837.0186.21699.0269.3252l.0096.12963c.0821 1.14263.0917 2.21189.0928 2.44583l.0002.03156v.0068.01772.00681l-.0002.03156c-.0011.24278-.0114 1.38516-.1024 2.57556l-.0103.13-.0109.1301c-.0619.7157-.1548 1.4264-.294 1.9482-.23.8634-.9077 1.5438-1.7682 1.7744-1.4505.3901-6.9614.4174-7.7259.4193l-.0588.0002c-.0048 0-.0091 0-.0127 0h-.0241s-.0055 0-.0091 0l-.0716-.0002c-.3863-.0009-1.98489-.0084-3.65898-.0659l-.21404-.0076c-.03571-.0013-.07143-.0026-.10716-.004l-.21428-.0085-.21379-.009c-1.38688-.0609-2.7092-.1607-3.31749-.3243-.86052-.2306-1.53815-.911-1.76814-1.7744-.13933-.5218-.23222-1.2325-.29414-1.9482l-.01092-.1301-.01026-.13c-.08777-1.1471-.10051-2.24964-.102361-2.54555l-.000221-.04236c-.000015-.00381-.000028-.00732-.000039-.01053v-.0487c.000011-.0032.000024-.00671.000039-.01053l.000221-.04235c.001671-.26799.012281-1.19753.079471-2.22263l.00869-.1286c.0015-.0215.00303-.04303.00458-.06459l.00962-.12963c.00828-.10821.01722-.21683.02689-.3252l.01196-.12988c.06153-.64845.14981-1.27894.27647-1.75331.22999-.86342.90762-1.54362 1.76814-1.77442.60829-.16354 1.93061-.26329 3.31749-.32414l.21379-.00906.21428-.00846c.03573-.00137.07145-.00271.10716-.00402l.21404-.00761c1.56723-.0538 3.06828-.06377 3.57048-.06561l.0885-.00028c.0082-.00002.0159-.00003.023-.00005zm-2.06508 4.01399v6.02142l5.19588-3.01052z" fill="#000"/></svg>