<svg width="20" height="20" viewBox="0 0 20 20" fill="none" xmlns="http://www.w3.org/2000/svg">
<path d="M12.0693 7.99912C12.1233 7.97155 12.1883 7.97757 12.2364 8.01458L17.6098 12.1565C17.6606 12.1957 17.6824 12.2619 17.6648 12.3237L17.2947 13.6221C17.2812 13.6695 17.2462 13.7078 17.2001 13.7255C17.1541 13.7432 17.1024 13.7381 17.0607 13.7119L12.6449 10.9438L11.799 16.4141C11.7915 16.4625 11.762 16.5045 11.719 16.5279C11.6761 16.5513 11.6247 16.5533 11.5801 16.5334L10.4218 16.0159C10.3618 15.9891 10.3249 15.9278 10.3293 15.8623L10.806 8.73047C10.8097 8.67547 10.8419 8.62643 10.891 8.60133L12.0693 7.99912Z" fill="black"/>
<path fill-rule="evenodd" clip-rule="evenodd" d="M9.58409 0.0209064C9.53553 -0.00704192 9.47576 -0.00696373 9.42728 0.0211116L0.708485 5.07015L0.704783 5.07222C0.656533 5.09997 0.626642 5.1512 0.626166 5.2068L0.62616 5.20808V15.311C0.62616 15.3671 0.656125 15.4189 0.704743 15.4469L2.41507 16.4314L2.41923 16.4338C2.46778 16.4618 2.52754 16.4617 2.57601 16.4336L3.6296 15.8235V17.0073C3.6296 17.0634 3.65956 17.1152 3.70818 17.1432L5.42265 18.13C5.47122 18.158 5.53101 18.1579 5.57949 18.1298L5.58173 18.1285L7.60646 16.956L8.51591 19.8896C8.52835 19.9298 8.55637 19.9632 8.59369 19.9825C8.63102 20.0018 8.67452 20.0053 8.71445 19.9922L10.5293 19.3984C10.5398 19.395 10.5498 19.3905 10.559 19.3852L19.2909 14.7188C19.3578 14.6831 19.3895 14.6046 19.3663 14.5325L16.0586 4.2582C16.0444 4.21396 16.0112 4.17831 15.9681 4.16088C15.9492 4.15324 15.9292 4.14945 15.9093 4.14945C15.8904 4.14945 15.8715 4.15287 15.8537 4.15966L14.3806 4.68868V2.83984C14.3806 2.78381 14.3507 2.73203 14.3022 2.70402L14.3001 2.70285L12.5875 1.71707C12.539 1.68913 12.4792 1.6892 12.4307 1.71728L11.3771 2.32741V1.14558L11.3771 1.14354C11.3771 1.08749 11.3471 1.03573 11.2986 1.00777L9.58409 0.0209064ZM5.32923 9.5594L5.32645 7.98159L3.94322 7.17705V16.9166L5.34359 17.7227L5.32931 9.60412C5.3282 9.59652 5.32765 9.5889 5.32766 9.58132C5.32767 9.57396 5.3282 9.56663 5.32923 9.5594ZM0.939782 5.48084L2.32302 6.28538L2.34015 16.0264L0.939782 15.2203V5.48084ZM10.9065 1.14395L9.5061 0.337882L1.09544 5.20848L2.47998 6.01379L10.9065 1.14395ZM5.48336 7.71L13.9099 2.84012L12.5095 2.03405L4.09881 6.90469L5.48336 7.71ZM10.5722 19.0225L7.36225 9.05166L15.8176 4.53309L19.0276 14.5039L10.5722 19.0225ZM5.67871 9.67833L8.7683 19.6446L10.2834 19.1489L7.07326 9.1775L5.67871 9.67833Z" fill="black"/>
</svg>
