<svg width="20" height="20" viewBox="0 0 20 20" fill="none" xmlns="http://www.w3.org/2000/svg">
<path d="M18.0718 7.75015C17.8977 7.5052 17.6627 7.30904 17.3895 7.18073C17.1163 7.05243 16.8143 6.99633 16.5129 7.0179C16.2114 7.03946 15.9206 7.13796 15.6689 7.30382C15.4171 7.46967 15.2129 7.69725 15.0762 7.96444C14.9416 8.25197 14.8984 8.57326 14.9523 8.88568C15.0063 9.1981 15.1547 9.48688 15.3781 9.71372C15.9902 9.76211 16.5995 9.59025 17.0942 9.22963C17.5889 8.86901 17.936 8.34377 18.0718 7.75015V7.75015ZM12.866 1.00019L11.7512 0.39376L6.89711 3.0716L7.28408 3.27875L8.01984 3.66232L9.35226 2.92875L12.8667 0.987329L12.866 1.00019ZM13.315 0.815901C13.3439 0.822889 13.3704 0.837144 13.3921 0.857288C13.4139 0.877433 13.43 0.902786 13.4389 0.9309L15.0646 5.68588C15.0813 5.72359 15.0825 5.76622 15.0682 5.80484C15.0538 5.84346 15.0249 5.87506 14.9875 5.89302C14.3671 6.23053 13.8797 6.76569 13.6043 7.41189C13.3289 8.0581 13.2815 8.77752 13.4699 9.45372C13.6948 10.1896 14.1724 10.8243 14.8201 11.2475C15.4677 11.6708 16.2444 11.8559 17.0153 11.7708C17.0577 11.7682 17.0998 11.7786 17.1359 11.8005C17.172 11.8225 17.2004 11.8551 17.2171 11.8937L18.8969 16.7744C18.9078 16.8137 18.9061 16.8554 18.8922 16.8937C18.8783 16.9321 18.8527 16.9653 18.8191 16.9887L13.6558 19.9808C13.6312 19.9913 13.6047 19.9967 13.578 19.9965C13.5304 20.0053 13.4811 19.9973 13.4389 19.9737L11.6273 18.8451C11.5942 18.8281 11.5673 18.8014 11.5502 18.7687L8.01191 10.7044L2.62382 13.743C2.59166 13.7593 2.5563 13.7684 2.52021 13.7698C2.48412 13.7711 2.44816 13.7647 2.41484 13.7508L1.18979 13.0601C1.14973 13.0388 1.11942 13.0031 1.10509 12.9603C1.09075 12.9176 1.09347 12.871 1.11268 12.8301L6.34727 2.98446C6.36685 2.95079 6.39659 2.92406 6.43231 2.90803L11.6503 0.0230476C11.6789 0.00791564 11.7109 0 11.7433 0C11.7757 0 11.8076 0.00791564 11.8362 0.0230476L13.315 0.815901ZM6.84306 3.46017L6.58724 3.33017L1.54289 12.853L2.46385 13.3673L6.81496 7.72444C6.83627 7.69844 6.86354 7.67787 6.89451 7.66445C6.92547 7.65103 6.95923 7.64515 6.99295 7.6473C7.02602 7.65321 7.05723 7.66669 7.08413 7.68665C7.11102 7.70661 7.13285 7.73251 7.14788 7.7623L11.886 18.5822L13.1521 19.3572L8.06595 4.61945L7.84977 4.00517L6.83586 3.45303L6.84306 3.46017ZM14.6467 9.13872C14.5308 8.71402 14.5633 8.26293 14.7391 7.85892C14.9148 7.4549 15.2233 7.12175 15.6145 6.91373C16.0112 6.69379 16.4683 6.60498 16.9194 6.66021C17.3706 6.71545 17.7922 6.91185 18.1229 7.22087C18.4975 7.57759 18.7138 8.06711 18.7243 8.58183C18.7348 9.09656 18.5388 9.59437 18.1792 9.96586L18.1229 10.0216C17.8635 10.2678 17.545 10.4444 17.1976 10.5347C16.8502 10.625 16.4852 10.626 16.1373 10.5376C15.7894 10.4493 15.4699 10.2744 15.2091 10.0297C14.9482 9.7849 14.7547 9.47826 14.6467 9.13872V9.13872Z" fill="black"/>
</svg>
