<svg width="20" height="20" viewBox="0 0 20 20" fill="none" xmlns="http://www.w3.org/2000/svg">
<path d="M9.47723 7.6375C9.64083 7.39841 9.81988 7.36801 9.96513 7.36801C10.1104 7.36801 10.3524 7.39841 10.516 7.6375C12.646 10.5394 17.0658 18.1974 17.4746 18.6142C18.0801 19.2318 18.9107 18.8469 19.3933 18.1464C19.8684 17.4567 20.0003 16.9725 20.0003 16.4558C20.0003 16.1039 13.1169 3.40642 12.4237 2.34951C11.757 1.33294 11.5399 1.07617 10.3989 1.07617H9.54504C8.40743 1.07617 8.243 1.33294 7.57634 2.34951C6.88313 3.40642 -0.000289917 16.1039 -0.000289917 16.4558C-0.000289917 16.9725 0.131611 17.4567 0.606744 18.1464C1.08935 18.8469 1.91988 19.2318 2.52545 18.6142C2.93419 18.1974 7.34719 10.5394 9.47723 7.6375Z" fill="black"/>
</svg>
