<svg width="20" height="20" viewBox="0 0 20 20" fill="none" xmlns="http://www.w3.org/2000/svg">
<path fill-rule="evenodd" clip-rule="evenodd" d="M17.1677 1.15247C15.6479 1.15247 14.416 2.38444 14.416 3.90415C14.416 5.42386 15.6479 6.65583 17.1677 6.65583C18.6874 6.65583 19.9193 5.42386 19.9193 3.90415C19.9193 2.38444 18.6874 1.15247 17.1677 1.15247ZM14.7388 3.90415C14.7388 2.56274 15.8262 1.47531 17.1677 1.47531C18.1231 1.47531 18.9497 2.02698 19.3462 2.82915C19.1587 3.61789 18.7234 4.32853 18.1009 4.85475C17.4142 5.43528 16.5441 5.75386 15.6449 5.75402C15.6277 5.75402 15.6106 5.75402 15.5936 5.75395C15.0705 5.30845 14.7388 4.64504 14.7388 3.90415Z" fill="black"/>
<path fill-rule="evenodd" clip-rule="evenodd" d="M12.9835 2.48154C13.0335 2.51036 13.0643 2.56367 13.0643 2.62138V7.44739L17.2296 9.85876L17.2307 9.85936C17.2806 9.88797 17.3115 9.94102 17.3118 9.99857L17.3377 14.9187C17.338 14.9766 17.3072 15.0303 17.257 15.0593L8.73719 19.9783C8.68725 20.0072 8.62572 20.0072 8.57577 19.9783C8.52583 19.9495 8.49506 19.8962 8.49506 19.8385V9.99942C8.49506 9.94182 8.52575 9.88859 8.57559 9.85973L12.5809 7.54039L8.57556 5.22003C8.52573 5.19116 8.49505 5.13793 8.49506 5.08034C8.49507 5.02275 8.52575 4.96952 8.57559 4.94066L12.822 2.48169C12.872 2.45277 12.9335 2.45271 12.9835 2.48154ZM16.8283 9.99945L13.0643 7.82043V12.1794L16.8283 9.99945ZM8.97855 5.08038L12.7415 7.26033V2.90139L8.97855 5.08038Z" fill="black"/>
<path fill-rule="evenodd" clip-rule="evenodd" d="M8.75049 0.0218527C8.70039 -0.00725909 8.63854 -0.0072859 8.58841 0.0217824L4.346 2.48208C4.33955 2.48526 4.3333 2.48888 4.32729 2.49293L0.11023 4.93852L0.106941 4.94036C0.0580288 4.96843 0.0273937 5.01993 0.0259212 5.07612L0.025866 5.07994L0.012756 10.0743C-0.00459045 10.1152 -0.00380268 10.1602 0.0124281 10.1992L3.87054e-05 14.9191C-0.000112877 14.9768 0.0305962 15.0302 0.0805706 15.0592L4.31964 17.5138C4.32922 17.5209 4.3396 17.5269 4.35063 17.5317L8.57577 19.9783C8.62572 20.0072 8.68725 20.0072 8.73719 19.9783C8.78719 19.9495 8.8179 19.8962 8.8179 19.8385V10.0925L12.9838 7.68018C13.0157 7.66168 13.0398 7.63317 13.053 7.59992C13.0821 7.52675 13.054 7.44137 12.9838 7.40073L12.9029 7.35387V2.80801L12.9838 2.76116C13.0336 2.73232 13.0643 2.67893 13.0643 2.62138C13.0643 2.56367 13.0335 2.51036 12.9835 2.48154L8.75049 0.0218527ZM12.5781 2.61943L8.66931 0.348068L4.73986 2.62687L8.65564 4.8944L12.5781 2.61943ZM8.65584 5.26758L4.74069 7.53837L8.65666 9.81282L12.5809 7.54039L8.65584 5.26758ZM4.41918 7.35164L8.33385 5.08112L4.41798 2.81354L0.50893 5.08051L4.41918 7.35164ZM4.254 7.62911V12.3207L0.335658 10.0515L0.347972 5.36044L4.254 7.62911ZM4.57684 12.5077V7.81662L8.49506 10.0924V14.7768L4.57684 12.5077ZM4.254 12.6938L0.33468 10.424L0.323124 14.8266L4.254 17.1027V12.6938ZM4.57684 17.2897V12.8807L8.49506 15.1499V19.5585L4.57684 17.2897Z" fill="black"/>
</svg>
