<svg width="71" height="20" viewBox="0 0 71 20" fill="none" xmlns="http://www.w3.org/2000/svg">
<path d="M9.25823 6.34248C9.41638 6.11136 9.58945 6.08197 9.72985 6.08197C9.87026 6.08197 10.1042 6.11136 10.2623 6.34248C12.3213 9.14757 16.5937 16.5502 16.9888 16.9531C17.5742 17.5501 18.377 17.178 18.8435 16.5008C19.3028 15.8341 19.4303 15.3661 19.4303 14.8666C19.4303 14.5265 12.7765 2.25252 12.1064 1.23087C11.462 0.248208 11.2521 0 10.1492 0H9.32378C8.22411 0 8.06516 0.248208 7.42074 1.23087C6.75066 2.25252 0.0968246 14.5265 0.0968246 14.8666C0.0968246 15.3661 0.224326 15.8341 0.683612 16.5008C1.15012 17.178 1.95295 17.5501 2.53832 16.9531C2.93343 16.5502 7.19924 9.14757 9.25823 6.34248Z" fill="black"/>
<path d="M24.1989 1.10486V16.449H33.5487V13.3363H27.4245V10.0921H32.8731V6.97947H27.4245V4.21752H33.5487V1.10486H24.1989Z" fill="black"/>
<path d="M46.25 16.449L42.3706 10.8813L45.9885 5.68617H42.327L40.5398 8.22892L38.7745 5.68617H35.0694L38.6873 10.9032L34.8297 16.449H38.4912L40.5181 13.5336L42.5449 16.449H46.25Z" fill="black"/>
<path d="M53.8221 5.46697C52.3401 5.46697 51.1849 6.08074 50.4439 7.19867V5.68617H47.3709V20H50.4439V14.9365C51.1849 16.0544 52.3401 16.6682 53.8221 16.6682C56.59 16.6682 58.7912 14.1474 58.7912 11.0566C58.7912 7.96587 56.59 5.46697 53.8221 5.46697ZM53.1247 13.709C51.6208 13.709 50.4439 12.5691 50.4439 11.0566C50.4439 9.56605 51.6208 8.40428 53.1247 8.40428C54.6067 8.40428 55.8054 9.58797 55.8054 11.0566C55.8054 12.5472 54.6067 13.709 53.1247 13.709Z" fill="black"/>
<path d="M65.3125 5.46697C62.1523 5.46697 59.7549 7.87819 59.7549 11.0785C59.7549 14.2789 62.1523 16.6682 65.3125 16.6682C68.4509 16.6682 70.8701 14.2789 70.8701 11.0785C70.8701 7.87819 68.4509 5.46697 65.3125 5.46697ZM65.3125 8.4262C66.7509 8.4262 67.8624 9.54413 67.8624 11.0785C67.8624 12.5691 66.7509 13.709 65.3125 13.709C63.8523 13.709 62.7625 12.5691 62.7625 11.0785C62.7625 9.54413 63.8523 8.4262 65.3125 8.4262Z" fill="black"/>
</svg>
