<svg width="20" height="20" viewBox="0 0 20 20" fill="none" xmlns="http://www.w3.org/2000/svg">
<path fill-rule="evenodd" clip-rule="evenodd" d="M10 0C4.5 0 0 4.5 0 10C0 15.5 4.5 20 10 20C15.5 20 20 15.5 20 10C20 4.5 15.5 0 10 0ZM8.66052 11.4142L6.56759 9.32123C6.17707 8.9307 5.54391 8.9307 5.15338 9.32123C4.76286 9.71175 4.76286 10.3449 5.15338 10.7354L7.95342 13.5355C8.34394 13.926 8.97711 13.926 9.36763 13.5355L15.0245 7.87862C15.415 7.4881 15.415 6.85493 15.0245 6.46441C14.634 6.07388 14.0008 6.07388 13.6103 6.46441L8.66052 11.4142Z" fill="black"/>
</svg>
