<svg width="20" height="20" viewBox="0 0 20 20" fill="none" xmlns="http://www.w3.org/2000/svg">
<g clip-path="url(#clip0_3475_2499)">
<path d="M3 8.31909V17.5H5H15H17V8.31909" stroke="black" stroke-width="2" stroke-linecap="round"/>
<path d="M1 6.52459L3.21264 1.5H8L7.1954 6.52459C7.1954 6.52459 6.21264 8.31909 4 8.31909C1.78736 8.31909 1 6.52459 1 6.52459Z" stroke="black" stroke-width="2"/>
<path d="M19 6.52459L16.7874 1.5H12L12.8046 6.52459C12.8046 6.52459 13.7874 8.31909 16 8.31909C18.2126 8.31909 19 6.52459 19 6.52459Z" stroke="black" stroke-width="2"/>
<path d="M13 7.07926L12.0909 1.5H10H7.90909L7 7.07926C7 7.07926 7.5 8.87375 10 8.87375C12.5 8.87375 13 7.07926 13 7.07926Z" stroke="black" stroke-width="2"/>
<rect x="7.25" y="12.5" width="5.5" height="4.73575" fill="black"/>
</g>
<defs>
<clipPath id="clip0_3475_2499">
<rect width="20" height="20" fill="white"/>
</clipPath>
</defs>
</svg>
