<svg width="20" height="20" viewBox="0 0 20 20" fill="none" xmlns="http://www.w3.org/2000/svg">
<path d="M14.219 12.3251C13.798 12.3251 13.4556 11.9813 13.4556 11.559C13.4556 11.1367 13.798 10.7932 14.219 10.7932C14.64 10.7932 14.9824 11.1367 14.9824 11.559C14.9824 11.9813 14.64 12.3251 14.219 12.3251ZM5.78101 12.3251C5.36004 12.3251 5.01764 11.9813 5.01764 11.559C5.01764 11.1367 5.36004 10.7932 5.78101 10.7932C6.20196 10.7932 6.54438 11.1367 6.54438 11.559C6.54438 11.9813 6.20196 12.3251 5.78101 12.3251ZM14.4928 7.71181L16.0185 5.06091C16.106 4.90854 16.054 4.71392 15.9023 4.62593C15.7507 4.53819 15.5564 4.59038 15.4687 4.7425L13.9239 7.42696C12.7425 6.88609 11.4157 6.58483 9.99999 6.58483C8.58424 6.58483 7.25745 6.88609 6.07609 7.42696L4.53126 4.7425C4.44355 4.59038 4.2493 4.53819 4.09767 4.62593C3.94604 4.71392 3.89376 4.90854 3.98147 5.06091L5.50721 7.71181C2.88732 9.14128 1.09546 11.8021 0.833328 14.9457H19.1667C18.9043 11.8021 17.1124 9.14128 14.4928 7.71181Z" fill="black"/>
</svg>
