<svg width="24" height="24" viewBox="0 0 24 24" fill="none" xmlns="http://www.w3.org/2000/svg">
<path d="M17.0628 14.7901C16.5576 14.7901 16.1467 14.3776 16.1467 13.8708C16.1467 13.3641 16.5576 12.9518 17.0628 12.9518C17.5679 12.9518 17.9788 13.3641 17.9788 13.8708C17.9788 14.3776 17.5679 14.7901 17.0628 14.7901ZM6.93721 14.7901C6.43205 14.7901 6.02117 14.3776 6.02117 13.8708C6.02117 13.3641 6.43205 12.9518 6.93721 12.9518C7.44236 12.9518 7.85326 13.3641 7.85326 13.8708C7.85326 14.3776 7.44236 14.7901 6.93721 14.7901ZM17.3913 9.25415L19.2222 6.07308C19.3272 5.89024 19.2648 5.65669 19.0828 5.5511C18.9008 5.44581 18.6677 5.50845 18.5625 5.69099L16.7087 8.91233C15.2911 8.26329 13.6989 7.90179 12 7.90179C10.3011 7.90179 8.70895 8.26329 7.29132 8.91233L5.43752 5.69099C5.33227 5.50845 5.09917 5.44581 4.91721 5.5511C4.73525 5.65669 4.67251 5.89024 4.77777 6.07308L6.60866 9.25415C3.46479 10.9695 1.31456 14.1625 1 17.9348H23C22.6852 14.1625 20.5349 10.9695 17.3913 9.25415Z" fill="black"/>
</svg>
