<svg width="24" height="24" viewBox="0 0 24 24" fill="none" xmlns="http://www.w3.org/2000/svg">
<path d="M20.318 17.8654C20.0004 18.5991 19.6245 19.2744 19.189 19.8953C18.5953 20.7418 18.1092 21.3277 17.7346 21.653C17.1538 22.1871 16.5316 22.4606 15.8654 22.4762C15.387 22.4762 14.8102 22.3401 14.1387 22.064C13.4651 21.7891 12.846 21.653 12.2799 21.653C11.6862 21.653 11.0495 21.7891 10.3684 22.064C9.68635 22.3401 9.13687 22.4839 8.71675 22.4982C8.07783 22.5254 7.44098 22.2441 6.80529 21.653C6.39956 21.2992 5.89208 20.6925 5.28413 19.8331C4.63186 18.9153 4.0956 17.8511 3.67548 16.6378C3.22555 15.3273 3 14.0583 3 12.8297C3 11.4223 3.3041 10.2085 3.91321 9.19134C4.39192 8.37431 5.02877 7.72981 5.82584 7.25668C6.62291 6.78354 7.48414 6.54244 8.41161 6.52701C8.9191 6.52701 9.5846 6.68399 10.4116 6.9925C11.2363 7.30205 11.7658 7.45902 11.998 7.45902C12.1715 7.45902 12.7598 7.27547 13.757 6.90954C14.7 6.57018 15.4959 6.42967 16.1479 6.48502C17.9147 6.6276 19.2421 7.32408 20.1249 8.57886C18.5447 9.53627 17.7631 10.8773 17.7786 12.5975C17.7929 13.9375 18.279 15.0525 19.2343 15.9378C19.6673 16.3488 20.1508 16.6663 20.6887 16.8919C20.5721 17.2302 20.4489 17.5543 20.318 17.8654ZM16.2659 1.92012C16.2659 2.97036 15.8822 3.95096 15.1174 4.8586C14.1945 5.93761 13.0781 6.56111 11.8676 6.46272C11.8521 6.33672 11.8432 6.20412 11.8432 6.06477C11.8432 5.05654 12.2821 3.97754 13.0615 3.0953C13.4507 2.64861 13.9456 2.2772 14.5458 1.98091C15.1446 1.68905 15.7111 1.52764 16.2439 1.5C16.2594 1.6404 16.2659 1.78081 16.2659 1.9201V1.92012Z" fill="black"/>
</svg>
