<svg width="24" height="24" viewBox="0 0 24 24" fill="none" xmlns="http://www.w3.org/2000/svg">
<path fill-rule="evenodd" clip-rule="evenodd" d="M20.1772 14.2494C20.3286 13.9785 20.6767 13.8785 20.9548 14.0259L22.1963 14.6839C22.3808 14.7817 22.4956 14.9698 22.4956 15.1743C22.4956 15.3788 22.3808 15.5669 22.1964 15.6647L20.9549 16.3231C20.6769 16.4706 20.3287 16.3706 20.1773 16.0998C20.0259 15.829 20.1285 15.4899 20.4066 15.3424L20.7232 15.1745L20.4067 15.0067C20.1286 14.8593 20.0259 14.5203 20.1772 14.2494ZM3.83179 14.2487C3.98354 14.5194 3.88128 14.8586 3.60339 15.0064L3.28722 15.1745L3.6035 15.3428C3.88136 15.4906 3.98354 15.8299 3.83173 16.1005C3.67992 16.3711 3.33161 16.4706 3.05375 16.3228L1.81639 15.6644C1.63239 15.5664 1.51794 15.3785 1.51797 15.1743C1.51799 14.9701 1.63248 14.7822 1.8165 14.6843L3.05386 14.0263C3.33176 13.8785 3.68005 13.9781 3.83179 14.2487ZM18.7012 16.8826C18.8526 17.1534 18.75 17.4925 18.4719 17.64L15.9889 18.9568C15.7108 19.1043 15.3626 19.0043 15.2112 18.7334C15.0598 18.4626 15.1625 18.1235 15.4405 17.9761L17.9236 16.6592C18.2016 16.5118 18.5498 16.6118 18.7012 16.8826ZM5.30025 16.8819C5.45205 16.6113 5.80037 16.5118 6.07823 16.6596L8.55295 17.9764C8.83081 18.1243 8.93299 18.4635 8.78118 18.7341C8.62937 19.0047 8.28106 19.1043 8.0032 18.9564L5.52848 17.6396C5.25062 17.4917 5.14844 17.1525 5.30025 16.8819ZM10.2497 19.5155C10.4015 19.2449 10.7498 19.1454 11.0277 19.2933L11.9906 19.8056L12.9575 19.2929C13.2356 19.1454 13.5837 19.2454 13.7352 19.5162C13.8866 19.787 13.7839 20.1261 13.5058 20.2736L12.2643 20.932C12.0931 21.0228 11.8863 21.0227 11.7153 20.9316L10.4779 20.2732C10.2001 20.1254 10.0979 19.7861 10.2497 19.5155Z" fill="black"/>
<path fill-rule="evenodd" clip-rule="evenodd" d="M11.4099 4.15025C11.7647 3.95021 12.2022 3.9499 12.5573 4.14944L21.9264 9.41395C22.2813 9.61336 22.5 9.98204 22.5 10.3811C22.5 10.7801 22.2815 11.1488 21.9266 11.3483L12.5576 16.6156C12.2023 16.8153 11.7646 16.815 11.4097 16.6148L2.07193 11.3475C1.7179 11.1478 1.49995 10.7795 1.5 10.3811C1.50005 9.98262 1.71808 9.61438 2.07216 9.41476L11.4099 4.15025ZM11.9853 6.40647L4.93479 10.3815L11.9853 14.3585L19.0595 10.3815L11.9853 6.40647Z" fill="black"/>
</svg>
