<svg width="24" height="24" viewBox="0 0 24 24" fill="none" xmlns="http://www.w3.org/2000/svg">
<path fill-rule="evenodd" clip-rule="evenodd" d="M11.4252 1.14185C11.7627 0.95299 12.1788 0.952698 12.5166 1.14109L21.4568 6.11257C21.7949 6.30224 22.0021 6.65238 22 7.03031L21.9431 16.9787C21.9409 17.3517 21.735 17.6959 21.4016 17.8837L12.5748 22.8566C12.3971 22.9567 12.1974 23.0044 11.9987 22.9997C11.8 23.0044 11.6003 22.9568 11.4227 22.8567L2.59307 17.8838C2.25942 17.6959 2.05344 17.3514 2.05151 16.9781L2.00001 7.02975C1.99806 6.6519 2.20542 6.30192 2.54355 6.1124L2.55306 6.10713L11.4252 1.14185ZM5.26686 7.02474L11.9726 10.7795L14.2959 9.48295L7.65922 5.68587L5.26686 7.02474ZM4.22941 16.3651L4.19055 8.85884L10.8811 12.6051V20.1114L4.22941 16.3651ZM9.82407 4.47432L11.9725 3.27196L18.7007 7.02478L16.4638 8.27313L9.82407 4.47432ZM13.1162 20.1111V12.6052L19.8084 8.85906L19.7655 16.365L13.1162 20.1111Z" fill="black"/>
</svg>
