<svg width="24" height="24" viewBox="0 0 24 24" fill="none" xmlns="http://www.w3.org/2000/svg">
<path fill-rule="evenodd" clip-rule="evenodd" d="M5.34329 8.2955C5.17113 8.64994 5.04137 9.01539 4.96231 9.38498C2.68189 9.97471 0.97435 12.0016 0.97435 14.4459C0.97435 17.3635 3.40498 19.6778 6.33967 19.6778H16.7256L14.7999 17.7521H6.33967C4.41236 17.7521 2.90006 16.2446 2.90006 14.4459C2.90006 12.7706 4.20716 11.349 5.94173 11.1583L6.79939 11.0641V10.2012C6.79939 10.074 6.8143 9.93835 6.84431 9.79652L5.34329 8.2955ZM9.33718 6.92257L7.92769 5.51308C9.06629 4.80037 10.4642 4.33505 12 4.33505C15.6759 4.33505 18.7513 7.01137 19.1968 10.5188C21.3597 10.9298 23.0256 12.7841 23.0256 15.0558C23.0256 16.5698 22.286 17.8981 21.1522 18.7376L19.7659 17.3513C20.5729 16.8716 21.0999 16.0124 21.0999 15.0558C21.0999 13.5938 19.8691 12.3594 18.2892 12.3594H17.3264V11.3966C17.3264 8.58755 14.9695 6.26077 12 6.26077C11.0226 6.26077 10.1147 6.51468 9.33718 6.92257Z" fill="black"/>
<path fill-rule="evenodd" clip-rule="evenodd" d="M19.5492 20.7666L3.4487 4.66614L4.39743 3.71741L20.4979 19.8179L19.5492 20.7666Z" fill="black"/>
</svg>
