<svg width="24" height="24" viewBox="0 0 24 24" fill="none" xmlns="http://www.w3.org/2000/svg">
<path d="M9.22058 8.28312L12.5565 11.5908L9.24072 14.8785L7.76494 13.4152L9.60496 11.5908L7.74479 9.7464L9.22058 8.28312Z" fill="black"/>
<path d="M11.4434 8.48935L14.7794 11.797L16.2551 10.3338L14.395 8.48936L16.235 6.66496L14.7592 5.20167L11.4434 8.48935Z" fill="black"/>
<path fill-rule="evenodd" clip-rule="evenodd" d="M1 3.03469C1 2.46325 1.46721 2 2.04354 2H21.9565C22.5328 2 23 2.46325 23 3.03469V17C23 17.5714 22.5763 18 22 18H14V20H16V22H8V20H10V18H2C1.42367 18 1 17.5714 1 17V3.03469ZM3 16V4H21V16L3 16Z" fill="black"/>
</svg>
