<svg width="20" height="20" viewBox="0 0 20 20" fill="none" xmlns="http://www.w3.org/2000/svg">
<path d="M8.19 8.39C7.62 8.39 7.17 8.89 7.17 9.5C7.17 10.11 7.63 10.61 8.19 10.61C8.76 10.61 9.21 10.11 9.21 9.5C9.22 8.89 8.76 8.39 8.19 8.39ZM11.84 8.39C11.27 8.39 10.82 8.89 10.82 9.5C10.82 10.11 11.28 10.61 11.84 10.61C12.41 10.61 12.86 10.11 12.86 9.5C12.86 8.89 12.41 8.39 11.84 8.39Z" fill="black"/>
<path d="M16.7 0H3.3C2.17 0 1.25 0.92 1.25 2.06V15.58C1.25 16.72 2.17 17.64 3.3 17.64H14.64L14.11 15.79L15.39 16.98L16.6 18.1L18.75 20V2.06C18.75 0.92 17.83 0 16.7 0ZM12.84 13.06C12.84 13.06 12.48 12.63 12.18 12.25C13.49 11.88 13.99 11.06 13.99 11.06C13.58 11.33 13.19 11.52 12.84 11.65C12.34 11.86 11.86 12 11.39 12.08C10.43 12.26 9.55 12.21 8.8 12.07C8.23 11.96 7.74 11.8 7.33 11.64C7.1 11.55 6.85 11.44 6.6 11.3C6.57 11.28 6.54 11.27 6.51 11.25C6.49 11.24 6.48 11.23 6.47 11.22C6.29 11.12 6.19 11.05 6.19 11.05C6.19 11.05 6.67 11.85 7.94 12.23C7.64 12.61 7.27 13.06 7.27 13.06C5.06 12.99 4.22 11.54 4.22 11.54C4.22 8.32 5.66 5.71 5.66 5.71C7.1 4.63 8.47 4.66 8.47 4.66L8.57 4.78C6.77 5.3 5.94 6.09 5.94 6.09C5.94 6.09 6.16 5.97 6.53 5.8C7.6 5.33 8.45 5.2 8.8 5.17C8.86 5.16 8.91 5.15 8.97 5.15C9.58 5.07 10.27 5.05 10.99 5.13C11.94 5.24 12.96 5.52 14 6.09C14 6.09 13.21 5.34 11.51 4.82L11.65 4.66C11.65 4.66 13.02 4.63 14.46 5.71C14.46 5.71 15.9 8.32 15.9 11.54C15.9 11.54 15.05 12.99 12.84 13.06Z" fill="black"/>
</svg>
