<svg width="24" height="24" viewBox="0 0 24 24" fill="none" xmlns="http://www.w3.org/2000/svg">
<path fill-rule="evenodd" clip-rule="evenodd" d="M5 2.00002C3.34315 2.00002 2 3.34317 2 5.00002V19C2 20.6569 3.34315 22 5 22H19C20.6569 22 22 20.6569 22 19V5.00002C22 3.34317 20.6569 2.00002 19 2.00002H5ZM8.70701 7.29282C8.31648 6.90229 7.68332 6.90229 7.2928 7.29282C6.90227 7.68334 6.90227 8.31651 7.2928 8.70703L10.5857 11.9999L7.2928 15.2928C6.90227 15.6833 6.90227 16.3165 7.2928 16.707C7.68332 17.0976 8.31649 17.0976 8.70701 16.707L11.9999 13.4141L15.2928 16.707C15.6833 17.0976 16.3165 17.0976 16.707 16.707C17.0975 16.3165 17.0975 15.6833 16.707 15.2928L13.4141 11.9999L16.707 8.70703C17.0975 8.31651 17.0975 7.68334 16.707 7.29282C16.3165 6.90229 15.6833 6.90229 15.2928 7.29282L11.9999 10.5857L8.70701 7.29282Z" fill="black"/>
</svg>
