<svg width="24" height="24" viewBox="0 0 24 24" fill="none" xmlns="http://www.w3.org/2000/svg">
<path d="M12.0001 3.00021C7.02967 3.00021 3.00024 7.02964 3.00024 12.0001C3.00024 16.9704 7.02967 20.9998 12.0001 20.9998C16.9706 20.9998 21 16.9704 21 12.0001C21 7.02964 16.9706 3.00021 12.0001 3.00021ZM11.9888 7.06402C12.1904 6.84514 12.4361 6.7339 12.7187 6.7339C12.9478 6.7339 13.1494 6.81634 13.3008 6.9724C13.4531 7.12756 13.5303 7.3261 13.5303 7.56189C13.5303 7.85745 13.427 8.12024 13.2234 8.3429C13.0142 8.57258 12.7696 8.6894 12.4971 8.6894C12.2721 8.6894 12.0728 8.60498 11.9209 8.44532C11.7704 8.2889 11.6936 8.08442 11.6936 7.83855C11.6936 7.53741 11.7929 7.27678 11.9888 7.06402ZM13.488 15.5432C12.7419 16.2448 12.2093 16.6822 11.8604 16.8809C11.4882 17.094 11.1815 17.1981 10.9232 17.1981C10.6665 17.1981 10.4572 17.1126 10.3006 16.9443C10.1488 16.7815 10.072 16.5618 10.072 16.2918C10.072 15.6017 10.4629 13.999 11.2677 11.3921C11.2814 11.348 11.292 11.306 11.2992 11.267C11.2692 11.2799 11.2344 11.2983 11.1941 11.3233C11.1282 11.3649 10.9275 11.5224 10.3402 12.0962C10.2505 12.1839 10.1103 12.192 10.0111 12.1151L9.66375 11.8464C9.60832 11.8037 9.5734 11.7396 9.56728 11.6698C9.56116 11.6001 9.58456 11.531 9.63154 11.4792C10.1728 10.8832 10.678 10.4505 11.1334 10.1931C11.6101 9.92454 12.0131 9.79386 12.365 9.79386C12.5925 9.79386 12.7763 9.85038 12.9116 9.96234C13.0589 10.0851 13.1366 10.2556 13.1366 10.4555C13.1366 10.5868 13.0743 10.9286 12.6146 12.4702C11.958 14.6731 11.801 15.4726 11.7904 15.7493C11.9146 15.6758 12.2086 15.467 12.836 14.8774C12.9338 14.7848 13.0871 14.7866 13.1831 14.8802L13.491 15.1805C13.5402 15.2283 13.5677 15.294 13.567 15.3626C13.5663 15.4312 13.5378 15.4962 13.488 15.5432Z" fill="black"/>
</svg>
