<svg width="24" height="24" viewBox="0 0 24 24" fill="none" xmlns="http://www.w3.org/2000/svg">
<path fill-rule="evenodd" clip-rule="evenodd" d="M16.9447 11.1468H7.05529C6.27504 11.1468 5.64252 11.7793 5.64252 12.5596V19.6234C5.64252 20.4037 6.27504 21.0362 7.05529 21.0362H16.9447C17.7249 21.0362 18.3575 20.4037 18.3575 19.6234V12.5596C18.3575 11.7793 17.7249 11.1468 16.9447 11.1468ZM7.05529 9.73404C5.49479 9.73404 4.22975 10.9991 4.22975 12.5596V19.6234C4.22975 21.1839 5.49479 22.449 7.05529 22.449H16.9447C18.5052 22.449 19.7702 21.1839 19.7702 19.6234V12.5596C19.7702 10.9991 18.5052 9.73404 16.9447 9.73404H7.05529Z" fill="black"/>
<path fill-rule="evenodd" clip-rule="evenodd" d="M7.05529 6.49572C7.05529 3.76484 9.26911 1.55103 12 1.55103C14.7309 1.55103 16.9447 3.76484 16.9447 6.49572V9.73404H15.5319V6.49572C15.5319 4.54509 13.9506 2.9638 12 2.9638C10.0494 2.9638 8.46807 4.54509 8.46807 6.49572V9.73404H7.05529V6.49572Z" fill="black"/>
<path fill-rule="evenodd" clip-rule="evenodd" d="M6.80529 6.49572C6.80529 3.62677 9.13104 1.30103 12 1.30103C14.8689 1.30103 17.1947 3.62677 17.1947 6.49572V9.49405C18.7763 9.62129 20.0202 10.9452 20.0202 12.5596V19.6234C20.0202 21.322 18.6433 22.699 16.9447 22.699H7.05529C5.35672 22.699 3.97975 21.322 3.97975 19.6234V12.5596C3.97975 10.9452 5.22364 9.62129 6.80529 9.49405V6.49572ZM7.05529 9.98404C5.63286 9.98404 4.47975 11.1371 4.47975 12.5596V19.6234C4.47975 21.0459 5.63286 22.199 7.05529 22.199H16.9447C18.3671 22.199 19.5202 21.0459 19.5202 19.6234V12.5596C19.5202 11.1371 18.3671 9.98404 16.9447 9.98404H7.05529ZM8.71807 9.48404H15.2819V6.49572C15.2819 4.68317 13.8126 3.2138 12 3.2138C10.1874 3.2138 8.71807 4.68317 8.71807 6.49572V9.48404ZM15.7819 9.48404H16.6947V6.49572C16.6947 3.90291 14.5928 1.80103 12 1.80103C9.40718 1.80103 7.30529 3.90291 7.30529 6.49572V9.48404H8.21807V6.49572C8.21807 4.40702 9.91129 2.7138 12 2.7138C14.0887 2.7138 15.7819 4.40702 15.7819 6.49572V9.48404ZM7.05529 11.3968C6.41311 11.3968 5.89252 11.9174 5.89252 12.5596V19.6234C5.89252 20.2656 6.41311 20.7862 7.05529 20.7862H16.9447C17.5869 20.7862 18.1075 20.2656 18.1075 19.6234V12.5596C18.1075 11.9174 17.5869 11.3968 16.9447 11.3968H7.05529ZM5.39252 12.5596C5.39252 11.6413 6.13697 10.8968 7.05529 10.8968H16.9447C17.863 10.8968 18.6075 11.6413 18.6075 12.5596V19.6234C18.6075 20.5418 17.863 21.2862 16.9447 21.2862H7.05529C6.13697 21.2862 5.39252 20.5418 5.39252 19.6234V12.5596Z" fill="black"/>
</svg>
