<svg width="24" height="24" viewBox="0 0 24 24" fill="none" xmlns="http://www.w3.org/2000/svg">
<path d="M19.375 17.75V4.625C19.375 3.17513 18.1999 2 16.75 2H4.0625C2.37112 2 1 3.37112 1 5.0625V7.25H5.375V20.375C5.375 21.8249 6.55013 23 8 23H18.5H18.9375C20.6289 23 22 21.6289 22 19.9375V17.75H19.375ZM5.375 5.5H2.75V5.0625C2.75 4.33888 3.33888 3.75 4.0625 3.75C4.78612 3.75 5.375 4.33888 5.375 5.0625V5.5ZM13.7628 9.875L15 8.63775L17.3686 11.0064C17.7108 11.3485 17.7108 11.9015 17.3686 12.2436L15 14.6122L13.7628 13.375L15.5128 11.625L13.7628 9.875ZM8.25638 12.2436C7.91425 11.9015 7.91425 11.3485 8.25638 11.0064L10.625 8.63775L11.8622 9.875L10.1122 11.625L11.8622 13.375L10.625 14.6122L8.25638 12.2436ZM20.25 19.9375C20.25 20.6611 19.6611 21.25 18.9375 21.25H11.2156C11.3933 20.8834 11.5 20.4494 11.5 19.9375V19.5H20.25V19.9375Z" fill="black"/>
</svg>
