<svg width="20" height="20" viewBox="0 0 20 20" fill="none" xmlns="http://www.w3.org/2000/svg">
<path d="M16.1458 14.7917V3.85416C16.1458 2.64593 15.1666 1.66666 13.9583 1.66666H3.38541C1.97593 1.66666 0.833328 2.80926 0.833328 4.21874V6.04166H4.47916V16.9792C4.47916 18.1874 5.45843 19.1667 6.66666 19.1667H15.4167H15.7812C17.1907 19.1667 18.3333 18.0241 18.3333 16.6146V14.7917H16.1458ZM4.47916 4.58332H2.29166V4.21874C2.29166 3.61572 2.78239 3.12499 3.38541 3.12499C3.98843 3.12499 4.47916 3.61572 4.47916 4.21874V4.58332ZM11.469 8.22916L12.5 7.19811L14.4739 9.17197C14.759 9.45707 14.759 9.91791 14.4739 10.203L12.5 12.1769L11.469 11.1458L12.9273 9.68749L11.469 8.22916ZM6.88031 10.203C6.5952 9.91791 6.5952 9.45707 6.88031 9.17197L8.85416 7.19811L9.8852 8.22916L8.42687 9.68749L9.8852 11.1458L8.85416 12.1769L6.88031 10.203ZM16.875 16.6146C16.875 17.2176 16.3843 17.7083 15.7812 17.7083H9.34635C9.49437 17.4028 9.58333 17.0411 9.58333 16.6146V16.25H16.875V16.6146Z" fill="black"/>
</svg>
