<svg width="24" height="24" viewBox="0 0 24 24" fill="none" xmlns="http://www.w3.org/2000/svg">
<path d="M16.4353 16.7334V19.2667C16.4353 20.5185 15.4204 21.5334 14.1686 21.5334H6.23526C4.98341 21.5334 3.96859 20.5185 3.96859 19.2667V5.66669C3.96859 4.41485 4.98341 3.40002 6.23526 3.40002H14.1686C15.4204 3.40002 16.4353 4.41484 16.4353 5.66669V8.20002" stroke="black" stroke-width="2"/>
<rect width="6" height="3" rx="1" transform="matrix(-1 0 0 1 12.9686 2.46667)" fill="black"/>
<path d="M8.77702 14.5328H9.92485L9.81006 13.2702L10.8575 14.0019L11.4314 12.9976L10.2835 12.4667L11.4314 11.9359L10.8575 10.9315L9.81006 11.6632L9.92485 10.4006H8.77702L8.8918 11.6632L7.84441 10.9315L7.27049 11.9359L8.41832 12.4667L7.27049 12.9976L7.84441 14.0019L8.8918 13.2702L8.77702 14.5328Z" fill="black"/>
<path d="M14.0167 14.5328H15.1645L15.0497 13.2702L16.0971 14.0019L16.671 12.9976L15.5232 12.4667L16.671 11.9359L16.0971 10.9315L15.0497 11.6632L15.1645 10.4006H14.0167L14.1314 11.6632L13.084 10.9315L12.5101 11.9359L13.658 12.4667L12.5101 12.9976L13.084 14.0019L14.1314 13.2702L14.0167 14.5328Z" fill="black"/>
<path d="M19.377 14.5328H20.5249L20.4101 13.2702L21.4575 14.0019L22.0314 12.9976L20.8836 12.4667L22.0314 11.9359L21.4575 10.9315L20.4101 11.6632L20.5249 10.4006H19.377L19.4918 11.6632L18.4444 10.9315L17.8705 11.9359L19.0184 12.4667L17.8705 12.9976L18.4444 14.0019L19.4918 13.2702L19.377 14.5328Z" fill="black"/>
</svg>
