<svg width="24" height="24" viewBox="0 0 24 24" fill="none" xmlns="http://www.w3.org/2000/svg">
<path fill-rule="evenodd" clip-rule="evenodd" d="M10.3438 11.9372L10.3414 11.9348L20.8 5.99219L14.8187 16.5152L14.8164 16.5129C14.2365 17.4601 13.1921 18.0922 12 18.0922C10.1775 18.0922 8.7 16.6147 8.7 14.7922C8.7 13.5733 9.36086 12.5087 10.3438 11.9372Z" fill="black"/>
<path fill-rule="evenodd" clip-rule="evenodd" d="M12 3.79218C14.1119 3.79218 16.0848 4.38735 17.7602 5.41911L15.7041 6.58735C14.5744 6.07653 13.3204 5.79218 12 5.79218C7.02944 5.79218 3 9.82161 3 14.7922C3 16.8253 3.67416 18.701 4.81114 20.2079H2.42332C1.51727 18.6091 1 16.761 1 14.7922C1 8.71704 5.92487 3.79218 12 3.79218ZM21.5767 20.2079C22.4827 18.6091 23 16.761 23 14.7922C23 12.6801 22.4048 10.7071 21.3729 9.03168L20.2045 11.0873C20.7155 12.2172 21 13.4714 21 14.7922C21 16.8253 20.3258 18.701 19.1889 20.2079H21.5767Z" fill="black"/>
</svg>
