<svg width="24" height="24" viewBox="0 0 24 24" fill="none" xmlns="http://www.w3.org/2000/svg">
<path d="M6 11H18" stroke="black" stroke-width="2"/>
<path d="M6 14H12" stroke="black" stroke-width="2"/>
<path d="M6 8H18" stroke="black" stroke-width="2"/>
<path d="M3 4C3 3.44772 3.44772 3 4 3H20C20.5523 3 21 3.44772 21 4V18.5657V20.6046L17.9008 19.5527C17.4596 19.403 16.9799 19.412 16.5446 19.5782L14.8271 20.234L12.6131 19.5295C12.2103 19.4013 11.7772 19.4041 11.3761 19.5374L9.27868 20.2343L7.43359 19.5639C7.00613 19.4086 6.53851 19.4036 6.10784 19.5498L3 20.6046L3 18.5657V4Z" stroke="black" stroke-width="2"/>
</svg>
