<svg width="24" height="24" viewBox="0 0 24 24" fill="none" xmlns="http://www.w3.org/2000/svg">
<path d="M18.2736 3.22785C18.2736 4.45826 17.2599 5.4557 16.0094 5.4557C14.759 5.4557 13.7453 4.45826 13.7453 3.22785C13.7453 1.99744 14.759 1 16.0094 1C17.2599 1 18.2736 1.99744 18.2736 3.22785Z" fill="black"/>
<path fill-rule="evenodd" clip-rule="evenodd" d="M13.5755 6.36182H16.2725L20.7065 10.6319H22V12.8112H19.803L16.7646 9.88517L16.4906 13.9028L18.4377 15.8187V23H16.2228V16.7214L14.073 14.606L13.1735 19.3773L6.44058 18.2731L6.80469 16.1235L11.3925 16.8759L12.2691 12.2255L12.5361 9.13172L11.0791 9.7158V12.4641H8.86425V8.25045L13.5755 6.36182Z" fill="black"/>
<path fill-rule="evenodd" clip-rule="evenodd" d="M4.26426 2.64874H10.2547V4.82804H4.26426V2.64874ZM2.75478 6.82597H6.76423V9.00526H2.75478V6.82597ZM2 10.9568H6.71703V13.1361H2V10.9568Z" fill="black"/>
</svg>
