<svg width="24" height="24" viewBox="0 0 24 24" fill="none" xmlns="http://www.w3.org/2000/svg">
<path fill-rule="evenodd" clip-rule="evenodd" d="M3.72955 3.09338C3.37819 3.09338 3.09336 3.37821 3.09336 3.72956V7.54669C3.09336 7.89805 2.80853 8.18288 2.45717 8.18288C2.10582 8.18288 1.82098 7.89805 1.82098 7.54669V3.72956C1.82098 2.67549 2.67548 1.821 3.72955 1.821H7.54668C7.89803 1.821 8.18287 2.10583 8.18287 2.45719C8.18287 2.80854 7.89803 3.09338 7.54668 3.09338H3.72955ZM15.8171 2.45719C15.8171 2.10583 16.102 1.821 16.4533 1.821H20.2704C21.3245 1.821 22.179 2.67549 22.179 3.72956V7.54669C22.179 7.89805 21.8942 8.18288 21.5428 8.18288C21.1915 8.18288 20.9066 7.89805 20.9066 7.54669V3.72956C20.9066 3.37821 20.6218 3.09338 20.2704 3.09338H16.4533C16.102 3.09338 15.8171 2.80854 15.8171 2.45719ZM2.45717 15.8171C2.80853 15.8171 3.09336 16.102 3.09336 16.4533V20.2705C3.09336 20.6218 3.37819 20.9066 3.72955 20.9066H7.54668C7.89803 20.9066 8.18287 21.1915 8.18287 21.5428C8.18287 21.8942 7.89803 22.179 7.54668 22.179H3.72955C2.67548 22.179 1.82098 21.3245 1.82098 20.2705V16.4533C1.82098 16.102 2.10582 15.8171 2.45717 15.8171ZM21.5428 15.8171C21.8942 15.8171 22.179 16.102 22.179 16.4533V20.2705C22.179 21.3245 21.3245 22.179 20.2704 22.179H16.4533C16.102 22.179 15.8171 21.8942 15.8171 21.5428C15.8171 21.1915 16.102 20.9066 16.4533 20.9066H20.2704C20.6218 20.9066 20.9066 20.6218 20.9066 20.2705V16.4533C20.9066 16.102 21.1915 15.8171 21.5428 15.8171Z" fill="black"/>
<path d="M5.63812 7.54668C5.63812 7.19532 5.92295 6.91049 6.27431 6.91049C6.62567 6.91049 6.9105 7.19532 6.9105 7.54668V16.4533C6.9105 16.8047 6.62567 17.0895 6.27431 17.0895C5.92295 17.0895 5.63812 16.8047 5.63812 16.4533V7.54668Z" fill="black"/>
<path d="M8.18288 7.54668C8.18288 7.19532 8.46771 6.91049 8.81906 6.91049C9.17042 6.91049 9.45525 7.19532 9.45525 7.54668V16.4533C9.45525 16.8047 9.17042 17.0895 8.81906 17.0895C8.46771 17.0895 8.18288 16.8047 8.18288 16.4533V7.54668Z" fill="black"/>
<path d="M10.7276 7.54668C10.7276 7.19532 11.0125 6.91049 11.3638 6.91049C11.7152 6.91049 12 7.19532 12 7.54668V16.4533C12 16.8047 11.7152 17.0895 11.3638 17.0895C11.0125 17.0895 10.7276 16.8047 10.7276 16.4533V7.54668Z" fill="black"/>
<path d="M13.2724 7.54668C13.2724 7.19532 13.5572 6.91049 13.9086 6.91049H15.1809C15.5323 6.91049 15.8171 7.19532 15.8171 7.54668V16.4533C15.8171 16.8047 15.5323 17.0895 15.1809 17.0895H13.9086C13.5572 17.0895 13.2724 16.8047 13.2724 16.4533V7.54668Z" fill="black"/>
<path d="M17.0895 7.54668C17.0895 7.19532 17.3743 6.91049 17.7257 6.91049C18.0771 6.91049 18.3619 7.19532 18.3619 7.54668V16.4533C18.3619 16.8047 18.0771 17.0895 17.7257 17.0895C17.3743 17.0895 17.0895 16.8047 17.0895 16.4533V7.54668Z" fill="black"/>
</svg>
