<svg width="24" height="24" viewBox="0 0 24 24" fill="none" xmlns="http://www.w3.org/2000/svg">
<path fill-rule="evenodd" clip-rule="evenodd" d="M9.92717 2.26553C9.96935 2.03359 10.1714 1.86499 10.4071 1.86499H13.5929C13.8286 1.86499 14.0307 2.03359 14.0728 2.26553L14.5283 4.77052C14.5925 5.12353 15.003 5.28878 15.2938 5.07871L17.3299 3.60822C17.524 3.46804 17.7911 3.48945 17.9604 3.65874L20.2062 5.90457C20.3755 6.07387 20.397 6.34101 20.2568 6.5351L18.7863 8.57117C18.5762 8.86204 18.7415 9.27253 19.0945 9.33671L21.5995 9.79216C21.8314 9.83434 22 10.0364 22 10.2721V13.4579C22 13.6936 21.8314 13.8956 21.5995 13.9378L19.0945 14.3933C18.7415 14.4575 18.5762 14.8679 18.7863 15.1588L20.2568 17.1949C20.397 17.389 20.3755 17.6561 20.2062 17.8254L17.9604 20.0712C17.7911 20.2405 17.524 20.2619 17.3299 20.1218L15.2938 18.6513C15.003 18.4412 14.5925 18.6065 14.5283 18.9595L14.0728 21.4644C14.0307 21.6964 13.8286 21.865 13.5929 21.865H10.4071C10.1714 21.865 9.96935 21.6964 9.92717 21.4644L9.47172 18.9595C9.40754 18.6065 8.99705 18.4412 8.70618 18.6513L6.67011 20.1218C6.47602 20.2619 6.20888 20.2405 6.03958 20.0712L3.79375 17.8254C3.62446 17.6561 3.60305 17.389 3.74323 17.1949L5.21372 15.1588C5.42379 14.8679 5.25854 14.4575 4.90553 14.3933L2.40054 13.9378C2.1686 13.8956 2 13.6936 2 13.4579V10.2721C2 10.0364 2.1686 9.83434 2.40054 9.79216L4.90553 9.33671C5.25854 9.27253 5.42379 8.86204 5.21372 8.57117L3.74323 6.5351C3.60305 6.34101 3.62446 6.07387 3.79375 5.90457L6.03958 3.65874C6.20888 3.48945 6.47602 3.46804 6.67011 3.60822L8.70618 5.07871C8.99705 5.28878 9.40754 5.12353 9.47172 4.77052L9.92717 2.26553ZM12 15.0357C13.7511 15.0357 15.1707 13.6161 15.1707 11.865C15.1707 10.1138 13.7511 8.69426 12 8.69426C10.2489 8.69426 8.82927 10.1138 8.82927 11.865C8.82927 13.6161 10.2489 15.0357 12 15.0357Z" fill="black"/>
</svg>
