<svg width="24" height="24" viewBox="0 0 24 24" fill="none" xmlns="http://www.w3.org/2000/svg">
<path fill-rule="evenodd" clip-rule="evenodd" d="M10.1345 3.22548C10.1724 3.01673 10.3542 2.86499 10.5664 2.86499H13.4336C13.6458 2.86499 13.8276 3.01673 13.8655 3.22548L14.2755 5.47997C14.3332 5.79767 14.7027 5.9464 14.9644 5.75734L16.7969 4.4339C16.9716 4.30774 17.212 4.327 17.3644 4.47937L19.3856 6.50061C19.538 6.65298 19.5573 6.89341 19.4311 7.06809L18.1076 8.90055C17.9186 9.16233 18.0673 9.53178 18.385 9.58954L20.6395 9.99945C20.8483 10.0374 21 10.2192 21 10.4314V13.2986C21 13.5108 20.8483 13.6926 20.6395 13.7305L18.385 14.1404C18.0673 14.1982 17.9186 14.5676 18.1076 14.8294L19.4311 16.6619C19.5573 16.8366 19.538 17.077 19.3856 17.2294L17.3644 19.2506C17.212 19.403 16.9716 19.4222 16.7969 19.2961L14.9644 17.9726C14.7027 17.7836 14.3332 17.9323 14.2755 18.25L13.8655 20.5045C13.8276 20.7133 13.6458 20.865 13.4336 20.865H10.5664C10.3542 20.865 10.1724 20.7133 10.1345 20.5045L9.72455 18.25C9.66678 17.9323 9.29734 17.7836 9.03556 17.9726L7.2031 19.2961C7.02842 19.4222 6.78799 19.403 6.63562 19.2506L4.61438 17.2294C4.46201 17.077 4.44275 16.8366 4.56891 16.6619L5.89235 14.8294C6.08141 14.5676 5.93268 14.1982 5.61498 14.1404L3.36049 13.7305C3.15174 13.6926 3 13.5108 3 13.2986V10.4314C3 10.2192 3.15174 10.0374 3.36049 9.99945L5.61498 9.58954C5.93268 9.53178 6.08141 9.16233 5.89235 8.90055L4.56891 7.06809C4.44275 6.89341 4.46201 6.65298 4.61438 6.50061L6.63562 4.47937C6.78799 4.327 7.02842 4.30774 7.2031 4.4339L9.03556 5.75734C9.29734 5.9464 9.66678 5.79767 9.72455 5.47997L10.1345 3.22548ZM12 14.7186C13.576 14.7186 14.8537 13.441 14.8537 11.865C14.8537 10.289 13.576 9.01133 12 9.01133C10.424 9.01133 9.14634 10.289 9.14634 11.865C9.14634 13.441 10.424 14.7186 12 14.7186Z" stroke="black" stroke-width="1.6875"/>
</svg>
