<svg width="24" height="24" viewBox="0 0 24 24" fill="none" xmlns="http://www.w3.org/2000/svg">
<path fill-rule="evenodd" clip-rule="evenodd" d="M7.19023 16.1669L4.60755 18.7496L5.25037 19.3924L7.83303 16.8097C7.60383 16.611 7.38897 16.3961 7.19023 16.1669ZM8.48047 14.8766C8.6728 15.1117 8.88822 15.3271 9.12327 15.5195L11.5455 13.0972V16.5231C11.695 16.5379 11.8467 16.5455 12.0001 16.5455C12.1535 16.5455 12.3051 16.5379 12.4546 16.5231V13.0973L14.8768 15.5195C15.1119 15.3272 15.3273 15.1117 15.5196 14.8767L13.0974 12.4545H16.5231C16.5379 12.305 16.5455 12.1534 16.5455 12.0001C16.5455 11.8466 16.5379 11.6949 16.5231 11.5454H13.0974L15.5195 9.12326C15.3271 8.88822 15.1117 8.6728 14.8766 8.48046L12.4546 10.9025V7.47706C12.3051 7.46222 12.1535 7.45462 12.0001 7.45462C11.8467 7.45462 11.695 7.46223 11.5455 7.47707V10.9026L9.12344 8.48051C8.88839 8.67285 8.67296 8.88828 8.48061 9.12332L10.9026 11.5454H7.47709C7.46224 11.6949 7.45463 11.8466 7.45463 12.0001C7.45463 12.1534 7.46223 12.305 7.47706 12.4545H10.9026L8.48047 14.8766ZM5.65245 11.5454H2.00003V12.4545H5.65243C5.64184 12.3044 5.63646 12.1528 5.63646 12.0001C5.63646 11.8472 5.64185 11.6956 5.65245 11.5454ZM7.19037 7.83309L4.60756 5.25028L5.25038 4.60745L7.8332 7.19027C7.60399 7.38902 7.38913 7.60388 7.19037 7.83309ZM11.5455 5.65243C11.6956 5.64184 11.8472 5.63645 12.0001 5.63645C12.1529 5.63645 12.3045 5.64184 12.4546 5.65243V2.00002H11.5455V5.65243ZM16.1669 7.19022C16.3961 7.38896 16.611 7.60382 16.8097 7.83303L19.3925 5.25026L18.7497 4.60744L16.1669 7.19022ZM18.3477 11.5454C18.3583 11.6956 18.3637 11.8472 18.3637 12.0001C18.3637 12.1528 18.3583 12.3044 18.3477 12.4545H22V11.5454H18.3477ZM16.8099 16.1669C16.6111 16.3961 16.3963 16.611 16.167 16.8098L18.7497 19.3924L19.3925 18.7496L16.8099 16.1669ZM12.4546 18.3477C12.3045 18.3583 12.1529 18.3637 12.0001 18.3637C11.8472 18.3637 11.6956 18.3583 11.5455 18.3477V22H12.4546V18.3477Z" fill="black"/>
<path d="M17.4545 12C17.4545 15.0124 15.0124 17.4545 12 17.4545C8.98752 17.4545 6.54544 15.0124 6.54544 12C6.54544 8.98751 8.98752 6.54543 12 6.54543C15.0124 6.54543 17.4545 8.98751 17.4545 12Z" fill="black"/>
</svg>
