<svg width="24" height="24" viewBox="0 0 24 24" fill="none" xmlns="http://www.w3.org/2000/svg">
<path d="M4.60752 18.7495L7.1902 16.1668C7.38894 16.3961 7.6038 16.6109 7.833 16.8097L5.25034 19.3924L4.60752 18.7495Z" fill="black"/>
<path d="M2 11.5453H5.65242C5.64182 11.6955 5.63643 11.8472 5.63643 12C5.63643 12.1528 5.64181 12.3043 5.6524 12.4544H2V11.5453Z" fill="black"/>
<path d="M4.60753 5.25025L7.19034 7.83307C7.3891 7.60386 7.60396 7.389 7.83317 7.19025L5.25035 4.60743L4.60753 5.25025Z" fill="black"/>
<path d="M12 5.63643C11.8472 5.63643 11.6956 5.64181 11.5455 5.65241V2H12.4546V5.65241C12.3044 5.64181 12.1529 5.63643 12 5.63643Z" fill="black"/>
<path d="M16.8097 7.833C16.6109 7.6038 16.3961 7.38894 16.1668 7.1902L18.7496 4.60742L19.3925 5.25024L16.8097 7.833Z" fill="black"/>
<path d="M18.3637 12C18.3637 11.8472 18.3583 11.6955 18.3477 11.5453H22V12.4544H18.3477C18.3583 12.3043 18.3637 12.1528 18.3637 12Z" fill="black"/>
<path d="M16.167 16.8097C16.3962 16.611 16.6111 16.3961 16.8098 16.1669L19.3925 18.7495L18.7496 19.3924L16.167 16.8097Z" fill="black"/>
<path d="M12 18.3637C12.1529 18.3637 12.3044 18.3583 12.4546 18.3477V22H11.5455V18.3477C11.6956 18.3583 11.8472 18.3637 12 18.3637Z" fill="black"/>
<path d="M11.9999 17.4545C15.0124 17.4545 17.4545 15.0124 17.4545 11.9999C17.4545 8.98749 15.0124 6.54541 11.9999 6.54541C8.98749 6.54541 6.54541 8.98749 6.54541 11.9999C6.54541 15.0124 8.98749 17.4545 11.9999 17.4545Z" fill="black"/>
</svg>
