<svg width="24" height="24" viewBox="0 0 24 24" fill="none" xmlns="http://www.w3.org/2000/svg">
<path d="M21.1516 4.54163H16.3438V3.49524C16.3438 2.75994 15.6651 2.19432 14.8167 2.19432H9.38676C8.53833 2.19432 7.85959 2.75994 7.85959 3.49524V4.54163H3.05185C2.57108 4.54163 2.20343 4.90928 2.20343 5.39005C2.20343 5.87083 2.57108 6.23848 3.05185 6.23848H4.09825L5.14463 19.4173C5.17292 20.9728 6.41727 22.2171 7.97272 22.2171H16.2024C17.7579 22.2171 19.0022 20.9728 19.0305 19.4173L20.1052 6.26676H21.1516C21.6324 6.26676 22 5.89911 22 5.41833C22 4.93756 21.6324 4.54163 21.1516 4.54163ZM9.55644 3.89117H14.647V4.54163H9.55644V3.89117ZM9.89581 17.6639H9.86753C9.41504 17.6639 9.04739 17.2963 9.01911 16.8438L8.70802 9.94326C8.67974 9.46249 9.04739 9.06656 9.52816 9.06656H9.55644C10.0089 9.06656 10.3766 9.43421 10.4049 9.8867L10.716 16.7872C10.716 17.2397 10.3766 17.6356 9.89581 17.6639ZM15.1843 16.8438C15.156 17.2963 14.7884 17.6639 14.3359 17.6639H14.3076C13.8268 17.6356 13.4875 17.2397 13.4875 16.7872L13.7986 9.8867C13.8268 9.43421 14.1945 9.06656 14.647 9.06656H14.6753C15.156 9.09484 15.4954 9.49077 15.4954 9.94326L15.1843 16.8438Z" fill="black"/>
</svg>
