<svg width="24" height="24" viewBox="0 0 24 24" fill="none" xmlns="http://www.w3.org/2000/svg">
<path fill-rule="evenodd" clip-rule="evenodd" d="M11.5891 5.11833C11.8421 4.96056 12.1579 4.96056 12.4109 5.11833L13.5309 5.81674C13.91 6.05313 14.0333 6.56489 13.8064 6.95978C13.5795 7.35466 13.0882 7.48315 12.7091 7.24675L12 6.80458L11.2909 7.24675C10.9118 7.48315 10.4205 7.35466 10.1936 6.95978C9.96666 6.56489 10.09 6.05313 10.4691 5.81674L11.5891 5.11833ZM8.20641 8.19895C8.43335 8.59384 8.31 9.1056 7.93091 9.34199L5.69091 10.7388C5.31182 10.9752 4.82053 10.8467 4.59359 10.4518C4.36666 10.057 4.49 9.5452 4.86909 9.3088L7.10909 7.91198C7.48818 7.67558 7.97947 7.80407 8.20641 8.19895ZM15.7936 8.19895C16.0205 7.80407 16.5118 7.67558 16.8909 7.91198L19.1309 9.3088C19.51 9.5452 19.6333 10.057 19.4064 10.4518C19.1795 10.8467 18.6882 10.9752 18.3091 10.7388L16.0691 9.34199C15.69 9.1056 15.5667 8.59384 15.7936 8.19895ZM2.40014 12.7857C2.72428 12.533 2.81891 12.0608 2.60641 11.691C2.37947 11.2961 1.88818 11.1676 1.50909 11.404L0.389091 12.1025C0.142711 12.2561 -0.0057209 12.5355 0.000168991 12.8346C0.00605895 13.1336 0.165367 13.4064 0.417589 13.5494L1.53759 14.1843C1.92567 14.4043 2.41148 14.255 2.62268 13.8507C2.81509 13.4825 2.71321 13.0297 2.40014 12.7857ZM21.3936 11.691C21.6205 11.2961 22.1118 11.1676 22.4909 11.404L23.6109 12.1025C23.8573 12.2561 24.0057 12.5355 23.9998 12.8346C23.9939 13.1336 23.8346 13.4064 23.5824 13.5494L22.4624 14.1843C22.0743 14.4043 21.5885 14.255 21.3773 13.8507C21.1849 13.4825 21.2868 13.0297 21.5999 12.7857C21.2757 12.533 21.1811 12.0608 21.3936 11.691ZM4.57732 14.9588C4.78852 14.5545 5.27433 14.4052 5.66241 14.6252L7.90241 15.895C8.29049 16.115 8.43388 16.6211 8.22268 17.0253C8.01148 17.4296 7.52567 17.5789 7.13759 17.3589L4.89759 16.0891C4.50951 15.8691 4.36612 15.363 4.57732 14.9588ZM19.4227 14.9588C19.6339 15.363 19.4905 15.8691 19.1024 16.0891L16.8624 17.3589C16.4743 17.5789 15.9885 17.4296 15.7773 17.0253C15.5661 16.6211 15.7095 16.115 16.0976 15.895L18.3376 14.6252C18.7257 14.4052 19.2115 14.5545 19.4227 14.9588ZM10.1773 18.1334C10.3885 17.7291 10.8743 17.5798 11.2624 17.7998L12 18.2179L12.7376 17.7998C13.1257 17.5798 13.6115 17.7291 13.8227 18.1334C14.0339 18.5377 13.8905 19.0437 13.5024 19.2637L12.3824 19.8986C12.144 20.0338 11.856 20.0338 11.6176 19.8986L10.4976 19.2637C10.1095 19.0437 9.96612 18.5377 10.1773 18.1334Z" fill="black"/>
</svg>
