<svg width="24" height="24" viewBox="0 0 24 24" fill="none" xmlns="http://www.w3.org/2000/svg">
<path d="M12.482 15.9086C14.9009 12.4716 15.3081 5.56573 9.86351 5.56573C4.41891 5.56573 4.82207 12.4716 7.24098 15.9086C4.82207 15.9086 2 18.1682 2 20.4595H17.7229C17.727 18.1682 14.9009 15.9086 12.482 15.9086Z" fill="black"/>
<path d="M16.7036 13.8429C19.1225 10.4059 19.5298 3.5 14.0852 3.5C12.7047 3.5 11.7002 3.94397 11.0091 4.6628C12.0707 4.85158 12.9474 5.3108 13.6227 5.99722C14.5088 6.89808 14.9565 8.09678 15.1134 9.32115C15.3575 11.2251 14.9265 13.3862 14.0765 15.1514C15.0215 15.4327 15.9189 15.9383 16.6562 16.5607C17.2534 17.0649 17.7951 17.6895 18.174 18.3938H21.9446C21.9487 16.1024 19.1225 13.8429 16.7036 13.8429Z" fill="black"/>
</svg>
