<svg width="24" height="24" viewBox="0 0 24 24" fill="none" xmlns="http://www.w3.org/2000/svg">
<path fill-rule="evenodd" clip-rule="evenodd" d="M6.10393 5.99703C7.00888 5.07756 8.27536 4.56573 9.86351 4.56573C11.4517 4.56573 12.718 5.07756 13.6227 5.99722C14.5088 6.89808 14.9565 8.09678 15.1134 9.32115C15.3575 11.2251 14.9265 13.3862 14.0765 15.1514C15.0215 15.4327 15.9189 15.9383 16.6562 16.5607C17.7913 17.519 18.7257 18.9119 18.7229 20.4613C18.7219 21.0129 18.2745 21.4595 17.7229 21.4595H2C1.73478 21.4595 1.48043 21.3542 1.29289 21.1666C1.10536 20.9791 1 20.7247 1 20.4595C1 18.9115 1.93339 17.5193 3.06813 16.5609C3.80506 15.9384 4.7019 15.4328 5.64659 15.1515C4.79679 13.3861 4.36661 11.2248 4.6116 9.32069C4.76915 8.09629 5.21746 6.89772 6.10393 5.99703ZM6.59525 9.57592C6.35167 11.469 6.98414 13.8062 8.05876 15.3331C8.27362 15.6384 8.30053 16.038 8.12854 16.3693C7.95655 16.7007 7.61431 16.9086 7.24098 16.9086C6.31885 16.9086 5.22941 17.3533 4.35867 18.0888C3.85131 18.5173 3.47772 18.992 3.25209 19.4595H16.4725C16.2473 18.9923 15.8739 18.5177 15.366 18.0889C14.4948 17.3535 13.4043 16.9086 12.482 16.9086C12.1086 16.9086 11.7664 16.7007 11.5944 16.3693C11.4224 16.038 11.4493 15.6384 11.6642 15.3331C12.739 13.806 13.3724 11.4686 13.1297 9.57546C13.0102 8.64373 12.6901 7.90115 12.1968 7.39974C11.7221 6.91714 10.9977 6.56573 9.86351 6.56573C8.72936 6.56573 8.00452 6.91715 7.52935 7.39994C7.03571 7.9015 6.71513 8.64422 6.59525 9.57592Z" fill="black"/>
<path d="M14.0852 2.5C12.497 2.5 11.2305 3.01182 10.3256 3.93129C9.73453 4.53185 9.33825 5.26484 9.09308 6.04962C9.33571 6.01664 9.59236 5.99951 9.86353 5.99951C10.3517 5.99951 10.7928 6.05503 11.1897 6.15859C11.3396 5.83762 11.5276 5.56121 11.751 5.3342C12.2262 4.85141 12.951 4.5 14.0852 4.5C15.2193 4.5 15.9438 4.85141 16.4185 5.33401C16.9117 5.83541 17.2319 6.578 17.3513 7.50972C17.594 9.40285 16.9606 11.7402 15.8859 13.2674C15.671 13.5727 15.6441 13.9722 15.8161 14.3036C15.9881 14.635 16.3303 14.8429 16.7036 14.8429C17.6259 14.8429 18.7164 15.2877 19.5877 16.0232C20.0955 16.452 20.469 16.9266 20.6941 17.3938H15.536C16.306 17.9294 16.9549 18.6287 17.3413 19.3938H21.9446C22.4962 19.3938 22.9436 18.9472 22.9446 18.3956C22.9474 16.8461 22.013 15.4533 20.8778 14.495C20.1405 13.8725 19.2432 13.367 18.2982 13.0857C19.1482 11.3205 19.5792 9.15941 19.3351 7.25542C19.1781 6.03104 18.7305 4.83234 17.8443 3.93149C16.9397 3.01183 15.6733 2.5 14.0852 2.5Z" fill="black"/>
<path d="M5.61354 16.6493C6.15251 16.4527 6.70659 16.3424 7.24099 16.3424C6.995 15.9929 6.76985 15.6075 6.56958 15.1971C6.18404 15.632 5.85174 16.1212 5.61354 16.6493Z" fill="black"/>
</svg>
