<svg width="24" height="24" viewBox="0 0 24 24" fill="none" xmlns="http://www.w3.org/2000/svg">
<path d="M10.1325 3.61463C10.8978 2.0782 13.0897 2.07755 13.8559 3.61353L21.2971 18.5296C21.9871 19.9126 20.9813 21.5384 19.4357 21.5384H4.56435C3.01931 21.5384 2.01346 19.9136 2.70235 18.5307L10.1325 3.61463ZM13.8558 8.01732C13.8558 7.61546 13.6414 7.18542 13.3297 6.86383C13.0123 6.53639 12.5549 6.28027 12.0203 6.28027C11.4875 6.28027 11.0214 6.5349 10.6948 6.85965C10.3745 7.17815 10.1442 7.60927 10.1442 8.01732C10.1442 8.33031 10.2669 9.94832 10.3867 11.4613C10.4472 12.2237 10.5076 12.9676 10.5528 13.5208C10.5755 13.7974 10.5944 14.0263 10.6076 14.1862L10.6229 14.3714L10.627 14.42L10.6273 14.4243C10.6349 15.1872 11.2557 15.8033 12.0203 15.8033C12.7854 15.8033 13.4064 15.1866 13.4134 14.4231L13.4138 14.4178L13.4175 14.3691L13.4315 14.184L13.4817 13.5186C13.5231 12.9654 13.5785 12.2216 13.6338 11.4592C13.7436 9.94527 13.8558 8.32891 13.8558 8.01732ZM12.0013 20.0196C13.0671 20.0196 13.931 19.1556 13.931 18.0898C13.931 17.024 13.0671 16.1601 12.0013 16.1601C10.9355 16.1601 10.0715 17.024 10.0715 18.0898C10.0715 19.1556 10.9355 20.0196 12.0013 20.0196Z" fill="black" stroke="black" stroke-width="0.639547"/>
</svg>
