<svg width="21" height="20" viewBox="0 0 21 20" fill="none" xmlns="http://www.w3.org/2000/svg">
<path d="M11.0639 2.49832C11.0711 2.49834 11.0787 2.49835 11.0869 2.49837L11.1754 2.49865C12.2027 2.50242 17.4091 2.54016 18.8128 2.91755C19.6733 3.14836 20.351 3.82855 20.581 4.69197C20.7076 5.16634 20.7958 5.79683 20.8573 6.44528L20.8693 6.57516C20.8789 6.68353 20.8879 6.79215 20.8962 6.90036L20.9058 7.02999C20.9879 8.17262 20.9975 9.24188 20.9986 9.47582L20.9988 9.50738C20.9988 9.50996 20.9988 9.51418 20.9988 9.51418V9.5319C20.9988 9.5319 20.9988 9.53613 20.9988 9.53871L20.9986 9.57027C20.9975 9.81305 20.9872 10.9554 20.8962 12.1458L20.8859 12.2758L20.875 12.4059C20.8131 13.1217 20.7202 13.8324 20.581 14.3541C20.351 15.2175 19.6733 15.8979 18.8128 16.1285C17.3623 16.5187 11.8514 16.546 11.0869 16.5479L11.0281 16.548C11.0233 16.548 11.019 16.548 11.0154 16.548L10.9913 16.548C10.9913 16.548 10.9858 16.548 10.9822 16.548L10.9106 16.5479C10.5243 16.5469 8.92571 16.5395 7.25162 16.482L7.03758 16.4744C7.00187 16.473 6.96615 16.4717 6.93042 16.4703L6.71614 16.4619L6.50235 16.4528C5.11547 16.3919 3.79315 16.2921 3.18486 16.1285C2.32434 15.8979 1.64671 15.2175 1.41672 14.3541C1.27739 13.8324 1.1845 13.1217 1.12258 12.4059L1.11166 12.2758L1.1014 12.1458C1.01363 10.9987 1.00089 9.89619 0.999039 9.60028L0.998818 9.55792C0.998803 9.55411 0.99879 9.5506 0.998779 9.54739V9.49869C0.99879 9.49549 0.998803 9.49198 0.998818 9.48816L0.999039 9.44581C1.00071 9.17782 1.01132 8.24828 1.07851 7.22318L1.0872 7.09458C1.0887 7.07308 1.09023 7.05155 1.09178 7.02999L1.1014 6.90036C1.10968 6.79215 1.11862 6.68353 1.12829 6.57516L1.14025 6.44528C1.20178 5.79683 1.29006 5.16634 1.41672 4.69197C1.64671 3.82855 2.32434 3.14836 3.18486 2.91755C3.79315 2.75401 5.11547 2.65426 6.50235 2.59341L6.71614 2.58435L6.93042 2.57589C6.96615 2.57452 7.00187 2.57318 7.03758 2.57187L7.25162 2.56426C8.81885 2.51046 10.3199 2.5005 10.8221 2.49865L10.9106 2.49837C10.9188 2.49835 10.9265 2.49834 10.9336 2.49832H11.0639ZM8.99882 6.51231V12.5338L14.1947 9.52321L8.99882 6.51231Z" fill="black"/>
</svg>
